<?xml version="1.0" encoding="utf-8"?>
<!-- Generator: Adobe Illustrator 25.4.1, SVG Export Plug-In . SVG Version: 6.00 Build 0)  -->
<svg version="1.1" id="Layer_1" xmlns="http://www.w3.org/2000/svg" xmlns:xlink="http://www.w3.org/1999/xlink" x="0px" y="0px"
	 viewBox="0 0 2500 337" enable-background="new 0 0 2500 337" xml:space="preserve">
<path fill="#FFFFFF" d="M1344.672,69.014h38.512v199.775h-48.941l-56.964-92.266c-9.628-16.046-18.453-32.895-18.453-32.895h-0.803
	v125.161h-38.511V69.014h45.731l67.395,109.114c4.813,7.221,8.022,14.441,11.232,22.464L1344.672,69.014L1344.672,69.014z
	 M1566.912,150.849h-67.394V68.211h-48.941v199.775h48.941v-85.045h67.394v85.045h48.941V68.211h-48.941V150.849z M848.844,181.337
	h63.383v-29.686h-63.383v-52.15h85.045V69.014H799.904v199.775h135.591v-33.697h-86.65L848.844,181.337L848.844,181.337z
	 M672.336,113.943c-3.209-4.012-2.407-9.628,0.803-12.837c1.605-1.604,4.011-2.407,6.418-2.407h73.011V69.014h-86.65
	c-23.267-0.803-42.523,16.848-44.127,40.115c0,12.035,0.803,20.058,18.453,38.511l64.987,68.196
	c4.814,4.012,5.616,10.431,2.407,15.244c-2.407,3.209-5.616,4.814-9.628,4.012h-80.232v33.697h91.464
	c26.477,0.803,48.139-19.256,48.941-45.732v-1.604c0-12.838-3.21-22.465-20.86-40.116L672.336,113.943z M1113.607,199.79
	c-3.209-8.022-7.221-15.243-12.034-22.465l-67.395-109.114h-45.731v199.775h38.511V143.628h0.803c0,0,8.023,17.651,18.453,32.895
	l56.964,92.266h48.941V69.014h-38.511L1113.607,199.79L1113.607,199.79z M2197.529,181.337h63.383v-29.686h-63.383v-52.15h85.045
	V69.014h-134.788v199.775h135.591v-33.697h-86.649L2197.529,181.337L2197.529,181.337z M2500,268.789h-52.953l-38.511-81.836
	h-21.662v81.836h-48.941V69.014h89.858c43.325,0,63.383,26.476,63.383,57.766c0,24.069-15.244,45.732-38.511,53.755L2500,268.789
	L2500,268.789z M2448.653,127.582c0-8.825-5.617-28.08-31.291-28.08h-30.487v56.964h29.686
	C2443.838,156.465,2448.653,136.408,2448.653,127.582L2448.653,127.582z M2020.218,113.943c-3.209-4.012-2.406-9.627,0.803-12.837
	c1.604-1.604,4.012-2.407,6.419-2.407h73.01V69.014h-86.65c-23.267-0.803-42.522,16.848-44.127,40.115
	c0,12.035,0.803,20.058,18.453,38.511l64.987,68.196c4.813,4.012,5.616,10.431,2.407,15.244c-2.407,3.209-5.616,4.814-9.628,4.012
	h-80.23v33.697h91.463c26.477,0.803,48.139-19.256,48.941-45.732v-1.604c0-12.838-3.21-22.465-20.86-40.116L2020.218,113.943
	L2020.218,113.943z M1732.189,181.337h63.383v-29.686h-63.383v-52.15h85.045V69.014h-134.788v199.775h135.591v-33.697h-86.649
	L1732.189,181.337z M1872.593,268.789h48.941V69.014h-48.941V268.789z M0,0.015v336.971h449.294V0.015H0z M247.112,31.305
	c-26.477,10.43-52.15,32.895-73.01,78.626c-5.616,12.837-17.651,38.511-22.465,49.744c-41.721,91.464-62.58,110.719-125.963,110.719
	V25.689H246.31c1.604,0,3.209,1.605,3.209,3.209C249.519,29.7,248.716,30.502,247.112,31.305L247.112,31.305z M423.619,66.606
	v244.705H202.985c-1.605,0-3.209-1.604-3.209-3.21c0-1.604,0.802-2.406,1.604-3.209c26.477-10.43,52.15-32.895,73.01-78.626
	c5.616-12.837,17.651-38.511,22.465-49.743C339.377,85.862,360.238,66.606,423.619,66.606L423.619,66.606z"/>
</svg>
