<svg xmlns="http://www.w3.org/2000/svg" viewBox="0 0 4344 24" width="4344" height="24"><g fill="#ffffff" stroke="#000000" stroke-miterlimit="10"><path d="M12 .75c-2.983 0-5.846 1.186-7.955 3.295S.75 9.017.75 12c0 2.983 1.186 5.846 3.295 7.955S9.017 23.25 12 23.25c2.983 0 5.846-1.186 7.955-3.295S23.25 14.983 23.25 12c0-2.983-1.186-5.846-3.295-7.955S14.983.75 12 .75z" stroke-dasharray="0,70.68533917557349" stroke-dashoffset="70.685339"/><path d="M5.2 11.6l5.27 5.27 9.84-8.76" stroke-dasharray="0,20.627244166786788" stroke-dashoffset="20.627244"/></g><g fill="#ffffff" stroke-miterlimit="10"><path d="M36 .75c-2.983 0-5.846 1.186-7.955 3.295S24.75 9.017 24.75 12c0 2.983 1.186 5.846 3.295 7.955S33.017 23.25 36 23.25c2.983 0 5.846-1.186 7.955-3.295S47.25 14.983 47.25 12c0-2.983-1.186-5.846-3.295-7.955S38.983.75 36 .75z" stroke="#000000" stroke-dasharray="0,70.68533917557349" stroke-dashoffset="70.685339"/><path d="M29.2 11.6l5.27 5.27 9.84-8.76" stroke="#010102" stroke-dasharray="0.1718937013898899,20.455350465396897" stroke-dashoffset="20.627244"/></g><g fill="#ffffff" stroke-miterlimit="10"><path d="M60 .75c-2.983 0-5.846 1.186-7.955 3.295S48.75 9.017 48.75 12c0 2.983 1.186 5.846 3.295 7.955S57.017 23.25 60 23.25c2.983 0 5.846-1.186 7.955-3.295S71.25 14.983 71.25 12c0-2.983-1.186-5.846-3.295-7.955S62.983.75 60 .75z" stroke="#000000" stroke-dasharray="0,70.68533917557349" stroke-dashoffset="70.685339"/><path d="M53.2 11.6l5.27 5.27 9.84-8.76" stroke="#020204" stroke-dasharray="0.3437874027797798,20.283456764007006" stroke-dashoffset="20.627244"/></g><g fill="#ffffff" stroke-miterlimit="10"><path d="M84 .75c-2.983 0-5.846 1.186-7.955 3.295S72.75 9.017 72.75 12c0 2.983 1.186 5.846 3.295 7.955S81.017 23.25 84 23.25c2.983 0 5.846-1.186 7.955-3.295S95.25 14.983 95.25 12c0-2.983-1.186-5.846-3.295-7.955S86.983.75 84 .75z" stroke="#000000" stroke-dasharray="0,70.68533917557349" stroke-dashoffset="70.685339"/><path d="M77.2 11.6l5.27 5.27 9.84-8.76" stroke="#030406" stroke-dasharray="0.5156811041696697,20.11156306261712" stroke-dashoffset="20.627244"/></g><g fill="#ffffff" stroke-miterlimit="10"><path d="M108 .75c-2.983 0-5.846 1.186-7.955 3.295S96.75 9.017 96.75 12c0 2.983 1.186 5.846 3.295 7.955s4.972 3.295 7.955 3.295c2.983 0 5.846-1.186 7.955-3.295s3.295-4.972 3.295-7.955c0-2.983-1.186-5.846-3.295-7.955S110.983.75 108 .75z" stroke="#000000" stroke-dasharray="0,70.68533917557349" stroke-dashoffset="70.685339"/><path d="M101.2 11.6l5.27 5.27 9.84-8.76" stroke="#030508" stroke-dasharray="0.6875748055595596,19.939669361227228" stroke-dashoffset="20.627244"/></g><g fill="#ffffff" stroke-miterlimit="10"><path d="M132 .75c-2.983 0-5.846 1.186-7.955 3.295S120.75 9.017 120.75 12c0 2.983 1.186 5.846 3.295 7.955s4.972 3.295 7.955 3.295c2.983 0 5.846-1.186 7.955-3.295s3.295-4.972 3.295-7.955c0-2.983-1.186-5.846-3.295-7.955S134.983.75 132 .75z" stroke="#000000" stroke-dasharray="0,70.68533917557349" stroke-dashoffset="70.685339"/><path d="M125.2 11.6l5.27 5.27 9.84-8.76" stroke="#04060a" stroke-dasharray="0.8594685069494494,19.76777565983734" stroke-dashoffset="20.627244"/></g><g fill="#ffffff" stroke-miterlimit="10"><path d="M156 .75c-2.983 0-5.846 1.186-7.955 3.295S144.75 9.017 144.75 12c0 2.983 1.186 5.846 3.295 7.955s4.972 3.295 7.955 3.295c2.983 0 5.846-1.186 7.955-3.295s3.295-4.972 3.295-7.955c0-2.983-1.186-5.846-3.295-7.955S158.983.75 156 .75z" stroke="#000000" stroke-dasharray="0,70.68533917557349" stroke-dashoffset="70.685339"/><path d="M149.2 11.6l5.27 5.27 9.84-8.76" stroke="#05070c" stroke-dasharray="1.0313622083393394,19.595881958447446" stroke-dashoffset="20.627244"/></g><g fill="#ffffff" stroke-miterlimit="10"><path d="M180 .75c-2.983 0-5.846 1.186-7.955 3.295S168.75 9.017 168.75 12c0 2.983 1.186 5.846 3.295 7.955s4.972 3.295 7.955 3.295c2.983 0 5.846-1.186 7.955-3.295s3.295-4.972 3.295-7.955c0-2.983-1.186-5.846-3.295-7.955S182.983.75 180 .75z" stroke="#000000" stroke-dasharray="0,70.68533917557349" stroke-dashoffset="70.685339"/><path d="M173.2 11.6l5.27 5.27 9.84-8.76" stroke="#06090e" stroke-dasharray="1.2032559097292292,19.42398825705756" stroke-dashoffset="20.627244"/></g><g fill="#ffffff" stroke-miterlimit="10"><path d="M204 .75c-2.983 0-5.846 1.186-7.955 3.295S192.75 9.017 192.75 12c0 2.983 1.186 5.846 3.295 7.955s4.972 3.295 7.955 3.295c2.983 0 5.846-1.186 7.955-3.295s3.295-4.972 3.295-7.955c0-2.983-1.186-5.846-3.295-7.955S206.983.75 204 .75z" stroke="#000000" stroke-dasharray="0,70.68533917557349" stroke-dashoffset="70.685339"/><path d="M197.2 11.6l5.27 5.27 9.84-8.76" stroke="#070a10" stroke-dasharray="1.3751496111191193,19.252094555667668" stroke-dashoffset="20.627244"/></g><g fill="#ffffff" stroke-miterlimit="10"><path d="M228 .75c-2.983 0-5.846 1.186-7.955 3.295S216.75 9.017 216.75 12c0 2.983 1.186 5.846 3.295 7.955s4.972 3.295 7.955 3.295c2.983 0 5.846-1.186 7.955-3.295s3.295-4.972 3.295-7.955c0-2.983-1.186-5.846-3.295-7.955S230.983.75 228 .75z" stroke="#000000" stroke-dasharray="0,70.68533917557349" stroke-dashoffset="70.685339"/><path d="M221.2 11.6l5.27 5.27 9.84-8.76" stroke="#080b12" stroke-dasharray="1.547043312509009,19.08020085427778" stroke-dashoffset="20.627244"/></g><g fill="#ffffff" stroke-miterlimit="10"><path d="M252 .75c-2.983 0-5.846 1.186-7.955 3.295S240.75 9.017 240.75 12c0 2.983 1.186 5.846 3.295 7.955s4.972 3.295 7.955 3.295c2.983 0 5.846-1.186 7.955-3.295s3.295-4.972 3.295-7.955c0-2.983-1.186-5.846-3.295-7.955S254.983.75 252 .75z" stroke="#000000" stroke-dasharray="0,70.68533917557349" stroke-dashoffset="70.685339"/><path d="M245.2 11.6l5.27 5.27 9.84-8.76" stroke="#080c14" stroke-dasharray="1.7189370138988989,18.90830715288789" stroke-dashoffset="20.627244"/></g><g fill="#ffffff" stroke-miterlimit="10"><path d="M276 .75c-2.983 0-5.846 1.186-7.955 3.295S264.75 9.017 264.75 12c0 2.983 1.186 5.846 3.295 7.955s4.972 3.295 7.955 3.295c2.983 0 5.846-1.186 7.955-3.295s3.295-4.972 3.295-7.955c0-2.983-1.186-5.846-3.295-7.955S278.983.75 276 .75z" stroke="#000000" stroke-dasharray="0,70.68533917557349" stroke-dashoffset="70.685339"/><path d="M269.2 11.6l5.27 5.27 9.84-8.76" stroke="#090e16" stroke-dasharray="1.8908307152887889,18.736413451498" stroke-dashoffset="20.627244"/></g><g fill="#ffffff" stroke-miterlimit="10"><path d="M300 .75c-2.983 0-5.846 1.186-7.955 3.295S288.75 9.017 288.75 12c0 2.983 1.186 5.846 3.295 7.955s4.972 3.295 7.955 3.295c2.983 0 5.846-1.186 7.955-3.295s3.295-4.972 3.295-7.955c0-2.983-1.186-5.846-3.295-7.955S302.983.75 300 .75z" stroke="#000000" stroke-dasharray="0,70.68533917557349" stroke-dashoffset="70.685339"/><path d="M293.2 11.6l5.27 5.27 9.84-8.76" stroke="#0a0f18" stroke-dasharray="2.062724416678679,18.56451975010811" stroke-dashoffset="20.627244"/></g><g fill="#ffffff" stroke-miterlimit="10"><path d="M324 .75c-2.983 0-5.846 1.186-7.955 3.295S312.75 9.017 312.75 12c0 2.983 1.186 5.846 3.295 7.955s4.972 3.295 7.955 3.295c2.983 0 5.846-1.186 7.955-3.295s3.295-4.972 3.295-7.955c0-2.983-1.186-5.846-3.295-7.955S326.983.75 324 .75z" stroke="#000000" stroke-dasharray="0,70.68533917557349" stroke-dashoffset="70.685339"/><path d="M317.2 11.6l5.27 5.27 9.84-8.76" stroke="#0b101a" stroke-dasharray="2.2346181180685685,18.39262604871822" stroke-dashoffset="20.627244"/></g><g fill="#ffffff" stroke-miterlimit="10"><path d="M348 .75c-2.983 0-5.846 1.186-7.955 3.295S336.75 9.017 336.75 12c0 2.983 1.186 5.846 3.295 7.955s4.972 3.295 7.955 3.295c2.983 0 5.846-1.186 7.955-3.295s3.295-4.972 3.295-7.955c0-2.983-1.186-5.846-3.295-7.955S350.983.75 348 .75z" stroke="#000000" stroke-dasharray="0,70.68533917557349" stroke-dashoffset="70.685339"/><path d="M341.2 11.6l5.27 5.27 9.84-8.76" stroke="#0c111c" stroke-dasharray="2.4065118194584585,18.22073234732833" stroke-dashoffset="20.627244"/></g><g fill="#ffffff" stroke-miterlimit="10"><path d="M372 .75c-2.983 0-5.846 1.186-7.955 3.295S360.75 9.017 360.75 12c0 2.983 1.186 5.846 3.295 7.955s4.972 3.295 7.955 3.295c2.983 0 5.846-1.186 7.955-3.295s3.295-4.972 3.295-7.955c0-2.983-1.186-5.846-3.295-7.955S374.983.75 372 .75z" stroke="#000000" stroke-dasharray="0,70.68533917557349" stroke-dashoffset="70.685339"/><path d="M365.2 11.6l5.27 5.27 9.84-8.76" stroke="#0d131e" stroke-dasharray="2.5784055208483485,18.04883864593844" stroke-dashoffset="20.627244"/></g><g fill="#ffffff" stroke-miterlimit="10"><path d="M396 .75c-2.983 0-5.846 1.186-7.955 3.295S384.75 9.017 384.75 12c0 2.983 1.186 5.846 3.295 7.955s4.972 3.295 7.955 3.295c2.983 0 5.846-1.186 7.955-3.295s3.295-4.972 3.295-7.955c0-2.983-1.186-5.846-3.295-7.955S398.983.75 396 .75z" stroke="#000000" stroke-dasharray="0,70.68533917557349" stroke-dashoffset="70.685339"/><path d="M389.2 11.6l5.27 5.27 9.84-8.76" stroke="#0d1420" stroke-dasharray="2.7502992222382385,17.87694494454855" stroke-dashoffset="20.627244"/></g><g fill="#ffffff" stroke-miterlimit="10"><path d="M420 .75c-2.983 0-5.846 1.186-7.955 3.295S408.75 9.017 408.75 12c0 2.983 1.186 5.846 3.295 7.955s4.972 3.295 7.955 3.295c2.983 0 5.846-1.186 7.955-3.295s3.295-4.972 3.295-7.955c0-2.983-1.186-5.846-3.295-7.955S422.983.75 420 .75z" stroke="#000000" stroke-dasharray="0,70.68533917557349" stroke-dashoffset="70.685339"/><path d="M413.2 11.6l5.27 5.27 9.84-8.76" stroke="#0e1522" stroke-dasharray="2.922192923628128,17.70505124315866" stroke-dashoffset="20.627244"/></g><g fill="#ffffff" stroke-miterlimit="10"><path d="M444 .75c-2.983 0-5.846 1.186-7.955 3.295S432.75 9.017 432.75 12c0 2.983 1.186 5.846 3.295 7.955s4.972 3.295 7.955 3.295c2.983 0 5.846-1.186 7.955-3.295s3.295-4.972 3.295-7.955c0-2.983-1.186-5.846-3.295-7.955S446.983.75 444 .75z" stroke="#000000" stroke-dasharray="0,70.68533917557349" stroke-dashoffset="70.685339"/><path d="M437.2 11.6l5.27 5.27 9.84-8.76" stroke="#0f1624" stroke-dasharray="3.094086625018018,17.53315754176877" stroke-dashoffset="20.627244"/></g><g fill="#ffffff" stroke-miterlimit="10"><path d="M468 .75c-2.983 0-5.846 1.186-7.955 3.295S456.75 9.017 456.75 12c0 2.983 1.186 5.846 3.295 7.955s4.972 3.295 7.955 3.295c2.983 0 5.846-1.186 7.955-3.295s3.295-4.972 3.295-7.955c0-2.983-1.186-5.846-3.295-7.955S470.983.75 468 .75z" stroke="#000000" stroke-dasharray="0,70.68533917557349" stroke-dashoffset="70.685339"/><path d="M461.2 11.6l5.27 5.27 9.84-8.76" stroke="#101826" stroke-dasharray="3.2659803264079086,17.36126384037888" stroke-dashoffset="20.627244"/></g><g fill="#ffffff" stroke-miterlimit="10"><path d="M492 .75c-2.983 0-5.846 1.186-7.955 3.295S480.75 9.017 480.75 12c0 2.983 1.186 5.846 3.295 7.955s4.972 3.295 7.955 3.295c2.983 0 5.846-1.186 7.955-3.295s3.295-4.972 3.295-7.955c0-2.983-1.186-5.846-3.295-7.955S494.983.75 492 .75z" stroke="#000000" stroke-dasharray="0,70.68533917557349" stroke-dashoffset="70.685339"/><path d="M485.2 11.6l5.27 5.27 9.84-8.76" stroke="#111928" stroke-dasharray="3.4378740277977977,17.18937013898899" stroke-dashoffset="20.627244"/></g><g fill="#ffffff" stroke-miterlimit="10"><path d="M516 .75c-2.983 0-5.846 1.186-7.955 3.295S504.75 9.017 504.75 12c0 2.983 1.186 5.846 3.295 7.955s4.972 3.295 7.955 3.295c2.983 0 5.846-1.186 7.955-3.295s3.295-4.972 3.295-7.955c0-2.983-1.186-5.846-3.295-7.955S518.983.75 516 .75z" stroke="#000000" stroke-dasharray="0,70.68533917557349" stroke-dashoffset="70.685339"/><path d="M509.2 11.6l5.27 5.27 9.84-8.76" stroke="#121a29" stroke-dasharray="3.6097677291876877,17.0174764375991" stroke-dashoffset="20.627244"/></g><g fill="#ffffff" stroke-miterlimit="10"><path d="M540 .75c-2.983 0-5.846 1.186-7.955 3.295S528.75 9.017 528.75 12c0 2.983 1.186 5.846 3.295 7.955s4.972 3.295 7.955 3.295c2.983 0 5.846-1.186 7.955-3.295s3.295-4.972 3.295-7.955c0-2.983-1.186-5.846-3.295-7.955S542.983.75 540 .75z" stroke="#000000" stroke-dasharray="0,70.68533917557349" stroke-dashoffset="70.685339"/><path d="M533.2 11.6l5.27 5.27 9.84-8.76" stroke="#121b2b" stroke-dasharray="3.7816614305775778,16.84558273620921" stroke-dashoffset="20.627244"/></g><g fill="#ffffff" stroke-miterlimit="10"><path d="M564 .75c-2.983 0-5.846 1.186-7.955 3.295S552.75 9.017 552.75 12c0 2.983 1.186 5.846 3.295 7.955s4.972 3.295 7.955 3.295c2.983 0 5.846-1.186 7.955-3.295s3.295-4.972 3.295-7.955c0-2.983-1.186-5.846-3.295-7.955S566.983.75 564 .75z" stroke="#000000" stroke-dasharray="0,70.68533917557349" stroke-dashoffset="70.685339"/><path d="M557.2 11.6l5.27 5.27 9.84-8.76" stroke="#131d2d" stroke-dasharray="3.9535551319674673,16.673689034819322" stroke-dashoffset="20.627244"/></g><g fill="#ffffff" stroke-miterlimit="10"><path d="M588 .75c-2.983 0-5.846 1.186-7.955 3.295S576.75 9.017 576.75 12c0 2.983 1.186 5.846 3.295 7.955s4.972 3.295 7.955 3.295c2.983 0 5.846-1.186 7.955-3.295s3.295-4.972 3.295-7.955c0-2.983-1.186-5.846-3.295-7.955S590.983.75 588 .75z" stroke="#000000" stroke-dasharray="0,70.68533917557349" stroke-dashoffset="70.685339"/><path d="M581.2 11.6l5.27 5.27 9.84-8.76" stroke="#141e2f" stroke-dasharray="4.125448833357358,16.50179533342943" stroke-dashoffset="20.627244"/></g><g fill="#ffffff" stroke-miterlimit="10"><path d="M612 .75c-2.983 0-5.846 1.186-7.955 3.295S600.75 9.017 600.75 12c0 2.983 1.186 5.846 3.295 7.955s4.972 3.295 7.955 3.295c2.983 0 5.846-1.186 7.955-3.295s3.295-4.972 3.295-7.955c0-2.983-1.186-5.846-3.295-7.955S614.983.75 612 .75z" stroke="#000000" stroke-dasharray="0,70.68533917557349" stroke-dashoffset="70.685339"/><path d="M605.2 11.6l5.27 5.27 9.84-8.76" stroke="#151f31" stroke-dasharray="4.297342534747248,16.32990163203954" stroke-dashoffset="20.627244"/></g><g fill="#ffffff" stroke-miterlimit="10"><path d="M636 .75c-2.983 0-5.846 1.186-7.955 3.295S624.75 9.017 624.75 12c0 2.983 1.186 5.846 3.295 7.955s4.972 3.295 7.955 3.295c2.983 0 5.846-1.186 7.955-3.295s3.295-4.972 3.295-7.955c0-2.983-1.186-5.846-3.295-7.955S638.983.75 636 .75z" stroke="#000000" stroke-dasharray="0,70.68533917557349" stroke-dashoffset="70.685339"/><path d="M629.2 11.6l5.27 5.27 9.84-8.76" stroke="#162033" stroke-dasharray="4.469236236137137,16.15800793064965" stroke-dashoffset="20.627244"/></g><g fill="#ffffff" stroke-miterlimit="10"><path d="M660 .75c-2.983 0-5.846 1.186-7.955 3.295S648.75 9.017 648.75 12c0 2.983 1.186 5.846 3.295 7.955s4.972 3.295 7.955 3.295c2.983 0 5.846-1.186 7.955-3.295s3.295-4.972 3.295-7.955c0-2.983-1.186-5.846-3.295-7.955S662.983.75 660 .75z" stroke="#000000" stroke-dasharray="0,70.68533917557349" stroke-dashoffset="70.685339"/><path d="M653.2 11.6l5.27 5.27 9.84-8.76" stroke="#172235" stroke-dasharray="4.641129937527028,15.986114229259762" stroke-dashoffset="20.627244"/></g><g fill="#ffffff" stroke-miterlimit="10"><path d="M684 .75c-2.983 0-5.846 1.186-7.955 3.295S672.75 9.017 672.75 12c0 2.983 1.186 5.846 3.295 7.955s4.972 3.295 7.955 3.295c2.983 0 5.846-1.186 7.955-3.295s3.295-4.972 3.295-7.955c0-2.983-1.186-5.846-3.295-7.955S686.983.75 684 .75z" stroke="#000000" stroke-dasharray="0,70.68533917557349" stroke-dashoffset="70.685339"/><path d="M677.2 11.6l5.27 5.27 9.84-8.76" stroke="#172337" stroke-dasharray="4.813023638916917,15.81422052786987" stroke-dashoffset="20.627244"/></g><g fill="#ffffff" stroke-miterlimit="10"><path d="M708 .75c-2.983 0-5.846 1.186-7.955 3.295S696.75 9.017 696.75 12c0 2.983 1.186 5.846 3.295 7.955s4.972 3.295 7.955 3.295c2.983 0 5.846-1.186 7.955-3.295s3.295-4.972 3.295-7.955c0-2.983-1.186-5.846-3.295-7.955S710.983.75 708 .75z" stroke="#000000" stroke-dasharray="0,70.68533917557349" stroke-dashoffset="70.685339"/><path d="M701.2 11.6l5.27 5.27 9.84-8.76" stroke="#182439" stroke-dasharray="4.984917340306808,15.64232682647998" stroke-dashoffset="20.627244"/></g><g fill="#ffffff" stroke-miterlimit="10"><path d="M732 .75c-2.983 0-5.846 1.186-7.955 3.295S720.75 9.017 720.75 12c0 2.983 1.186 5.846 3.295 7.955s4.972 3.295 7.955 3.295c2.983 0 5.846-1.186 7.955-3.295s3.295-4.972 3.295-7.955c0-2.983-1.186-5.846-3.295-7.955S734.983.75 732 .75z" stroke="#000000" stroke-dasharray="0,70.68533917557349" stroke-dashoffset="70.685339"/><path d="M725.2 11.6l5.27 5.27 9.84-8.76" stroke="#19253b" stroke-dasharray="5.156811041696697,15.470433125090091" stroke-dashoffset="20.627244"/></g><g fill="#ffffff" stroke-miterlimit="10"><path d="M756 .75c-2.983 0-5.846 1.186-7.955 3.295S744.75 9.017 744.75 12c0 2.983 1.186 5.846 3.295 7.955s4.972 3.295 7.955 3.295c2.983 0 5.846-1.186 7.955-3.295s3.295-4.972 3.295-7.955c0-2.983-1.186-5.846-3.295-7.955S758.983.75 756 .75z" stroke="#000000" stroke-dasharray="0,70.68533917557349" stroke-dashoffset="70.685339"/><path d="M749.2 11.6l5.27 5.27 9.84-8.76" stroke="#1a263d" stroke-dasharray="5.328704743086586,15.298539423700202" stroke-dashoffset="20.627244"/></g><g fill="#ffffff" stroke-miterlimit="10"><path d="M780 .75c-2.983 0-5.846 1.186-7.955 3.295S768.75 9.017 768.75 12c0 2.983 1.186 5.846 3.295 7.955s4.972 3.295 7.955 3.295c2.983 0 5.846-1.186 7.955-3.295s3.295-4.972 3.295-7.955c0-2.983-1.186-5.846-3.295-7.955S782.983.75 780 .75z" stroke="#000000" stroke-dasharray="0,70.68533917557349" stroke-dashoffset="70.685339"/><path d="M773.2 11.6l5.27 5.27 9.84-8.76" stroke="#1b283f" stroke-dasharray="5.500598444476477,15.126645722310313" stroke-dashoffset="20.627244"/></g><g fill="#ffffff" stroke-miterlimit="10"><path d="M804 .75c-2.983 0-5.846 1.186-7.955 3.295S792.75 9.017 792.75 12c0 2.983 1.186 5.846 3.295 7.955s4.972 3.295 7.955 3.295c2.983 0 5.846-1.186 7.955-3.295s3.295-4.972 3.295-7.955c0-2.983-1.186-5.846-3.295-7.955S806.983.75 804 .75z" stroke="#000000" stroke-dasharray="0,70.68533917557349" stroke-dashoffset="70.685339"/><path d="M797.2 11.6l5.27 5.27 9.84-8.76" stroke="#1c2941" stroke-dasharray="5.672492145866367,14.95475202092042" stroke-dashoffset="20.627244"/></g><g fill="#ffffff" stroke-miterlimit="10"><path d="M828 .75c-2.983 0-5.846 1.186-7.955 3.295S816.75 9.017 816.75 12c0 2.983 1.186 5.846 3.295 7.955s4.972 3.295 7.955 3.295c2.983 0 5.846-1.186 7.955-3.295s3.295-4.972 3.295-7.955c0-2.983-1.186-5.846-3.295-7.955S830.983.75 828 .75z" stroke="#000000" stroke-dasharray="0,70.68533917557349" stroke-dashoffset="70.685339"/><path d="M821.2 11.6l5.27 5.27 9.84-8.76" stroke="#1c2a43" stroke-dasharray="5.844385847256256,14.782858319530531" stroke-dashoffset="20.627244"/></g><g fill="#ffffff" stroke-miterlimit="10"><path d="M852 .75c-2.983 0-5.846 1.186-7.955 3.295S840.75 9.017 840.75 12c0 2.983 1.186 5.846 3.295 7.955s4.972 3.295 7.955 3.295c2.983 0 5.846-1.186 7.955-3.295s3.295-4.972 3.295-7.955c0-2.983-1.186-5.846-3.295-7.955S854.983.75 852 .75z" stroke="#000000" stroke-dasharray="0,70.68533917557349" stroke-dashoffset="70.685339"/><path d="M845.2 11.6l5.27 5.27 9.84-8.76" stroke="#1d2b45" stroke-dasharray="6.016279548646147,14.61096461814064" stroke-dashoffset="20.627244"/></g><g fill="#ffffff" stroke-miterlimit="10"><path d="M876 .75c-2.983 0-5.846 1.186-7.955 3.295S864.75 9.017 864.75 12c0 2.983 1.186 5.846 3.295 7.955s4.972 3.295 7.955 3.295c2.983 0 5.846-1.186 7.955-3.295s3.295-4.972 3.295-7.955c0-2.983-1.186-5.846-3.295-7.955S878.983.75 876 .75z" stroke="#000000" stroke-dasharray="0,70.68533917557349" stroke-dashoffset="70.685339"/><path d="M869.2 11.6l5.27 5.27 9.84-8.76" stroke="#1e2d47" stroke-dasharray="6.188173250036036,14.439070916750751" stroke-dashoffset="20.627244"/></g><g fill="#ffffff" stroke-miterlimit="10"><path d="M900 .75c-2.983 0-5.846 1.186-7.955 3.295S888.75 9.017 888.75 12c0 2.983 1.186 5.846 3.295 7.955s4.972 3.295 7.955 3.295c2.983 0 5.846-1.186 7.955-3.295s3.295-4.972 3.295-7.955c0-2.983-1.186-5.846-3.295-7.955S902.983.75 900 .75z" stroke="#000000" stroke-dasharray="0,70.68533917557349" stroke-dashoffset="70.685339"/><path d="M893.2 11.6l5.27 5.27 9.84-8.76" stroke="#1f2e49" stroke-dasharray="6.360066951425925,14.267177215360862" stroke-dashoffset="20.627244"/></g><g fill="#ffffff" stroke-miterlimit="10"><path d="M924 .75c-2.983 0-5.846 1.186-7.955 3.295S912.75 9.017 912.75 12c0 2.983 1.186 5.846 3.295 7.955s4.972 3.295 7.955 3.295c2.983 0 5.846-1.186 7.955-3.295s3.295-4.972 3.295-7.955c0-2.983-1.186-5.846-3.295-7.955S926.983.75 924 .75z" stroke="#000000" stroke-dasharray="0,70.68533917557349" stroke-dashoffset="70.685339"/><path d="M917.2 11.6l5.27 5.27 9.84-8.76" stroke="#202f4b" stroke-dasharray="6.531960652815817,14.095283513970973" stroke-dashoffset="20.627244"/></g><g fill="#ffffff" stroke-miterlimit="10"><path d="M948 .75c-2.983 0-5.846 1.186-7.955 3.295S936.75 9.017 936.75 12c0 2.983 1.186 5.846 3.295 7.955s4.972 3.295 7.955 3.295c2.983 0 5.846-1.186 7.955-3.295s3.295-4.972 3.295-7.955c0-2.983-1.186-5.846-3.295-7.955S950.983.75 948 .75z" stroke="#000000" stroke-dasharray="0,70.68533917557349" stroke-dashoffset="70.685339"/><path d="M941.2 11.6l5.27 5.27 9.84-8.76" stroke="#21304d" stroke-dasharray="6.703854354205706,13.923389812581084" stroke-dashoffset="20.627244"/></g><g fill="#ffffff" stroke-miterlimit="10"><path d="M972 .75c-2.983 0-5.846 1.186-7.955 3.295S960.75 9.017 960.75 12c0 2.983 1.186 5.846 3.295 7.955s4.972 3.295 7.955 3.295c2.983 0 5.846-1.186 7.955-3.295s3.295-4.972 3.295-7.955c0-2.983-1.186-5.846-3.295-7.955S974.983.75 972 .75z" stroke="#000000" stroke-dasharray="0,70.68533917557349" stroke-dashoffset="70.685339"/><path d="M965.2 11.6l5.27 5.27 9.84-8.76" stroke="#21324f" stroke-dasharray="6.875748055595595,13.751496111191194" stroke-dashoffset="20.627244"/></g><g fill="#ffffff" stroke-miterlimit="10"><path d="M996 .75c-2.983 0-5.846 1.186-7.955 3.295S984.75 9.017 984.75 12c0 2.983 1.186 5.846 3.295 7.955s4.972 3.295 7.955 3.295c2.983 0 5.846-1.186 7.955-3.295s3.295-4.972 3.295-7.955c0-2.983-1.186-5.846-3.295-7.955S998.983.75 996 .75z" stroke="#000000" stroke-dasharray="0,70.68533917557349" stroke-dashoffset="70.685339"/><path d="M989.2 11.6l5.27 5.27 9.84-8.76" stroke="#223351" stroke-dasharray="7.047641756985486,13.579602409801302" stroke-dashoffset="20.627244"/></g><g fill="#ffffff" stroke-miterlimit="10"><path d="M1020 .75c-2.983 0-5.846 1.186-7.955 3.295s-3.295 4.972-3.295 7.955c0 2.983 1.186 5.846 3.295 7.955s4.972 3.295 7.955 3.295c2.983 0 5.846-1.186 7.955-3.295s3.295-4.972 3.295-7.955c0-2.983-1.186-5.846-3.295-7.955S1022.983.75 1020 .75z" stroke="#000000" stroke-dasharray="0,70.68533917557349" stroke-dashoffset="70.685339"/><path d="M1013.2 11.6l5.27 5.27 9.84-8.76" stroke="#233453" stroke-dasharray="7.2195354583753755,13.407708708411413" stroke-dashoffset="20.627244"/></g><g fill="#ffffff" stroke-miterlimit="10"><path d="M1044 .75c-2.983 0-5.846 1.186-7.955 3.295s-3.295 4.972-3.295 7.955c0 2.983 1.186 5.846 3.295 7.955s4.972 3.295 7.955 3.295c2.983 0 5.846-1.186 7.955-3.295s3.295-4.972 3.295-7.955c0-2.983-1.186-5.846-3.295-7.955S1046.983.75 1044 .75z" stroke="#000000" stroke-dasharray="0,70.68533917557349" stroke-dashoffset="70.685339"/><path d="M1037.2 11.6l5.27 5.27 9.84-8.76" stroke="#243555" stroke-dasharray="7.391429159765267,13.235815007021522" stroke-dashoffset="20.627244"/></g><g fill="#ffffff" stroke-miterlimit="10"><path d="M1068 .75c-2.983 0-5.846 1.186-7.955 3.295s-3.295 4.972-3.295 7.955c0 2.983 1.186 5.846 3.295 7.955s4.972 3.295 7.955 3.295c2.983 0 5.846-1.186 7.955-3.295s3.295-4.972 3.295-7.955c0-2.983-1.186-5.846-3.295-7.955S1070.983.75 1068 .75z" stroke="#000000" stroke-dasharray="0,70.68533917557349" stroke-dashoffset="70.685339"/><path d="M1061.2 11.6l5.27 5.27 9.84-8.76" stroke="#253757" stroke-dasharray="7.5633228611551555,13.063921305631633" stroke-dashoffset="20.627244"/></g><g fill="#ffffff" stroke-miterlimit="10"><path d="M1092 .75c-2.983 0-5.846 1.186-7.955 3.295s-3.295 4.972-3.295 7.955c0 2.983 1.186 5.846 3.295 7.955s4.972 3.295 7.955 3.295c2.983 0 5.846-1.186 7.955-3.295s3.295-4.972 3.295-7.955c0-2.983-1.186-5.846-3.295-7.955S1094.983.75 1092 .75z" stroke="#000000" stroke-dasharray="0,70.68533917557349" stroke-dashoffset="70.685339"/><path d="M1085.2 11.6l5.27 5.27 9.84-8.76" stroke="#263859" stroke-dasharray="7.7352165625450455,12.892027604241743" stroke-dashoffset="20.627244"/></g><g fill="#ffffff" stroke-miterlimit="10"><path d="M1116 .75c-2.983 0-5.846 1.186-7.955 3.295s-3.295 4.972-3.295 7.955c0 2.983 1.186 5.846 3.295 7.955s4.972 3.295 7.955 3.295c2.983 0 5.846-1.186 7.955-3.295s3.295-4.972 3.295-7.955c0-2.983-1.186-5.846-3.295-7.955S1118.983.75 1116 .75z" stroke="#000000" stroke-dasharray="0,70.68533917557349" stroke-dashoffset="70.685339"/><path d="M1109.2 11.6l5.27 5.27 9.84-8.76" stroke="#26395b" stroke-dasharray="7.907110263934935,12.720133902851853" stroke-dashoffset="20.627244"/></g><g fill="#ffffff" stroke-miterlimit="10"><path d="M1140 .75c-2.983 0-5.846 1.186-7.955 3.295s-3.295 4.972-3.295 7.955c0 2.983 1.186 5.846 3.295 7.955s4.972 3.295 7.955 3.295c2.983 0 5.846-1.186 7.955-3.295s3.295-4.972 3.295-7.955c0-2.983-1.186-5.846-3.295-7.955S1142.983.75 1140 .75z" stroke="#000000" stroke-dasharray="0,70.68533917557349" stroke-dashoffset="70.685339"/><path d="M1133.2 11.6l5.27 5.27 9.84-8.76" stroke="#273a5d" stroke-dasharray="8.079003965324825,12.548240201461963" stroke-dashoffset="20.627244"/></g><g fill="#ffffff" stroke-miterlimit="10"><path d="M1164 .75c-2.983 0-5.846 1.186-7.955 3.295s-3.295 4.972-3.295 7.955c0 2.983 1.186 5.846 3.295 7.955s4.972 3.295 7.955 3.295c2.983 0 5.846-1.186 7.955-3.295s3.295-4.972 3.295-7.955c0-2.983-1.186-5.846-3.295-7.955S1166.983.75 1164 .75z" stroke="#000000" stroke-dasharray="0,70.68533917557349" stroke-dashoffset="70.685339"/><path d="M1157.2 11.6l5.27 5.27 9.84-8.76" stroke="#283c5f" stroke-dasharray="8.250897666714716,12.376346500072072" stroke-dashoffset="20.627244"/></g><g fill="#ffffff" stroke-miterlimit="10"><path d="M1188 .75c-2.983 0-5.846 1.186-7.955 3.295s-3.295 4.972-3.295 7.955c0 2.983 1.186 5.846 3.295 7.955s4.972 3.295 7.955 3.295c2.983 0 5.846-1.186 7.955-3.295s3.295-4.972 3.295-7.955c0-2.983-1.186-5.846-3.295-7.955S1190.983.75 1188 .75z" stroke="#000000" stroke-dasharray="0,70.68533917557349" stroke-dashoffset="70.685339"/><path d="M1181.2 11.6l5.27 5.27 9.84-8.76" stroke="#293d61" stroke-dasharray="8.422791368104605,12.204452798682183" stroke-dashoffset="20.627244"/></g><g fill="#ffffff" stroke-miterlimit="10"><path d="M1212 .75c-2.983 0-5.846 1.186-7.955 3.295s-3.295 4.972-3.295 7.955c0 2.983 1.186 5.846 3.295 7.955s4.972 3.295 7.955 3.295c2.983 0 5.846-1.186 7.955-3.295s3.295-4.972 3.295-7.955c0-2.983-1.186-5.846-3.295-7.955S1214.983.75 1212 .75z" stroke="#000000" stroke-dasharray="0,70.68533917557349" stroke-dashoffset="70.685339"/><path d="M1205.2 11.6l5.27 5.27 9.84-8.76" stroke="#2a3e63" stroke-dasharray="8.594685069494496,12.03255909729229" stroke-dashoffset="20.627244"/></g><g fill="#ffffff" stroke-miterlimit="10"><path d="M1236 .75c-2.983 0-5.846 1.186-7.955 3.295s-3.295 4.972-3.295 7.955c0 2.983 1.186 5.846 3.295 7.955s4.972 3.295 7.955 3.295c2.983 0 5.846-1.186 7.955-3.295s3.295-4.972 3.295-7.955c0-2.983-1.186-5.846-3.295-7.955S1238.983.75 1236 .75z" stroke="#000000" stroke-dasharray="0,70.68533917557349" stroke-dashoffset="70.685339"/><path d="M1229.2 11.6l5.27 5.27 9.84-8.76" stroke="#2b3f65" stroke-dasharray="8.766578770884385,11.860665395902402" stroke-dashoffset="20.627244"/></g><g fill="#ffffff" stroke-miterlimit="10"><path d="M1260 .75c-2.983 0-5.846 1.186-7.955 3.295s-3.295 4.972-3.295 7.955c0 2.983 1.186 5.846 3.295 7.955s4.972 3.295 7.955 3.295c2.983 0 5.846-1.186 7.955-3.295s3.295-4.972 3.295-7.955c0-2.983-1.186-5.846-3.295-7.955S1262.983.75 1260 .75z" stroke="#000000" stroke-dasharray="0,70.68533917557349" stroke-dashoffset="70.685339"/><path d="M1253.2 11.6l5.27 5.27 9.84-8.76" stroke="#2b4167" stroke-dasharray="8.938472472274274,11.688771694512512" stroke-dashoffset="20.627244"/></g><g fill="#ffffff" stroke-miterlimit="10"><path d="M1284 .75c-2.983 0-5.846 1.186-7.955 3.295s-3.295 4.972-3.295 7.955c0 2.983 1.186 5.846 3.295 7.955s4.972 3.295 7.955 3.295c2.983 0 5.846-1.186 7.955-3.295s3.295-4.972 3.295-7.955c0-2.983-1.186-5.846-3.295-7.955S1286.983.75 1284 .75z" stroke="#000000" stroke-dasharray="0,70.68533917557349" stroke-dashoffset="70.685339"/><path d="M1277.2 11.6l5.27 5.27 9.84-8.76" stroke="#2c4269" stroke-dasharray="9.110366173664165,11.516877993122623" stroke-dashoffset="20.627244"/></g><g fill="#ffffff" stroke-miterlimit="10"><path d="M1308 .75c-2.983 0-5.846 1.186-7.955 3.295s-3.295 4.972-3.295 7.955c0 2.983 1.186 5.846 3.295 7.955s4.972 3.295 7.955 3.295c2.983 0 5.846-1.186 7.955-3.295s3.295-4.972 3.295-7.955c0-2.983-1.186-5.846-3.295-7.955S1310.983.75 1308 .75z" stroke="#000000" stroke-dasharray="0,70.68533917557349" stroke-dashoffset="70.685339"/><path d="M1301.2 11.6l5.27 5.27 9.84-8.76" stroke="#2d436b" stroke-dasharray="9.282259875054056,11.344984291732734" stroke-dashoffset="20.627244"/></g><g fill="#ffffff" stroke-miterlimit="10"><path d="M1332 .75c-2.983 0-5.846 1.186-7.955 3.295s-3.295 4.972-3.295 7.955c0 2.983 1.186 5.846 3.295 7.955s4.972 3.295 7.955 3.295c2.983 0 5.846-1.186 7.955-3.295s3.295-4.972 3.295-7.955c0-2.983-1.186-5.846-3.295-7.955S1334.983.75 1332 .75z" stroke="#000000" stroke-dasharray="0,70.68533917557349" stroke-dashoffset="70.685339"/><path d="M1325.2 11.6l5.27 5.27 9.84-8.76" stroke="#2e446d" stroke-dasharray="9.454153576443945,11.173090590342843" stroke-dashoffset="20.627244"/></g><g fill="#ffffff" stroke-miterlimit="10"><path d="M1356 .75c-2.983 0-5.846 1.186-7.955 3.295s-3.295 4.972-3.295 7.955c0 2.983 1.186 5.846 3.295 7.955s4.972 3.295 7.955 3.295c2.983 0 5.846-1.186 7.955-3.295s3.295-4.972 3.295-7.955c0-2.983-1.186-5.846-3.295-7.955S1358.983.75 1356 .75z" stroke="#000000" stroke-dasharray="0,70.68533917557349" stroke-dashoffset="70.685339"/><path d="M1349.2 11.6l5.27 5.27 9.84-8.76" stroke="#2f466f" stroke-dasharray="9.626047277833834,11.001196888952954" stroke-dashoffset="20.627244"/></g><g fill="#ffffff" stroke-miterlimit="10"><path d="M1380 .75c-2.983 0-5.846 1.186-7.955 3.295s-3.295 4.972-3.295 7.955c0 2.983 1.186 5.846 3.295 7.955s4.972 3.295 7.955 3.295c2.983 0 5.846-1.186 7.955-3.295s3.295-4.972 3.295-7.955c0-2.983-1.186-5.846-3.295-7.955S1382.983.75 1380 .75z" stroke="#000000" stroke-dasharray="0,70.68533917557349" stroke-dashoffset="70.685339"/><path d="M1373.2 11.6l5.27 5.27 9.84-8.76" stroke="#304771" stroke-dasharray="9.797940979223723,10.829303187563065" stroke-dashoffset="20.627244"/></g><g fill="#ffffff" stroke-miterlimit="10"><path d="M1404 .75c-2.983 0-5.846 1.186-7.955 3.295s-3.295 4.972-3.295 7.955c0 2.983 1.186 5.846 3.295 7.955s4.972 3.295 7.955 3.295c2.983 0 5.846-1.186 7.955-3.295s3.295-4.972 3.295-7.955c0-2.983-1.186-5.846-3.295-7.955S1406.983.75 1404 .75z" stroke="#000000" stroke-dasharray="0,70.68533917557349" stroke-dashoffset="70.685339"/><path d="M1397.2 11.6l5.27 5.27 9.84-8.76" stroke="#304873" stroke-dasharray="9.969834680613616,10.657409486173172" stroke-dashoffset="20.627244"/></g><g fill="#ffffff" stroke-miterlimit="10"><path d="M1428 .75c-2.983 0-5.846 1.186-7.955 3.295s-3.295 4.972-3.295 7.955c0 2.983 1.186 5.846 3.295 7.955s4.972 3.295 7.955 3.295c2.983 0 5.846-1.186 7.955-3.295s3.295-4.972 3.295-7.955c0-2.983-1.186-5.846-3.295-7.955S1430.983.75 1428 .75z" stroke="#000000" stroke-dasharray="0,70.68533917557349" stroke-dashoffset="70.685339"/><path d="M1421.2 11.6l5.27 5.27 9.84-8.76" stroke="#314975" stroke-dasharray="10.141728382003505,10.485515784783283" stroke-dashoffset="20.627244"/></g><g fill="#ffffff" stroke-miterlimit="10"><path d="M1452 .75c-2.983 0-5.846 1.186-7.955 3.295s-3.295 4.972-3.295 7.955c0 2.983 1.186 5.846 3.295 7.955s4.972 3.295 7.955 3.295c2.983 0 5.846-1.186 7.955-3.295s3.295-4.972 3.295-7.955c0-2.983-1.186-5.846-3.295-7.955S1454.983.75 1452 .75z" stroke="#000000" stroke-dasharray="0,70.68533917557349" stroke-dashoffset="70.685339"/><path d="M1445.2 11.6l5.27 5.27 9.84-8.76" stroke="#324b77" stroke-dasharray="10.313622083393394,10.313622083393394" stroke-dashoffset="20.627244"/></g><g fill="#ffffff" stroke-miterlimit="10"><path d="M1476 .75c-2.983 0-5.846 1.186-7.955 3.295s-3.295 4.972-3.295 7.955c0 2.983 1.186 5.846 3.295 7.955s4.972 3.295 7.955 3.295c2.983 0 5.846-1.186 7.955-3.295s3.295-4.972 3.295-7.955c0-2.983-1.186-5.846-3.295-7.955S1478.983.75 1476 .75z" stroke="#000000" stroke-dasharray="0,70.68533917557349" stroke-dashoffset="70.685339"/><path d="M1469.2 11.6l5.27 5.27 9.84-8.76" stroke="#334c78" stroke-dasharray="10.485515784783285,10.141728382003503" stroke-dashoffset="20.627244"/></g><g fill="#ffffff" stroke-miterlimit="10"><path d="M1500 .75c-2.983 0-5.846 1.186-7.955 3.295s-3.295 4.972-3.295 7.955c0 2.983 1.186 5.846 3.295 7.955s4.972 3.295 7.955 3.295c2.983 0 5.846-1.186 7.955-3.295s3.295-4.972 3.295-7.955c0-2.983-1.186-5.846-3.295-7.955S1502.983.75 1500 .75z" stroke="#000000" stroke-dasharray="0,70.68533917557349" stroke-dashoffset="70.685339"/><path d="M1493.2 11.6l5.27 5.27 9.84-8.76" stroke="#344d7a" stroke-dasharray="10.657409486173172,9.969834680613616" stroke-dashoffset="20.627244"/></g><g fill="#ffffff" stroke-miterlimit="10"><path d="M1524 .75c-2.983 0-5.846 1.186-7.955 3.295s-3.295 4.972-3.295 7.955c0 2.983 1.186 5.846 3.295 7.955s4.972 3.295 7.955 3.295c2.983 0 5.846-1.186 7.955-3.295s3.295-4.972 3.295-7.955c0-2.983-1.186-5.846-3.295-7.955S1526.983.75 1524 .75z" stroke="#000000" stroke-dasharray="0,70.68533917557349" stroke-dashoffset="70.685339"/><path d="M1517.2 11.6l5.27 5.27 9.84-8.76" stroke="#354e7c" stroke-dasharray="10.829303187563065,9.797940979223723" stroke-dashoffset="20.627244"/></g><g fill="#ffffff" stroke-miterlimit="10"><path d="M1548 .75c-2.983 0-5.846 1.186-7.955 3.295s-3.295 4.972-3.295 7.955c0 2.983 1.186 5.846 3.295 7.955s4.972 3.295 7.955 3.295c2.983 0 5.846-1.186 7.955-3.295s3.295-4.972 3.295-7.955c0-2.983-1.186-5.846-3.295-7.955S1550.983.75 1548 .75z" stroke="#000000" stroke-dasharray="0,70.68533917557349" stroke-dashoffset="70.685339"/><path d="M1541.2 11.6l5.27 5.27 9.84-8.76" stroke="#354f7e" stroke-dasharray="11.001196888952954,9.626047277833834" stroke-dashoffset="20.627244"/></g><g fill="#ffffff" stroke-miterlimit="10"><path d="M1572 .75c-2.983 0-5.846 1.186-7.955 3.295s-3.295 4.972-3.295 7.955c0 2.983 1.186 5.846 3.295 7.955s4.972 3.295 7.955 3.295c2.983 0 5.846-1.186 7.955-3.295s3.295-4.972 3.295-7.955c0-2.983-1.186-5.846-3.295-7.955S1574.983.75 1572 .75z" stroke="#000000" stroke-dasharray="0,70.68533917557349" stroke-dashoffset="70.685339"/><path d="M1565.2 11.6l5.27 5.27 9.84-8.76" stroke="#365180" stroke-dasharray="11.173090590342843,9.454153576443945" stroke-dashoffset="20.627244"/></g><g fill="#ffffff" stroke-miterlimit="10"><path d="M1596 .75c-2.983 0-5.846 1.186-7.955 3.295s-3.295 4.972-3.295 7.955c0 2.983 1.186 5.846 3.295 7.955s4.972 3.295 7.955 3.295c2.983 0 5.846-1.186 7.955-3.295s3.295-4.972 3.295-7.955c0-2.983-1.186-5.846-3.295-7.955S1598.983.75 1596 .75z" stroke="#000000" stroke-dasharray="0,70.68533917557349" stroke-dashoffset="70.685339"/><path d="M1589.2 11.6l5.27 5.27 9.84-8.76" stroke="#375282" stroke-dasharray="11.344984291732734,9.282259875054054" stroke-dashoffset="20.627244"/></g><g fill="#ffffff" stroke-miterlimit="10"><path d="M1620 .75c-2.983 0-5.846 1.186-7.955 3.295s-3.295 4.972-3.295 7.955c0 2.983 1.186 5.846 3.295 7.955s4.972 3.295 7.955 3.295c2.983 0 5.846-1.186 7.955-3.295s3.295-4.972 3.295-7.955c0-2.983-1.186-5.846-3.295-7.955S1622.983.75 1620 .75z" stroke="#000000" stroke-dasharray="0,70.68533917557349" stroke-dashoffset="70.685339"/><path d="M1613.2 11.6l5.27 5.27 9.84-8.76" stroke="#385384" stroke-dasharray="11.516877993122623,9.110366173664165" stroke-dashoffset="20.627244"/></g><g fill="#ffffff" stroke-miterlimit="10"><path d="M1644 .75c-2.983 0-5.846 1.186-7.955 3.295s-3.295 4.972-3.295 7.955c0 2.983 1.186 5.846 3.295 7.955s4.972 3.295 7.955 3.295c2.983 0 5.846-1.186 7.955-3.295s3.295-4.972 3.295-7.955c0-2.983-1.186-5.846-3.295-7.955S1646.983.75 1644 .75z" stroke="#000000" stroke-dasharray="0,70.68533917557349" stroke-dashoffset="70.685339"/><path d="M1637.2 11.6l5.27 5.27 9.84-8.76" stroke="#395486" stroke-dasharray="11.688771694512512,8.938472472274276" stroke-dashoffset="20.627244"/></g><g fill="#ffffff" stroke-miterlimit="10"><path d="M1668 .75c-2.983 0-5.846 1.186-7.955 3.295s-3.295 4.972-3.295 7.955c0 2.983 1.186 5.846 3.295 7.955s4.972 3.295 7.955 3.295c2.983 0 5.846-1.186 7.955-3.295s3.295-4.972 3.295-7.955c0-2.983-1.186-5.846-3.295-7.955S1670.983.75 1668 .75z" stroke="#000000" stroke-dasharray="0,70.68533917557349" stroke-dashoffset="70.685339"/><path d="M1661.2 11.6l5.27 5.27 9.84-8.76" stroke="#395688" stroke-dasharray="11.860665395902402,8.766578770884387" stroke-dashoffset="20.627244"/></g><g fill="#ffffff" stroke-miterlimit="10"><path d="M1692 .75c-2.983 0-5.846 1.186-7.955 3.295s-3.295 4.972-3.295 7.955c0 2.983 1.186 5.846 3.295 7.955s4.972 3.295 7.955 3.295c2.983 0 5.846-1.186 7.955-3.295s3.295-4.972 3.295-7.955c0-2.983-1.186-5.846-3.295-7.955S1694.983.75 1692 .75z" stroke="#000000" stroke-dasharray="0,70.68533917557349" stroke-dashoffset="70.685339"/><path d="M1685.2 11.6l5.27 5.27 9.84-8.76" stroke="#3a578a" stroke-dasharray="12.032559097292294,8.594685069494494" stroke-dashoffset="20.627244"/></g><g fill="#ffffff" stroke-miterlimit="10"><path d="M1716 .75c-2.983 0-5.846 1.186-7.955 3.295s-3.295 4.972-3.295 7.955c0 2.983 1.186 5.846 3.295 7.955s4.972 3.295 7.955 3.295c2.983 0 5.846-1.186 7.955-3.295s3.295-4.972 3.295-7.955c0-2.983-1.186-5.846-3.295-7.955S1718.983.75 1716 .75z" stroke="#000000" stroke-dasharray="0,70.68533917557349" stroke-dashoffset="70.685339"/><path d="M1709.2 11.6l5.27 5.27 9.84-8.76" stroke="#3b588c" stroke-dasharray="12.204452798682183,8.422791368104605" stroke-dashoffset="20.627244"/></g><g fill="#ffffff" stroke-miterlimit="10"><path d="M1740 .75c-2.983 0-5.846 1.186-7.955 3.295s-3.295 4.972-3.295 7.955c0 2.983 1.186 5.846 3.295 7.955s4.972 3.295 7.955 3.295c2.983 0 5.846-1.186 7.955-3.295s3.295-4.972 3.295-7.955c0-2.983-1.186-5.846-3.295-7.955S1742.983.75 1740 .75z" stroke="#000000" stroke-dasharray="0,70.68533917557349" stroke-dashoffset="70.685339"/><path d="M1733.2 11.6l5.27 5.27 9.84-8.76" stroke="#3c598e" stroke-dasharray="12.376346500072072,8.250897666714716" stroke-dashoffset="20.627244"/></g><g fill="#ffffff" stroke-miterlimit="10"><path d="M1764 .75c-2.983 0-5.846 1.186-7.955 3.295s-3.295 4.972-3.295 7.955c0 2.983 1.186 5.846 3.295 7.955s4.972 3.295 7.955 3.295c2.983 0 5.846-1.186 7.955-3.295s3.295-4.972 3.295-7.955c0-2.983-1.186-5.846-3.295-7.955S1766.983.75 1764 .75z" stroke="#000000" stroke-dasharray="0,70.68533917557349" stroke-dashoffset="70.685339"/><path d="M1757.2 11.6l5.27 5.27 9.84-8.76" stroke="#3d5b90" stroke-dasharray="12.548240201461963,8.079003965324825" stroke-dashoffset="20.627244"/></g><g fill="#ffffff" stroke-miterlimit="10"><path d="M1788 .75c-2.983 0-5.846 1.186-7.955 3.295s-3.295 4.972-3.295 7.955c0 2.983 1.186 5.846 3.295 7.955s4.972 3.295 7.955 3.295c2.983 0 5.846-1.186 7.955-3.295s3.295-4.972 3.295-7.955c0-2.983-1.186-5.846-3.295-7.955S1790.983.75 1788 .75z" stroke="#000000" stroke-dasharray="0,70.68533917557349" stroke-dashoffset="70.685339"/><path d="M1781.2 11.6l5.27 5.27 9.84-8.76" stroke="#3e5c92" stroke-dasharray="12.72013390285185,7.907110263934937" stroke-dashoffset="20.627244"/></g><g fill="#ffffff" stroke-miterlimit="10"><path d="M1812 .75c-2.983 0-5.846 1.186-7.955 3.295s-3.295 4.972-3.295 7.955c0 2.983 1.186 5.846 3.295 7.955s4.972 3.295 7.955 3.295c2.983 0 5.846-1.186 7.955-3.295s3.295-4.972 3.295-7.955c0-2.983-1.186-5.846-3.295-7.955S1814.983.75 1812 .75z" stroke="#000000" stroke-dasharray="0,70.68533917557349" stroke-dashoffset="70.685339"/><path d="M1805.2 11.6l5.27 5.27 9.84-8.76" stroke="#3f5d94" stroke-dasharray="12.892027604241743,7.7352165625450455" stroke-dashoffset="20.627244"/></g><g fill="#ffffff" stroke-miterlimit="10"><path d="M1836 .75c-2.983 0-5.846 1.186-7.955 3.295s-3.295 4.972-3.295 7.955c0 2.983 1.186 5.846 3.295 7.955s4.972 3.295 7.955 3.295c2.983 0 5.846-1.186 7.955-3.295s3.295-4.972 3.295-7.955c0-2.983-1.186-5.846-3.295-7.955S1838.983.75 1836 .75z" stroke="#000000" stroke-dasharray="0,70.68533917557349" stroke-dashoffset="70.685339"/><path d="M1829.2 11.6l5.27 5.27 9.84-8.76" stroke="#3f5e96" stroke-dasharray="13.063921305631634,7.563322861155154" stroke-dashoffset="20.627244"/></g><g fill="#ffffff" stroke-miterlimit="10"><path d="M1860 .75c-2.983 0-5.846 1.186-7.955 3.295s-3.295 4.972-3.295 7.955c0 2.983 1.186 5.846 3.295 7.955s4.972 3.295 7.955 3.295c2.983 0 5.846-1.186 7.955-3.295s3.295-4.972 3.295-7.955c0-2.983-1.186-5.846-3.295-7.955S1862.983.75 1860 .75z" stroke="#000000" stroke-dasharray="0,70.68533917557349" stroke-dashoffset="70.685339"/><path d="M1853.2 11.6l5.27 5.27 9.84-8.76" stroke="#406098" stroke-dasharray="13.235815007021522,7.391429159765267" stroke-dashoffset="20.627244"/></g><g fill="#ffffff" stroke-miterlimit="10"><path d="M1884 .75c-2.983 0-5.846 1.186-7.955 3.295s-3.295 4.972-3.295 7.955c0 2.983 1.186 5.846 3.295 7.955s4.972 3.295 7.955 3.295c2.983 0 5.846-1.186 7.955-3.295s3.295-4.972 3.295-7.955c0-2.983-1.186-5.846-3.295-7.955S1886.983.75 1884 .75z" stroke="#000000" stroke-dasharray="0,70.68533917557349" stroke-dashoffset="70.685339"/><path d="M1877.2 11.6l5.27 5.27 9.84-8.76" stroke="#41619a" stroke-dasharray="13.407708708411413,7.2195354583753755" stroke-dashoffset="20.627244"/></g><g fill="#ffffff" stroke-miterlimit="10"><path d="M1908 .75c-2.983 0-5.846 1.186-7.955 3.295s-3.295 4.972-3.295 7.955c0 2.983 1.186 5.846 3.295 7.955s4.972 3.295 7.955 3.295c2.983 0 5.846-1.186 7.955-3.295s3.295-4.972 3.295-7.955c0-2.983-1.186-5.846-3.295-7.955S1910.983.75 1908 .75z" stroke="#000000" stroke-dasharray="0,70.68533917557349" stroke-dashoffset="70.685339"/><path d="M1901.2 11.6l5.27 5.27 9.84-8.76" stroke="#42629c" stroke-dasharray="13.579602409801302,7.047641756985486" stroke-dashoffset="20.627244"/></g><g fill="#ffffff" stroke-miterlimit="10"><path d="M1932 .75c-2.983 0-5.846 1.186-7.955 3.295s-3.295 4.972-3.295 7.955c0 2.983 1.186 5.846 3.295 7.955s4.972 3.295 7.955 3.295c2.983 0 5.846-1.186 7.955-3.295s3.295-4.972 3.295-7.955c0-2.983-1.186-5.846-3.295-7.955S1934.983.75 1932 .75z" stroke="#000000" stroke-dasharray="0,70.68533917557349" stroke-dashoffset="70.685339"/><path d="M1925.2 11.6l5.27 5.27 9.84-8.76" stroke="#43639e" stroke-dasharray="13.75149611119119,6.875748055595597" stroke-dashoffset="20.627244"/></g><g fill="#ffffff" stroke-miterlimit="10"><path d="M1956 .75c-2.983 0-5.846 1.186-7.955 3.295s-3.295 4.972-3.295 7.955c0 2.983 1.186 5.846 3.295 7.955s4.972 3.295 7.955 3.295c2.983 0 5.846-1.186 7.955-3.295s3.295-4.972 3.295-7.955c0-2.983-1.186-5.846-3.295-7.955S1958.983.75 1956 .75z" stroke="#000000" stroke-dasharray="0,70.68533917557349" stroke-dashoffset="70.685339"/><path d="M1949.2 11.6l5.27 5.27 9.84-8.76" stroke="#4465a0" stroke-dasharray="13.923389812581084,6.703854354205705" stroke-dashoffset="20.627244"/></g><g fill="#ffffff" stroke-miterlimit="10"><path d="M1980 .75c-2.983 0-5.846 1.186-7.955 3.295s-3.295 4.972-3.295 7.955c0 2.983 1.186 5.846 3.295 7.955s4.972 3.295 7.955 3.295c2.983 0 5.846-1.186 7.955-3.295s3.295-4.972 3.295-7.955c0-2.983-1.186-5.846-3.295-7.955S1982.983.75 1980 .75z" stroke="#000000" stroke-dasharray="0,70.68533917557349" stroke-dashoffset="70.685339"/><path d="M1973.2 11.6l5.27 5.27 9.84-8.76" stroke="#4466a2" stroke-dasharray="14.095283513970973,6.531960652815816" stroke-dashoffset="20.627244"/></g><g fill="#ffffff" stroke-miterlimit="10"><path d="M2004 .75c-2.983 0-5.846 1.186-7.955 3.295s-3.295 4.972-3.295 7.955c0 2.983 1.186 5.846 3.295 7.955s4.972 3.295 7.955 3.295c2.983 0 5.846-1.186 7.955-3.295s3.295-4.972 3.295-7.955c0-2.983-1.186-5.846-3.295-7.955S2006.983.75 2004 .75z" stroke="#000000" stroke-dasharray="0,70.68533917557349" stroke-dashoffset="70.685339"/><path d="M1997.2 11.6l5.27 5.27 9.84-8.76" stroke="#4567a4" stroke-dasharray="14.267177215360864,6.3600669514259245" stroke-dashoffset="20.627244"/></g><g fill="#ffffff" stroke-miterlimit="10"><path d="M2028 .75c-2.983 0-5.846 1.186-7.955 3.295s-3.295 4.972-3.295 7.955c0 2.983 1.186 5.846 3.295 7.955s4.972 3.295 7.955 3.295c2.983 0 5.846-1.186 7.955-3.295s3.295-4.972 3.295-7.955c0-2.983-1.186-5.846-3.295-7.955S2030.983.75 2028 .75z" stroke="#000000" stroke-dasharray="0,70.68533917557349" stroke-dashoffset="70.685339"/><path d="M2021.2 11.6l5.27 5.27 9.84-8.76" stroke="#4668a6" stroke-dasharray="14.439070916750751,6.188173250036037" stroke-dashoffset="20.627244"/></g><g fill="#ffffff" stroke-miterlimit="10"><path d="M2052 .75c-2.983 0-5.846 1.186-7.955 3.295s-3.295 4.972-3.295 7.955c0 2.983 1.186 5.846 3.295 7.955s4.972 3.295 7.955 3.295c2.983 0 5.846-1.186 7.955-3.295s3.295-4.972 3.295-7.955c0-2.983-1.186-5.846-3.295-7.955S2054.983.75 2052 .75z" stroke="#000000" stroke-dasharray="0,70.68533917557349" stroke-dashoffset="70.685339"/><path d="M2045.2 11.6l5.27 5.27 9.84-8.76" stroke="#476aa8" stroke-dasharray="14.610964618140642,6.016279548646145" stroke-dashoffset="20.627244"/></g><g fill="#ffffff" stroke-miterlimit="10"><path d="M2076 .75c-2.983 0-5.846 1.186-7.955 3.295s-3.295 4.972-3.295 7.955c0 2.983 1.186 5.846 3.295 7.955s4.972 3.295 7.955 3.295c2.983 0 5.846-1.186 7.955-3.295s3.295-4.972 3.295-7.955c0-2.983-1.186-5.846-3.295-7.955S2078.983.75 2076 .75z" stroke="#000000" stroke-dasharray="0,70.68533917557349" stroke-dashoffset="70.685339"/><path d="M2069.2 11.6l5.27 5.27 9.84-8.76" stroke="#486baa" stroke-dasharray="14.782858319530535,5.844385847256254" stroke-dashoffset="20.627244"/></g><g fill="#ffffff" stroke-miterlimit="10"><path d="M2100 .75c-2.983 0-5.846 1.186-7.955 3.295s-3.295 4.972-3.295 7.955c0 2.983 1.186 5.846 3.295 7.955s4.972 3.295 7.955 3.295c2.983 0 5.846-1.186 7.955-3.295s3.295-4.972 3.295-7.955c0-2.983-1.186-5.846-3.295-7.955S2102.983.75 2100 .75z" stroke="#000000" stroke-dasharray="0,70.68533917557349" stroke-dashoffset="70.685339"/><path d="M2093.2 11.6l5.27 5.27 9.84-8.76" stroke="#496cac" stroke-dasharray="14.95475202092042,5.672492145866367" stroke-dashoffset="20.627244"/></g><g fill="#ffffff" stroke-miterlimit="10"><path d="M2124 .75c-2.983 0-5.846 1.186-7.955 3.295s-3.295 4.972-3.295 7.955c0 2.983 1.186 5.846 3.295 7.955s4.972 3.295 7.955 3.295c2.983 0 5.846-1.186 7.955-3.295s3.295-4.972 3.295-7.955c0-2.983-1.186-5.846-3.295-7.955S2126.983.75 2124 .75z" stroke="#000000" stroke-dasharray="0,70.68533917557349" stroke-dashoffset="70.685339"/><path d="M2117.2 11.6l5.27 5.27 9.84-8.76" stroke="#496dae" stroke-dasharray="15.126645722310311,5.500598444476478" stroke-dashoffset="20.627244"/></g><g fill="#ffffff" stroke-miterlimit="10"><path d="M2148 .75c-2.983 0-5.846 1.186-7.955 3.295s-3.295 4.972-3.295 7.955c0 2.983 1.186 5.846 3.295 7.955s4.972 3.295 7.955 3.295c2.983 0 5.846-1.186 7.955-3.295s3.295-4.972 3.295-7.955c0-2.983-1.186-5.846-3.295-7.955S2150.983.75 2148 .75z" stroke="#000000" stroke-dasharray="0,70.68533917557349" stroke-dashoffset="70.685339"/><path d="M2141.2 11.6l5.27 5.27 9.84-8.76" stroke="#4a6fb0" stroke-dasharray="15.298539423700202,5.328704743086586" stroke-dashoffset="20.627244"/></g><g fill="#ffffff" stroke-miterlimit="10"><path d="M2172 .75c-2.983 0-5.846 1.186-7.955 3.295s-3.295 4.972-3.295 7.955c0 2.983 1.186 5.846 3.295 7.955s4.972 3.295 7.955 3.295c2.983 0 5.846-1.186 7.955-3.295s3.295-4.972 3.295-7.955c0-2.983-1.186-5.846-3.295-7.955S2174.983.75 2172 .75z" stroke="#000000" stroke-dasharray="0,70.68533917557349" stroke-dashoffset="70.685339"/><path d="M2165.2 11.6l5.27 5.27 9.84-8.76" stroke="#4b70b2" stroke-dasharray="15.470433125090091,5.156811041696697" stroke-dashoffset="20.627244"/></g><g fill="#ffffff" stroke-miterlimit="10"><path d="M2196 .75c-2.983 0-5.846 1.186-7.955 3.295s-3.295 4.972-3.295 7.955c0 2.983 1.186 5.846 3.295 7.955s4.972 3.295 7.955 3.295c2.983 0 5.846-1.186 7.955-3.295s3.295-4.972 3.295-7.955c0-2.983-1.186-5.846-3.295-7.955S2198.983.75 2196 .75z" stroke="#000000" stroke-dasharray="0,70.68533917557349" stroke-dashoffset="70.685339"/><path d="M2189.2 11.6l5.27 5.27 9.84-8.76" stroke="#4c71b4" stroke-dasharray="15.64232682647998,4.984917340306808" stroke-dashoffset="20.627244"/></g><g fill="#ffffff" stroke-miterlimit="10"><path d="M2220 .75c-2.983 0-5.846 1.186-7.955 3.295s-3.295 4.972-3.295 7.955c0 2.983 1.186 5.846 3.295 7.955s4.972 3.295 7.955 3.295c2.983 0 5.846-1.186 7.955-3.295s3.295-4.972 3.295-7.955c0-2.983-1.186-5.846-3.295-7.955S2222.983.75 2220 .75z" stroke="#000000" stroke-dasharray="0,70.68533917557349" stroke-dashoffset="70.685339"/><path d="M2213.2 11.6l5.27 5.27 9.84-8.76" stroke="#4d72b6" stroke-dasharray="15.81422052786987,4.813023638916919" stroke-dashoffset="20.627244"/></g><g fill="#ffffff" stroke-miterlimit="10"><path d="M2244 .75c-2.983 0-5.846 1.186-7.955 3.295s-3.295 4.972-3.295 7.955c0 2.983 1.186 5.846 3.295 7.955s4.972 3.295 7.955 3.295c2.983 0 5.846-1.186 7.955-3.295s3.295-4.972 3.295-7.955c0-2.983-1.186-5.846-3.295-7.955S2246.983.75 2244 .75z" stroke="#000000" stroke-dasharray="0,70.68533917557349" stroke-dashoffset="70.685339"/><path d="M2237.2 11.6l5.27 5.27 9.84-8.76" stroke="#4e73b8" stroke-dasharray="15.986114229259764,4.641129937527024" stroke-dashoffset="20.627244"/></g><g fill="#ffffff" stroke-miterlimit="10"><path d="M2268 .75c-2.983 0-5.846 1.186-7.955 3.295s-3.295 4.972-3.295 7.955c0 2.983 1.186 5.846 3.295 7.955s4.972 3.295 7.955 3.295c2.983 0 5.846-1.186 7.955-3.295s3.295-4.972 3.295-7.955c0-2.983-1.186-5.846-3.295-7.955S2270.983.75 2268 .75z" stroke="#000000" stroke-dasharray="0,70.68533917557349" stroke-dashoffset="70.685339"/><path d="M2261.2 11.6l5.27 5.27 9.84-8.76" stroke="#4e75ba" stroke-dasharray="16.15800793064965,4.469236236137138" stroke-dashoffset="20.627244"/></g><g fill="#ffffff" stroke-miterlimit="10"><path d="M2292 .75c-2.983 0-5.846 1.186-7.955 3.295s-3.295 4.972-3.295 7.955c0 2.983 1.186 5.846 3.295 7.955s4.972 3.295 7.955 3.295c2.983 0 5.846-1.186 7.955-3.295s3.295-4.972 3.295-7.955c0-2.983-1.186-5.846-3.295-7.955S2294.983.75 2292 .75z" stroke="#000000" stroke-dasharray="0,70.68533917557349" stroke-dashoffset="70.685339"/><path d="M2285.2 11.6l5.27 5.27 9.84-8.76" stroke="#4f76bc" stroke-dasharray="16.32990163203954,4.297342534747249" stroke-dashoffset="20.627244"/></g><g fill="#ffffff" stroke-miterlimit="10"><path d="M2316 .75c-2.983 0-5.846 1.186-7.955 3.295s-3.295 4.972-3.295 7.955c0 2.983 1.186 5.846 3.295 7.955s4.972 3.295 7.955 3.295c2.983 0 5.846-1.186 7.955-3.295s3.295-4.972 3.295-7.955c0-2.983-1.186-5.846-3.295-7.955S2318.983.75 2316 .75z" stroke="#000000" stroke-dasharray="0,70.68533917557349" stroke-dashoffset="70.685339"/><path d="M2309.2 11.6l5.27 5.27 9.84-8.76" stroke="#5077be" stroke-dasharray="16.50179533342943,4.125448833357357" stroke-dashoffset="20.627244"/></g><g fill="#ffffff" stroke-miterlimit="10"><path d="M2340 .75c-2.983 0-5.846 1.186-7.955 3.295s-3.295 4.972-3.295 7.955c0 2.983 1.186 5.846 3.295 7.955s4.972 3.295 7.955 3.295c2.983 0 5.846-1.186 7.955-3.295s3.295-4.972 3.295-7.955c0-2.983-1.186-5.846-3.295-7.955S2342.983.75 2340 .75z" stroke="#000000" stroke-dasharray="0,70.68533917557349" stroke-dashoffset="70.685339"/><path d="M2333.2 11.6l5.27 5.27 9.84-8.76" stroke="#5178c0" stroke-dasharray="16.67368903481932,3.9535551319674695" stroke-dashoffset="20.627244"/></g><g fill="#ffffff" stroke-miterlimit="10"><path d="M2364 .75c-2.983 0-5.846 1.186-7.955 3.295s-3.295 4.972-3.295 7.955c0 2.983 1.186 5.846 3.295 7.955s4.972 3.295 7.955 3.295c2.983 0 5.846-1.186 7.955-3.295s3.295-4.972 3.295-7.955c0-2.983-1.186-5.846-3.295-7.955S2366.983.75 2364 .75z" stroke="#000000" stroke-dasharray="0,70.68533917557349" stroke-dashoffset="70.685339"/><path d="M2357.2 11.6l5.27 5.27 9.84-8.76" stroke="#527ac2" stroke-dasharray="16.84558273620921,3.781661430577578" stroke-dashoffset="20.627244"/></g><g fill="#ffffff" stroke-miterlimit="10"><path d="M2388 .75c-2.983 0-5.846 1.186-7.955 3.295s-3.295 4.972-3.295 7.955c0 2.983 1.186 5.846 3.295 7.955s4.972 3.295 7.955 3.295c2.983 0 5.846-1.186 7.955-3.295s3.295-4.972 3.295-7.955c0-2.983-1.186-5.846-3.295-7.955S2390.983.75 2388 .75z" stroke="#000000" stroke-dasharray="0,70.68533917557349" stroke-dashoffset="70.685339"/><path d="M2381.2 11.6l5.27 5.27 9.84-8.76" stroke="#537bc4" stroke-dasharray="17.0174764375991,3.6097677291876864" stroke-dashoffset="20.627244"/></g><g fill="#ffffff" stroke-miterlimit="10"><path d="M2412 .75c-2.983 0-5.846 1.186-7.955 3.295s-3.295 4.972-3.295 7.955c0 2.983 1.186 5.846 3.295 7.955s4.972 3.295 7.955 3.295c2.983 0 5.846-1.186 7.955-3.295s3.295-4.972 3.295-7.955c0-2.983-1.186-5.846-3.295-7.955S2414.983.75 2412 .75z" stroke="#000000" stroke-dasharray="0,70.68533917557349" stroke-dashoffset="70.685339"/><path d="M2405.2 11.6l5.27 5.27 9.84-8.76" stroke="#537cc6" stroke-dasharray="17.18937013898899,3.4378740277977973" stroke-dashoffset="20.627244"/></g><g fill="#ffffff" stroke-miterlimit="10"><path d="M2436 .75c-2.983 0-5.846 1.186-7.955 3.295s-3.295 4.972-3.295 7.955c0 2.983 1.186 5.846 3.295 7.955s4.972 3.295 7.955 3.295c2.983 0 5.846-1.186 7.955-3.295s3.295-4.972 3.295-7.955c0-2.983-1.186-5.846-3.295-7.955S2438.983.75 2436 .75z" stroke="#000000" stroke-dasharray="0,70.68533917557349" stroke-dashoffset="70.685339"/><path d="M2429.2 11.6l5.27 5.27 9.84-8.76" stroke="#547dc7" stroke-dasharray="17.36126384037888,3.265980326407908" stroke-dashoffset="20.627244"/></g><g fill="#ffffff" stroke-miterlimit="10"><path d="M2460 .75c-2.983 0-5.846 1.186-7.955 3.295s-3.295 4.972-3.295 7.955c0 2.983 1.186 5.846 3.295 7.955s4.972 3.295 7.955 3.295c2.983 0 5.846-1.186 7.955-3.295s3.295-4.972 3.295-7.955c0-2.983-1.186-5.846-3.295-7.955S2462.983.75 2460 .75z" stroke="#000000" stroke-dasharray="0,70.68533917557349" stroke-dashoffset="70.685339"/><path d="M2453.2 11.6l5.27 5.27 9.84-8.76" stroke="#557fc9" stroke-dasharray="17.53315754176877,3.0940866250180186" stroke-dashoffset="20.627244"/></g><g fill="#ffffff" stroke-miterlimit="10"><path d="M2484 .75c-2.983 0-5.846 1.186-7.955 3.295s-3.295 4.972-3.295 7.955c0 2.983 1.186 5.846 3.295 7.955s4.972 3.295 7.955 3.295c2.983 0 5.846-1.186 7.955-3.295s3.295-4.972 3.295-7.955c0-2.983-1.186-5.846-3.295-7.955S2486.983.75 2484 .75z" stroke="#000000" stroke-dasharray="0,70.68533917557349" stroke-dashoffset="70.685339"/><path d="M2477.2 11.6l5.27 5.27 9.84-8.76" stroke="#5680cb" stroke-dasharray="17.70505124315866,2.9221929236281294" stroke-dashoffset="20.627244"/></g><g fill="#ffffff" stroke-miterlimit="10"><path d="M2508 .75c-2.983 0-5.846 1.186-7.955 3.295s-3.295 4.972-3.295 7.955c0 2.983 1.186 5.846 3.295 7.955s4.972 3.295 7.955 3.295c2.983 0 5.846-1.186 7.955-3.295s3.295-4.972 3.295-7.955c0-2.983-1.186-5.846-3.295-7.955S2510.983.75 2508 .75z" stroke="#000000" stroke-dasharray="0,70.68533917557349" stroke-dashoffset="70.685339"/><path d="M2501.2 11.6l5.27 5.27 9.84-8.76" stroke="#5781cd" stroke-dasharray="17.876944944548548,2.7502992222382403" stroke-dashoffset="20.627244"/></g><g fill="#ffffff" stroke-miterlimit="10"><path d="M2532 .75c-2.983 0-5.846 1.186-7.955 3.295s-3.295 4.972-3.295 7.955c0 2.983 1.186 5.846 3.295 7.955s4.972 3.295 7.955 3.295c2.983 0 5.846-1.186 7.955-3.295s3.295-4.972 3.295-7.955c0-2.983-1.186-5.846-3.295-7.955S2534.983.75 2532 .75z" stroke="#000000" stroke-dasharray="0,70.68533917557349" stroke-dashoffset="70.685339"/><path d="M2525.2 11.6l5.27 5.27 9.84-8.76" stroke="#5882cf" stroke-dasharray="18.04883864593844,2.5784055208483485" stroke-dashoffset="20.627244"/></g><g fill="#ffffff" stroke-miterlimit="10"><path d="M2556 .75c-2.983 0-5.846 1.186-7.955 3.295s-3.295 4.972-3.295 7.955c0 2.983 1.186 5.846 3.295 7.955s4.972 3.295 7.955 3.295c2.983 0 5.846-1.186 7.955-3.295s3.295-4.972 3.295-7.955c0-2.983-1.186-5.846-3.295-7.955S2558.983.75 2556 .75z" stroke="#000000" stroke-dasharray="0,70.68533917557349" stroke-dashoffset="70.685339"/><path d="M2549.2 11.6l5.27 5.27 9.84-8.76" stroke="#5884d1" stroke-dasharray="18.22073234732833,2.4065118194584567" stroke-dashoffset="20.627244"/></g><g fill="#ffffff" stroke-miterlimit="10"><path d="M2580 .75c-2.983 0-5.846 1.186-7.955 3.295s-3.295 4.972-3.295 7.955c0 2.983 1.186 5.846 3.295 7.955s4.972 3.295 7.955 3.295c2.983 0 5.846-1.186 7.955-3.295s3.295-4.972 3.295-7.955c0-2.983-1.186-5.846-3.295-7.955S2582.983.75 2580 .75z" stroke="#000000" stroke-dasharray="0,70.68533917557349" stroke-dashoffset="70.685339"/><path d="M2573.2 11.6l5.27 5.27 9.84-8.76" stroke="#5985d3" stroke-dasharray="18.392626048718217,2.23461811806857" stroke-dashoffset="20.627244"/></g><g fill="#ffffff" stroke-miterlimit="10"><path d="M2604 .75c-2.983 0-5.846 1.186-7.955 3.295s-3.295 4.972-3.295 7.955c0 2.983 1.186 5.846 3.295 7.955s4.972 3.295 7.955 3.295c2.983 0 5.846-1.186 7.955-3.295s3.295-4.972 3.295-7.955c0-2.983-1.186-5.846-3.295-7.955S2606.983.75 2604 .75z" stroke="#000000" stroke-dasharray="0,70.68533917557349" stroke-dashoffset="70.685339"/><path d="M2597.2 11.6l5.27 5.27 9.84-8.76" stroke="#5a86d5" stroke-dasharray="18.56451975010811,2.0627244166786785" stroke-dashoffset="20.627244"/></g><g fill="#ffffff" stroke-miterlimit="10"><path d="M2628 .75c-2.983 0-5.846 1.186-7.955 3.295s-3.295 4.972-3.295 7.955c0 2.983 1.186 5.846 3.295 7.955s4.972 3.295 7.955 3.295c2.983 0 5.846-1.186 7.955-3.295s3.295-4.972 3.295-7.955c0-2.983-1.186-5.846-3.295-7.955S2630.983.75 2628 .75z" stroke="#000000" stroke-dasharray="0,70.68533917557349" stroke-dashoffset="70.685339"/><path d="M2621.2 11.6l5.27 5.27 9.84-8.76" stroke="#5b87d7" stroke-dasharray="18.736413451497995,1.8908307152887913" stroke-dashoffset="20.627244"/></g><g fill="#ffffff" stroke-miterlimit="10"><path d="M2652 .75c-2.983 0-5.846 1.186-7.955 3.295s-3.295 4.972-3.295 7.955c0 2.983 1.186 5.846 3.295 7.955s4.972 3.295 7.955 3.295c2.983 0 5.846-1.186 7.955-3.295s3.295-4.972 3.295-7.955c0-2.983-1.186-5.846-3.295-7.955S2654.983.75 2652 .75z" stroke="#000000" stroke-dasharray="0,70.68533917557349" stroke-dashoffset="70.685339"/><path d="M2645.2 11.6l5.27 5.27 9.84-8.76" stroke="#5c89d9" stroke-dasharray="18.90830715288789,1.7189370138988975" stroke-dashoffset="20.627244"/></g><g fill="#ffffff" stroke-miterlimit="10"><path d="M2676 .75c-2.983 0-5.846 1.186-7.955 3.295s-3.295 4.972-3.295 7.955c0 2.983 1.186 5.846 3.295 7.955s4.972 3.295 7.955 3.295c2.983 0 5.846-1.186 7.955-3.295s3.295-4.972 3.295-7.955c0-2.983-1.186-5.846-3.295-7.955S2678.983.75 2676 .75z" stroke="#000000" stroke-dasharray="0,70.68533917557349" stroke-dashoffset="70.685339"/><path d="M2669.2 11.6l5.27 5.27 9.84-8.76" stroke="#5d8adb" stroke-dasharray="19.08020085427778,1.5470433125090082" stroke-dashoffset="20.627244"/></g><g fill="#ffffff" stroke-miterlimit="10"><path d="M2700 .75c-2.983 0-5.846 1.186-7.955 3.295s-3.295 4.972-3.295 7.955c0 2.983 1.186 5.846 3.295 7.955s4.972 3.295 7.955 3.295c2.983 0 5.846-1.186 7.955-3.295s3.295-4.972 3.295-7.955c0-2.983-1.186-5.846-3.295-7.955S2702.983.75 2700 .75z" stroke="#000000" stroke-dasharray="0,70.68533917557349" stroke-dashoffset="70.685339"/><path d="M2693.2 11.6l5.27 5.27 9.84-8.76" stroke="#5d8bdd" stroke-dasharray="19.252094555667668,1.3751496111191188" stroke-dashoffset="20.627244"/></g><g fill="#ffffff" stroke-miterlimit="10"><path d="M2724 .75c-2.983 0-5.846 1.186-7.955 3.295s-3.295 4.972-3.295 7.955c0 2.983 1.186 5.846 3.295 7.955s4.972 3.295 7.955 3.295c2.983 0 5.846-1.186 7.955-3.295s3.295-4.972 3.295-7.955c0-2.983-1.186-5.846-3.295-7.955S2726.983.75 2724 .75z" stroke="#000000" stroke-dasharray="0,70.68533917557349" stroke-dashoffset="70.685339"/><path d="M2717.2 11.6l5.27 5.27 9.84-8.76" stroke="#5e8cdf" stroke-dasharray="19.42398825705756,1.2032559097292297" stroke-dashoffset="20.627244"/></g><g fill="#ffffff" stroke-miterlimit="10"><path d="M2748 .75c-2.983 0-5.846 1.186-7.955 3.295s-3.295 4.972-3.295 7.955c0 2.983 1.186 5.846 3.295 7.955s4.972 3.295 7.955 3.295c2.983 0 5.846-1.186 7.955-3.295s3.295-4.972 3.295-7.955c0-2.983-1.186-5.846-3.295-7.955S2750.983.75 2748 .75z" stroke="#000000" stroke-dasharray="0,70.68533917557349" stroke-dashoffset="70.685339"/><path d="M2741.2 11.6l5.27 5.27 9.84-8.76" stroke="#5f8ee1" stroke-dasharray="19.595881958447446,1.0313622083393403" stroke-dashoffset="20.627244"/></g><g fill="#ffffff" stroke-miterlimit="10"><path d="M2772 .75c-2.983 0-5.846 1.186-7.955 3.295s-3.295 4.972-3.295 7.955c0 2.983 1.186 5.846 3.295 7.955s4.972 3.295 7.955 3.295c2.983 0 5.846-1.186 7.955-3.295s3.295-4.972 3.295-7.955c0-2.983-1.186-5.846-3.295-7.955S2774.983.75 2772 .75z" stroke="#000000" stroke-dasharray="0,70.68533917557349" stroke-dashoffset="70.685339"/><path d="M2765.2 11.6l5.27 5.27 9.84-8.76" stroke="#608fe3" stroke-dasharray="19.767775659837337,0.859468506949451" stroke-dashoffset="20.627244"/></g><g fill="#ffffff" stroke-miterlimit="10"><path d="M2796 .75c-2.983 0-5.846 1.186-7.955 3.295s-3.295 4.972-3.295 7.955c0 2.983 1.186 5.846 3.295 7.955s4.972 3.295 7.955 3.295c2.983 0 5.846-1.186 7.955-3.295s3.295-4.972 3.295-7.955c0-2.983-1.186-5.846-3.295-7.955S2798.983.75 2796 .75z" stroke="#000000" stroke-dasharray="0,70.68533917557349" stroke-dashoffset="70.685339"/><path d="M2789.2 11.6l5.27 5.27 9.84-8.76" stroke="#6190e5" stroke-dasharray="19.93966936122723,0.6875748055595572" stroke-dashoffset="20.627244"/></g><g fill="#ffffff" stroke-miterlimit="10"><path d="M2820 .75c-2.983 0-5.846 1.186-7.955 3.295s-3.295 4.972-3.295 7.955c0 2.983 1.186 5.846 3.295 7.955s4.972 3.295 7.955 3.295c2.983 0 5.846-1.186 7.955-3.295s3.295-4.972 3.295-7.955c0-2.983-1.186-5.846-3.295-7.955S2822.983.75 2820 .75z" stroke="#000000" stroke-dasharray="0,70.68533917557349" stroke-dashoffset="70.685339"/><path d="M2813.2 11.6l5.27 5.27 9.84-8.76" stroke="#6291e7" stroke-dasharray="20.11156306261712,0.5156811041696702" stroke-dashoffset="20.627244"/></g><g fill="#ffffff" stroke-miterlimit="10"><path d="M2844 .75c-2.983 0-5.846 1.186-7.955 3.295s-3.295 4.972-3.295 7.955c0 2.983 1.186 5.846 3.295 7.955s4.972 3.295 7.955 3.295c2.983 0 5.846-1.186 7.955-3.295s3.295-4.972 3.295-7.955c0-2.983-1.186-5.846-3.295-7.955S2846.983.75 2844 .75z" stroke="#000000" stroke-dasharray="0,70.68533917557349" stroke-dashoffset="70.685339"/><path d="M2837.2 11.6l5.27 5.27 9.84-8.76" stroke="#6293e9" stroke-dasharray="20.28345676400701,0.3437874027797786" stroke-dashoffset="20.627244"/></g><g fill="#ffffff" stroke-miterlimit="10"><path d="M2868 .75c-2.983 0-5.846 1.186-7.955 3.295s-3.295 4.972-3.295 7.955c0 2.983 1.186 5.846 3.295 7.955s4.972 3.295 7.955 3.295c2.983 0 5.846-1.186 7.955-3.295s3.295-4.972 3.295-7.955c0-2.983-1.186-5.846-3.295-7.955S2870.983.75 2868 .75z" stroke="#000000" stroke-dasharray="0,70.68533917557349" stroke-dashoffset="70.685339"/><path d="M2861.2 11.6l5.27 5.27 9.84-8.76" stroke="#6394eb" stroke-dasharray="20.455350465396897,0.17189370138989157" stroke-dashoffset="20.627244"/></g><g fill="#ffffff" stroke-miterlimit="10"><path d="M2892 .75c-2.983 0-5.846 1.186-7.955 3.295s-3.295 4.972-3.295 7.955c0 2.983 1.186 5.846 3.295 7.955s4.972 3.295 7.955 3.295c2.983 0 5.846-1.186 7.955-3.295s3.295-4.972 3.295-7.955c0-2.983-1.186-5.846-3.295-7.955S2894.983.75 2892 .75z" stroke="#000000" stroke-dasharray="0,70.68533917557349" stroke-dashoffset="70.685339"/><path d="M2885.2 11.6l5.27 5.27 9.84-8.76" stroke="#6495ed"/></g><g fill="#ffffff" stroke-miterlimit="10"><path d="M2916 .75c-2.983 0-5.846 1.186-7.955 3.295s-3.295 4.972-3.295 7.955c0 2.983 1.186 5.846 3.295 7.955s4.972 3.295 7.955 3.295c2.983 0 5.846-1.186 7.955-3.295s3.295-4.972 3.295-7.955c0-2.983-1.186-5.846-3.295-7.955S2918.983.75 2916 .75z" stroke="#020204" stroke-dasharray="1.1780889862595636,69.50725018931392" stroke-dashoffset="70.685339"/><path d="M2909.2 11.6l5.27 5.27 9.84-8.76" stroke="#6495ed"/></g><g fill="#ffffff" stroke-miterlimit="10"><path d="M2940 .75c-2.983 0-5.846 1.186-7.955 3.295s-3.295 4.972-3.295 7.955c0 2.983 1.186 5.846 3.295 7.955s4.972 3.295 7.955 3.295c2.983 0 5.846-1.186 7.955-3.295s3.295-4.972 3.295-7.955c0-2.983-1.186-5.846-3.295-7.955S2942.983.75 2940 .75z" stroke="#030508" stroke-dasharray="2.356177972519127,68.32916120305437" stroke-dashoffset="70.685339"/><path d="M2933.2 11.6l5.27 5.27 9.84-8.76" stroke="#6495ed"/></g><g fill="#ffffff" stroke-miterlimit="10"><path d="M2964 .75c-2.983 0-5.846 1.186-7.955 3.295s-3.295 4.972-3.295 7.955c0 2.983 1.186 5.846 3.295 7.955s4.972 3.295 7.955 3.295c2.983 0 5.846-1.186 7.955-3.295s3.295-4.972 3.295-7.955c0-2.983-1.186-5.846-3.295-7.955S2966.983.75 2964 .75z" stroke="#05070c" stroke-dasharray="3.534266958778675,67.15107221679482" stroke-dashoffset="70.685339"/><path d="M2957.2 11.6l5.27 5.27 9.84-8.76" stroke="#6495ed"/></g><g fill="#ffffff" stroke-miterlimit="10"><path d="M2988 .75c-2.983 0-5.846 1.186-7.955 3.295s-3.295 4.972-3.295 7.955c0 2.983 1.186 5.846 3.295 7.955s4.972 3.295 7.955 3.295c2.983 0 5.846-1.186 7.955-3.295s3.295-4.972 3.295-7.955c0-2.983-1.186-5.846-3.295-7.955S2990.983.75 2988 .75z" stroke="#070a10" stroke-dasharray="4.7123559450382215,65.97298323053526" stroke-dashoffset="70.685339"/><path d="M2981.2 11.6l5.27 5.27 9.84-8.76" stroke="#6495ed"/></g><g fill="#ffffff" stroke-miterlimit="10"><path d="M3012 .75c-2.983 0-5.846 1.186-7.955 3.295s-3.295 4.972-3.295 7.955c0 2.983 1.186 5.846 3.295 7.955s4.972 3.295 7.955 3.295c2.983 0 5.846-1.186 7.955-3.295s3.295-4.972 3.295-7.955c0-2.983-1.186-5.846-3.295-7.955S3014.983.75 3012 .75z" stroke="#080c14" stroke-dasharray="5.890444931297801,64.79489424427568" stroke-dashoffset="70.685339"/><path d="M3005.2 11.6l5.27 5.27 9.84-8.76" stroke="#6495ed"/></g><g fill="#ffffff" stroke-miterlimit="10"><path d="M3036 .75c-2.983 0-5.846 1.186-7.955 3.295s-3.295 4.972-3.295 7.955c0 2.983 1.186 5.846 3.295 7.955s4.972 3.295 7.955 3.295c2.983 0 5.846-1.186 7.955-3.295s3.295-4.972 3.295-7.955c0-2.983-1.186-5.846-3.295-7.955S3038.983.75 3036 .75z" stroke="#0a0f18" stroke-dasharray="7.06853391755735,63.61680525801614" stroke-dashoffset="70.685339"/><path d="M3029.2 11.6l5.27 5.27 9.84-8.76" stroke="#6495ed"/></g><g fill="#ffffff" stroke-miterlimit="10"><path d="M3060 .75c-2.983 0-5.846 1.186-7.955 3.295s-3.295 4.972-3.295 7.955c0 2.983 1.186 5.846 3.295 7.955s4.972 3.295 7.955 3.295c2.983 0 5.846-1.186 7.955-3.295s3.295-4.972 3.295-7.955c0-2.983-1.186-5.846-3.295-7.955S3062.983.75 3060 .75z" stroke="#0c111c" stroke-dasharray="8.24662290381693,62.43871627175656" stroke-dashoffset="70.685339"/><path d="M3053.2 11.6l5.27 5.27 9.84-8.76" stroke="#6495ed"/></g><g fill="#ffffff" stroke-miterlimit="10"><path d="M3084 .75c-2.983 0-5.846 1.186-7.955 3.295s-3.295 4.972-3.295 7.955c0 2.983 1.186 5.846 3.295 7.955s4.972 3.295 7.955 3.295c2.983 0 5.846-1.186 7.955-3.295s3.295-4.972 3.295-7.955c0-2.983-1.186-5.846-3.295-7.955S3086.983.75 3084 .75z" stroke="#0d1420" stroke-dasharray="9.424711890076477,61.26062728549701" stroke-dashoffset="70.685339"/><path d="M3077.2 11.6l5.27 5.27 9.84-8.76" stroke="#6495ed"/></g><g fill="#ffffff" stroke-miterlimit="10"><path d="M3108 .75c-2.983 0-5.846 1.186-7.955 3.295s-3.295 4.972-3.295 7.955c0 2.983 1.186 5.846 3.295 7.955s4.972 3.295 7.955 3.295c2.983 0 5.846-1.186 7.955-3.295s3.295-4.972 3.295-7.955c0-2.983-1.186-5.846-3.295-7.955S3110.983.75 3108 .75z" stroke="#0f1624" stroke-dasharray="10.602800876336023,60.08253829923746" stroke-dashoffset="70.685339"/><path d="M3101.2 11.6l5.27 5.27 9.84-8.76" stroke="#6495ed"/></g><g fill="#ffffff" stroke-miterlimit="10"><path d="M3132 .75c-2.983 0-5.846 1.186-7.955 3.295s-3.295 4.972-3.295 7.955c0 2.983 1.186 5.846 3.295 7.955s4.972 3.295 7.955 3.295c2.983 0 5.846-1.186 7.955-3.295s3.295-4.972 3.295-7.955c0-2.983-1.186-5.846-3.295-7.955S3134.983.75 3132 .75z" stroke="#111927" stroke-dasharray="11.78088986259557,58.90444931297792" stroke-dashoffset="70.685339"/><path d="M3125.2 11.6l5.27 5.27 9.84-8.76" stroke="#6495ed"/></g><g fill="#ffffff" stroke-miterlimit="10"><path d="M3156 .75c-2.983 0-5.846 1.186-7.955 3.295s-3.295 4.972-3.295 7.955c0 2.983 1.186 5.846 3.295 7.955s4.972 3.295 7.955 3.295c2.983 0 5.846-1.186 7.955-3.295s3.295-4.972 3.295-7.955c0-2.983-1.186-5.846-3.295-7.955S3158.983.75 3156 .75z" stroke="#121b2b" stroke-dasharray="12.95897884885512,57.72636032671837" stroke-dashoffset="70.685339"/><path d="M3149.2 11.6l5.27 5.27 9.84-8.76" stroke="#6495ed"/></g><g fill="#ffffff" stroke-miterlimit="10"><path d="M3180 .75c-2.983 0-5.846 1.186-7.955 3.295s-3.295 4.972-3.295 7.955c0 2.983 1.186 5.846 3.295 7.955s4.972 3.295 7.955 3.295c2.983 0 5.846-1.186 7.955-3.295s3.295-4.972 3.295-7.955c0-2.983-1.186-5.846-3.295-7.955S3182.983.75 3180 .75z" stroke="#141e2f" stroke-dasharray="14.1370678351147,56.5482713404588" stroke-dashoffset="70.685339"/><path d="M3173.2 11.6l5.27 5.27 9.84-8.76" stroke="#6495ed"/></g><g fill="#ffffff" stroke-miterlimit="10"><path d="M3204 .75c-2.983 0-5.846 1.186-7.955 3.295s-3.295 4.972-3.295 7.955c0 2.983 1.186 5.846 3.295 7.955s4.972 3.295 7.955 3.295c2.983 0 5.846-1.186 7.955-3.295s3.295-4.972 3.295-7.955c0-2.983-1.186-5.846-3.295-7.955S3206.983.75 3204 .75z" stroke="#162033" stroke-dasharray="15.315156821374279,55.37018235419921" stroke-dashoffset="70.685339"/><path d="M3197.2 11.6l5.27 5.27 9.84-8.76" stroke="#6495ed"/></g><g fill="#ffffff" stroke-miterlimit="10"><path d="M3228 .75c-2.983 0-5.846 1.186-7.955 3.295s-3.295 4.972-3.295 7.955c0 2.983 1.186 5.846 3.295 7.955s4.972 3.295 7.955 3.295c2.983 0 5.846-1.186 7.955-3.295s3.295-4.972 3.295-7.955c0-2.983-1.186-5.846-3.295-7.955S3230.983.75 3228 .75z" stroke="#172337" stroke-dasharray="16.493245807633823,54.19209336793966" stroke-dashoffset="70.685339"/><path d="M3221.2 11.6l5.27 5.27 9.84-8.76" stroke="#6495ed"/></g><g fill="#ffffff" stroke-miterlimit="10"><path d="M3252 .75c-2.983 0-5.846 1.186-7.955 3.295s-3.295 4.972-3.295 7.955c0 2.983 1.186 5.846 3.295 7.955s4.972 3.295 7.955 3.295c2.983 0 5.846-1.186 7.955-3.295s3.295-4.972 3.295-7.955c0-2.983-1.186-5.846-3.295-7.955S3254.983.75 3252 .75z" stroke="#19253b" stroke-dasharray="17.671334793893372,53.01400438168012" stroke-dashoffset="70.685339"/><path d="M3245.2 11.6l5.27 5.27 9.84-8.76" stroke="#6495ed"/></g><g fill="#ffffff" stroke-miterlimit="10"><path d="M3276 .75c-2.983 0-5.846 1.186-7.955 3.295s-3.295 4.972-3.295 7.955c0 2.983 1.186 5.846 3.295 7.955s4.972 3.295 7.955 3.295c2.983 0 5.846-1.186 7.955-3.295s3.295-4.972 3.295-7.955c0-2.983-1.186-5.846-3.295-7.955S3278.983.75 3276 .75z" stroke="#1b283f" stroke-dasharray="18.849423780152918,51.83591539542057" stroke-dashoffset="70.685339"/><path d="M3269.2 11.6l5.27 5.27 9.84-8.76" stroke="#6495ed"/></g><g fill="#ffffff" stroke-miterlimit="10"><path d="M3300 .75c-2.983 0-5.846 1.186-7.955 3.295s-3.295 4.972-3.295 7.955c0 2.983 1.186 5.846 3.295 7.955s4.972 3.295 7.955 3.295c2.983 0 5.846-1.186 7.955-3.295s3.295-4.972 3.295-7.955c0-2.983-1.186-5.846-3.295-7.955S3302.983.75 3300 .75z" stroke="#1c2a43" stroke-dasharray="20.027512766412467,50.657826409161025" stroke-dashoffset="70.685339"/><path d="M3293.2 11.6l5.27 5.27 9.84-8.76" stroke="#6495ed"/></g><g fill="#ffffff" stroke-miterlimit="10"><path d="M3324 .75c-2.983 0-5.846 1.186-7.955 3.295s-3.295 4.972-3.295 7.955c0 2.983 1.186 5.846 3.295 7.955s4.972 3.295 7.955 3.295c2.983 0 5.846-1.186 7.955-3.295s3.295-4.972 3.295-7.955c0-2.983-1.186-5.846-3.295-7.955S3326.983.75 3324 .75z" stroke="#1e2d47" stroke-dasharray="21.205601752672045,49.47973742290144" stroke-dashoffset="70.685339"/><path d="M3317.2 11.6l5.27 5.27 9.84-8.76" stroke="#6495ed"/></g><g fill="#ffffff" stroke-miterlimit="10"><path d="M3348 .75c-2.983 0-5.846 1.186-7.955 3.295s-3.295 4.972-3.295 7.955c0 2.983 1.186 5.846 3.295 7.955s4.972 3.295 7.955 3.295c2.983 0 5.846-1.186 7.955-3.295s3.295-4.972 3.295-7.955c0-2.983-1.186-5.846-3.295-7.955S3350.983.75 3348 .75z" stroke="#202f4b" stroke-dasharray="22.383690738931627,48.30164843664186" stroke-dashoffset="70.685339"/><path d="M3341.2 11.6l5.27 5.27 9.84-8.76" stroke="#6495ed"/></g><g fill="#ffffff" stroke-miterlimit="10"><path d="M3372 .75c-2.983 0-5.846 1.186-7.955 3.295s-3.295 4.972-3.295 7.955c0 2.983 1.186 5.846 3.295 7.955s4.972 3.295 7.955 3.295c2.983 0 5.846-1.186 7.955-3.295s3.295-4.972 3.295-7.955c0-2.983-1.186-5.846-3.295-7.955S3374.983.75 3372 .75z" stroke="#21324f" stroke-dasharray="23.561779725191172,47.12355945038232" stroke-dashoffset="70.685339"/><path d="M3365.2 11.6l5.27 5.27 9.84-8.76" stroke="#6495ed"/></g><g fill="#ffffff" stroke-miterlimit="10"><path d="M3396 .75c-2.983 0-5.846 1.186-7.955 3.295s-3.295 4.972-3.295 7.955c0 2.983 1.186 5.846 3.295 7.955s4.972 3.295 7.955 3.295c2.983 0 5.846-1.186 7.955-3.295s3.295-4.972 3.295-7.955c0-2.983-1.186-5.846-3.295-7.955S3398.983.75 3396 .75z" stroke="#233453" stroke-dasharray="24.73986871145072,45.94547046412277" stroke-dashoffset="70.685339"/><path d="M3389.2 11.6l5.27 5.27 9.84-8.76" stroke="#6495ed"/></g><g fill="#ffffff" stroke-miterlimit="10"><path d="M3420 .75c-2.983 0-5.846 1.186-7.955 3.295s-3.295 4.972-3.295 7.955c0 2.983 1.186 5.846 3.295 7.955s4.972 3.295 7.955 3.295c2.983 0 5.846-1.186 7.955-3.295s3.295-4.972 3.295-7.955c0-2.983-1.186-5.846-3.295-7.955S3422.983.75 3420 .75z" stroke="#253757" stroke-dasharray="25.91795769771027,44.767381477863225" stroke-dashoffset="70.685339"/><path d="M3413.2 11.6l5.27 5.27 9.84-8.76" stroke="#6495ed"/></g><g fill="#ffffff" stroke-miterlimit="10"><path d="M3444 .75c-2.983 0-5.846 1.186-7.955 3.295s-3.295 4.972-3.295 7.955c0 2.983 1.186 5.846 3.295 7.955s4.972 3.295 7.955 3.295c2.983 0 5.846-1.186 7.955-3.295s3.295-4.972 3.295-7.955c0-2.983-1.186-5.846-3.295-7.955S3446.983.75 3444 .75z" stroke="#26395b" stroke-dasharray="27.096046683969817,43.58929249160367" stroke-dashoffset="70.685339"/><path d="M3437.2 11.6l5.27 5.27 9.84-8.76" stroke="#6495ed"/></g><g fill="#ffffff" stroke-miterlimit="10"><path d="M3468 .75c-2.983 0-5.846 1.186-7.955 3.295s-3.295 4.972-3.295 7.955c0 2.983 1.186 5.846 3.295 7.955s4.972 3.295 7.955 3.295c2.983 0 5.846-1.186 7.955-3.295s3.295-4.972 3.295-7.955c0-2.983-1.186-5.846-3.295-7.955S3470.983.75 3468 .75z" stroke="#283c5f" stroke-dasharray="28.2741356702294,42.41120350534409" stroke-dashoffset="70.685339"/><path d="M3461.2 11.6l5.27 5.27 9.84-8.76" stroke="#6495ed"/></g><g fill="#ffffff" stroke-miterlimit="10"><path d="M3492 .75c-2.983 0-5.846 1.186-7.955 3.295s-3.295 4.972-3.295 7.955c0 2.983 1.186 5.846 3.295 7.955s4.972 3.295 7.955 3.295c2.983 0 5.846-1.186 7.955-3.295s3.295-4.972 3.295-7.955c0-2.983-1.186-5.846-3.295-7.955S3494.983.75 3492 .75z" stroke="#2a3e63" stroke-dasharray="29.452224656488944,41.233114519084545" stroke-dashoffset="70.685339"/><path d="M3485.2 11.6l5.27 5.27 9.84-8.76" stroke="#6495ed"/></g><g fill="#ffffff" stroke-miterlimit="10"><path d="M3516 .75c-2.983 0-5.846 1.186-7.955 3.295s-3.295 4.972-3.295 7.955c0 2.983 1.186 5.846 3.295 7.955s4.972 3.295 7.955 3.295c2.983 0 5.846-1.186 7.955-3.295s3.295-4.972 3.295-7.955c0-2.983-1.186-5.846-3.295-7.955S3518.983.75 3516 .75z" stroke="#2b4167" stroke-dasharray="30.630313642748522,40.05502553282497" stroke-dashoffset="70.685339"/><path d="M3509.2 11.6l5.27 5.27 9.84-8.76" stroke="#6495ed"/></g><g fill="#ffffff" stroke-miterlimit="10"><path d="M3540 .75c-2.983 0-5.846 1.186-7.955 3.295s-3.295 4.972-3.295 7.955c0 2.983 1.186 5.846 3.295 7.955s4.972 3.295 7.955 3.295c2.983 0 5.846-1.186 7.955-3.295s3.295-4.972 3.295-7.955c0-2.983-1.186-5.846-3.295-7.955S3542.983.75 3540 .75z" stroke="#2d436b" stroke-dasharray="31.80840262900807,38.876936546565425" stroke-dashoffset="70.685339"/><path d="M3533.2 11.6l5.27 5.27 9.84-8.76" stroke="#6495ed"/></g><g fill="#ffffff" stroke-miterlimit="10"><path d="M3564 .75c-2.983 0-5.846 1.186-7.955 3.295s-3.295 4.972-3.295 7.955c0 2.983 1.186 5.846 3.295 7.955s4.972 3.295 7.955 3.295c2.983 0 5.846-1.186 7.955-3.295s3.295-4.972 3.295-7.955c0-2.983-1.186-5.846-3.295-7.955S3566.983.75 3564 .75z" stroke="#2f466f" stroke-dasharray="32.98649161526762,37.698847560305865" stroke-dashoffset="70.685339"/><path d="M3557.2 11.6l5.27 5.27 9.84-8.76" stroke="#6495ed"/></g><g fill="#ffffff" stroke-miterlimit="10"><path d="M3588 .75c-2.983 0-5.846 1.186-7.955 3.295s-3.295 4.972-3.295 7.955c0 2.983 1.186 5.846 3.295 7.955s4.972 3.295 7.955 3.295c2.983 0 5.846-1.186 7.955-3.295s3.295-4.972 3.295-7.955c0-2.983-1.186-5.846-3.295-7.955S3590.983.75 3588 .75z" stroke="#304873" stroke-dasharray="34.16458060152716,36.52075857404633" stroke-dashoffset="70.685339"/><path d="M3581.2 11.6l5.27 5.27 9.84-8.76" stroke="#6495ed"/></g><g fill="#ffffff" stroke-miterlimit="10"><path d="M3612 .75c-2.983 0-5.846 1.186-7.955 3.295s-3.295 4.972-3.295 7.955c0 2.983 1.186 5.846 3.295 7.955s4.972 3.295 7.955 3.295c2.983 0 5.846-1.186 7.955-3.295s3.295-4.972 3.295-7.955c0-2.983-1.186-5.846-3.295-7.955S3614.983.75 3612 .75z" stroke="#324b77" stroke-dasharray="35.342669587786745,35.342669587786745" stroke-dashoffset="70.685339"/><path d="M3605.2 11.6l5.27 5.27 9.84-8.76" stroke="#6495ed"/></g><g fill="#ffffff" stroke-miterlimit="10"><path d="M3636 .75c-2.983 0-5.846 1.186-7.955 3.295s-3.295 4.972-3.295 7.955c0 2.983 1.186 5.846 3.295 7.955s4.972 3.295 7.955 3.295c2.983 0 5.846-1.186 7.955-3.295s3.295-4.972 3.295-7.955c0-2.983-1.186-5.846-3.295-7.955S3638.983.75 3636 .75z" stroke="#344d7a" stroke-dasharray="36.52075857404629,34.1645806015272" stroke-dashoffset="70.685339"/><path d="M3629.2 11.6l5.27 5.27 9.84-8.76" stroke="#6495ed"/></g><g fill="#ffffff" stroke-miterlimit="10"><path d="M3660 .75c-2.983 0-5.846 1.186-7.955 3.295s-3.295 4.972-3.295 7.955c0 2.983 1.186 5.846 3.295 7.955s4.972 3.295 7.955 3.295c2.983 0 5.846-1.186 7.955-3.295s3.295-4.972 3.295-7.955c0-2.983-1.186-5.846-3.295-7.955S3662.983.75 3660 .75z" stroke="#354f7e" stroke-dasharray="37.698847560305865,32.986491615267624" stroke-dashoffset="70.685339"/><path d="M3653.2 11.6l5.27 5.27 9.84-8.76" stroke="#6495ed"/></g><g fill="#ffffff" stroke-miterlimit="10"><path d="M3684 .75c-2.983 0-5.846 1.186-7.955 3.295s-3.295 4.972-3.295 7.955c0 2.983 1.186 5.846 3.295 7.955s4.972 3.295 7.955 3.295c2.983 0 5.846-1.186 7.955-3.295s3.295-4.972 3.295-7.955c0-2.983-1.186-5.846-3.295-7.955S3686.983.75 3684 .75z" stroke="#375282" stroke-dasharray="38.876936546565425,31.808402629008068" stroke-dashoffset="70.685339"/><path d="M3677.2 11.6l5.27 5.27 9.84-8.76" stroke="#6495ed"/></g><g fill="#ffffff" stroke-miterlimit="10"><path d="M3708 .75c-2.983 0-5.846 1.186-7.955 3.295s-3.295 4.972-3.295 7.955c0 2.983 1.186 5.846 3.295 7.955s4.972 3.295 7.955 3.295c2.983 0 5.846-1.186 7.955-3.295s3.295-4.972 3.295-7.955c0-2.983-1.186-5.846-3.295-7.955S3710.983.75 3708 .75z" stroke="#395486" stroke-dasharray="40.05502553282497,30.630313642748522" stroke-dashoffset="70.685339"/><path d="M3701.2 11.6l5.27 5.27 9.84-8.76" stroke="#6495ed"/></g><g fill="#ffffff" stroke-miterlimit="10"><path d="M3732 .75c-2.983 0-5.846 1.186-7.955 3.295s-3.295 4.972-3.295 7.955c0 2.983 1.186 5.846 3.295 7.955s4.972 3.295 7.955 3.295c2.983 0 5.846-1.186 7.955-3.295s3.295-4.972 3.295-7.955c0-2.983-1.186-5.846-3.295-7.955S3734.983.75 3732 .75z" stroke="#3a578a" stroke-dasharray="41.233114519084545,29.452224656488944" stroke-dashoffset="70.685339"/><path d="M3725.2 11.6l5.27 5.27 9.84-8.76" stroke="#6495ed"/></g><g fill="#ffffff" stroke-miterlimit="10"><path d="M3756 .75c-2.983 0-5.846 1.186-7.955 3.295s-3.295 4.972-3.295 7.955c0 2.983 1.186 5.846 3.295 7.955s4.972 3.295 7.955 3.295c2.983 0 5.846-1.186 7.955-3.295s3.295-4.972 3.295-7.955c0-2.983-1.186-5.846-3.295-7.955S3758.983.75 3756 .75z" stroke="#3c598e" stroke-dasharray="42.41120350534409,28.2741356702294" stroke-dashoffset="70.685339"/><path d="M3749.2 11.6l5.27 5.27 9.84-8.76" stroke="#6495ed"/></g><g fill="#ffffff" stroke-miterlimit="10"><path d="M3780 .75c-2.983 0-5.846 1.186-7.955 3.295s-3.295 4.972-3.295 7.955c0 2.983 1.186 5.846 3.295 7.955s4.972 3.295 7.955 3.295c2.983 0 5.846-1.186 7.955-3.295s3.295-4.972 3.295-7.955c0-2.983-1.186-5.846-3.295-7.955S3782.983.75 3780 .75z" stroke="#3e5c92" stroke-dasharray="43.589292491603636,27.096046683969853" stroke-dashoffset="70.685339"/><path d="M3773.2 11.6l5.27 5.27 9.84-8.76" stroke="#6495ed"/></g><g fill="#ffffff" stroke-miterlimit="10"><path d="M3804 .75c-2.983 0-5.846 1.186-7.955 3.295s-3.295 4.972-3.295 7.955c0 2.983 1.186 5.846 3.295 7.955s4.972 3.295 7.955 3.295c2.983 0 5.846-1.186 7.955-3.295s3.295-4.972 3.295-7.955c0-2.983-1.186-5.846-3.295-7.955S3806.983.75 3804 .75z" stroke="#3f5e96" stroke-dasharray="44.767381477863225,25.917957697710264" stroke-dashoffset="70.685339"/><path d="M3797.2 11.6l5.27 5.27 9.84-8.76" stroke="#6495ed"/></g><g fill="#ffffff" stroke-miterlimit="10"><path d="M3828 .75c-2.983 0-5.846 1.186-7.955 3.295s-3.295 4.972-3.295 7.955c0 2.983 1.186 5.846 3.295 7.955s4.972 3.295 7.955 3.295c2.983 0 5.846-1.186 7.955-3.295s3.295-4.972 3.295-7.955c0-2.983-1.186-5.846-3.295-7.955S3830.983.75 3828 .75z" stroke="#41619a" stroke-dasharray="45.94547046412277,24.73986871145072" stroke-dashoffset="70.685339"/><path d="M3821.2 11.6l5.27 5.27 9.84-8.76" stroke="#6495ed"/></g><g fill="#ffffff" stroke-miterlimit="10"><path d="M3852 .75c-2.983 0-5.846 1.186-7.955 3.295s-3.295 4.972-3.295 7.955c0 2.983 1.186 5.846 3.295 7.955s4.972 3.295 7.955 3.295c2.983 0 5.846-1.186 7.955-3.295s3.295-4.972 3.295-7.955c0-2.983-1.186-5.846-3.295-7.955S3854.983.75 3852 .75z" stroke="#43639e" stroke-dasharray="47.12355945038232,23.561779725191172" stroke-dashoffset="70.685339"/><path d="M3845.2 11.6l5.27 5.27 9.84-8.76" stroke="#6495ed"/></g><g fill="#ffffff" stroke-miterlimit="10"><path d="M3876 .75c-2.983 0-5.846 1.186-7.955 3.295s-3.295 4.972-3.295 7.955c0 2.983 1.186 5.846 3.295 7.955s4.972 3.295 7.955 3.295c2.983 0 5.846-1.186 7.955-3.295s3.295-4.972 3.295-7.955c0-2.983-1.186-5.846-3.295-7.955S3878.983.75 3876 .75z" stroke="#4466a2" stroke-dasharray="48.30164843664189,22.383690738931595" stroke-dashoffset="70.685339"/><path d="M3869.2 11.6l5.27 5.27 9.84-8.76" stroke="#6495ed"/></g><g fill="#ffffff" stroke-miterlimit="10"><path d="M3900 .75c-2.983 0-5.846 1.186-7.955 3.295s-3.295 4.972-3.295 7.955c0 2.983 1.186 5.846 3.295 7.955s4.972 3.295 7.955 3.295c2.983 0 5.846-1.186 7.955-3.295s3.295-4.972 3.295-7.955c0-2.983-1.186-5.846-3.295-7.955S3902.983.75 3900 .75z" stroke="#4668a6" stroke-dasharray="49.47973742290144,21.20560175267205" stroke-dashoffset="70.685339"/><path d="M3893.2 11.6l5.27 5.27 9.84-8.76" stroke="#6495ed"/></g><g fill="#ffffff" stroke-miterlimit="10"><path d="M3924 .75c-2.983 0-5.846 1.186-7.955 3.295s-3.295 4.972-3.295 7.955c0 2.983 1.186 5.846 3.295 7.955s4.972 3.295 7.955 3.295c2.983 0 5.846-1.186 7.955-3.295s3.295-4.972 3.295-7.955c0-2.983-1.186-5.846-3.295-7.955S3926.983.75 3924 .75z" stroke="#486baa" stroke-dasharray="50.657826409161,20.027512766412496" stroke-dashoffset="70.685339"/><path d="M3917.2 11.6l5.27 5.27 9.84-8.76" stroke="#6495ed"/></g><g fill="#ffffff" stroke-miterlimit="10"><path d="M3948 .75c-2.983 0-5.846 1.186-7.955 3.295s-3.295 4.972-3.295 7.955c0 2.983 1.186 5.846 3.295 7.955s4.972 3.295 7.955 3.295c2.983 0 5.846-1.186 7.955-3.295s3.295-4.972 3.295-7.955c0-2.983-1.186-5.846-3.295-7.955S3950.983.75 3948 .75z" stroke="#496dae" stroke-dasharray="51.83591539542057,18.849423780152918" stroke-dashoffset="70.685339"/><path d="M3941.2 11.6l5.27 5.27 9.84-8.76" stroke="#6495ed"/></g><g fill="#ffffff" stroke-miterlimit="10"><path d="M3972 .75c-2.983 0-5.846 1.186-7.955 3.295s-3.295 4.972-3.295 7.955c0 2.983 1.186 5.846 3.295 7.955s4.972 3.295 7.955 3.295c2.983 0 5.846-1.186 7.955-3.295s3.295-4.972 3.295-7.955c0-2.983-1.186-5.846-3.295-7.955S3974.983.75 3972 .75z" stroke="#4b70b2" stroke-dasharray="53.01400438168012,17.671334793893372" stroke-dashoffset="70.685339"/><path d="M3965.2 11.6l5.27 5.27 9.84-8.76" stroke="#6495ed"/></g><g fill="#ffffff" stroke-miterlimit="10"><path d="M3996 .75c-2.983 0-5.846 1.186-7.955 3.295s-3.295 4.972-3.295 7.955c0 2.983 1.186 5.846 3.295 7.955s4.972 3.295 7.955 3.295c2.983 0 5.846-1.186 7.955-3.295s3.295-4.972 3.295-7.955c0-2.983-1.186-5.846-3.295-7.955S3998.983.75 3996 .75z" stroke="#4d72b6" stroke-dasharray="54.19209336793969,16.493245807633794" stroke-dashoffset="70.685339"/><path d="M3989.2 11.6l5.27 5.27 9.84-8.76" stroke="#6495ed"/></g><g fill="#ffffff" stroke-miterlimit="10"><path d="M4020 .75c-2.983 0-5.846 1.186-7.955 3.295s-3.295 4.972-3.295 7.955c0 2.983 1.186 5.846 3.295 7.955s4.972 3.295 7.955 3.295c2.983 0 5.846-1.186 7.955-3.295s3.295-4.972 3.295-7.955c0-2.983-1.186-5.846-3.295-7.955S4022.983.75 4020 .75z" stroke="#4e75ba" stroke-dasharray="55.37018235419924,15.315156821374249" stroke-dashoffset="70.685339"/><path d="M4013.2 11.6l5.27 5.27 9.84-8.76" stroke="#6495ed"/></g><g fill="#ffffff" stroke-miterlimit="10"><path d="M4044 .75c-2.983 0-5.846 1.186-7.955 3.295s-3.295 4.972-3.295 7.955c0 2.983 1.186 5.846 3.295 7.955s4.972 3.295 7.955 3.295c2.983 0 5.846-1.186 7.955-3.295s3.295-4.972 3.295-7.955c0-2.983-1.186-5.846-3.295-7.955S4046.983.75 4044 .75z" stroke="#5077be" stroke-dasharray="56.5482713404588,14.137067835114694" stroke-dashoffset="70.685339"/><path d="M4037.2 11.6l5.27 5.27 9.84-8.76" stroke="#6495ed"/></g><g fill="#ffffff" stroke-miterlimit="10"><path d="M4068 .75c-2.983 0-5.846 1.186-7.955 3.295s-3.295 4.972-3.295 7.955c0 2.983 1.186 5.846 3.295 7.955s4.972 3.295 7.955 3.295c2.983 0 5.846-1.186 7.955-3.295s3.295-4.972 3.295-7.955c0-2.983-1.186-5.846-3.295-7.955S4070.983.75 4068 .75z" stroke="#527ac2" stroke-dasharray="57.72636032671834,12.958978848855148" stroke-dashoffset="70.685339"/><path d="M4061.2 11.6l5.27 5.27 9.84-8.76" stroke="#6495ed"/></g><g fill="#ffffff" stroke-miterlimit="10"><path d="M4092 .75c-2.983 0-5.846 1.186-7.955 3.295s-3.295 4.972-3.295 7.955c0 2.983 1.186 5.846 3.295 7.955s4.972 3.295 7.955 3.295c2.983 0 5.846-1.186 7.955-3.295s3.295-4.972 3.295-7.955c0-2.983-1.186-5.846-3.295-7.955S4094.983.75 4092 .75z" stroke="#537cc6" stroke-dasharray="58.90444931297792,11.78088986259557" stroke-dashoffset="70.685339"/><path d="M4085.2 11.6l5.27 5.27 9.84-8.76" stroke="#6495ed"/></g><g fill="#ffffff" stroke-miterlimit="10"><path d="M4116 .75c-2.983 0-5.846 1.186-7.955 3.295s-3.295 4.972-3.295 7.955c0 2.983 1.186 5.846 3.295 7.955s4.972 3.295 7.955 3.295c2.983 0 5.846-1.186 7.955-3.295s3.295-4.972 3.295-7.955c0-2.983-1.186-5.846-3.295-7.955S4118.983.75 4116 .75z" stroke="#557fc9" stroke-dasharray="60.08253829923746,10.602800876336024" stroke-dashoffset="70.685339"/><path d="M4109.2 11.6l5.27 5.27 9.84-8.76" stroke="#6495ed"/></g><g fill="#ffffff" stroke-miterlimit="10"><path d="M4140 .75c-2.983 0-5.846 1.186-7.955 3.295s-3.295 4.972-3.295 7.955c0 2.983 1.186 5.846 3.295 7.955s4.972 3.295 7.955 3.295c2.983 0 5.846-1.186 7.955-3.295s3.295-4.972 3.295-7.955c0-2.983-1.186-5.846-3.295-7.955S4142.983.75 4140 .75z" stroke="#5781cd" stroke-dasharray="61.260627285497044,9.424711890076447" stroke-dashoffset="70.685339"/><path d="M4133.2 11.6l5.27 5.27 9.84-8.76" stroke="#6495ed"/></g><g fill="#ffffff" stroke-miterlimit="10"><path d="M4164 .75c-2.983 0-5.846 1.186-7.955 3.295s-3.295 4.972-3.295 7.955c0 2.983 1.186 5.846 3.295 7.955s4.972 3.295 7.955 3.295c2.983 0 5.846-1.186 7.955-3.295s3.295-4.972 3.295-7.955c0-2.983-1.186-5.846-3.295-7.955S4166.983.75 4164 .75z" stroke="#5884d1" stroke-dasharray="62.4387162717566,8.246622903816894" stroke-dashoffset="70.685339"/><path d="M4157.2 11.6l5.27 5.27 9.84-8.76" stroke="#6495ed"/></g><g fill="#ffffff" stroke-miterlimit="10"><path d="M4188 .75c-2.983 0-5.846 1.186-7.955 3.295s-3.295 4.972-3.295 7.955c0 2.983 1.186 5.846 3.295 7.955s4.972 3.295 7.955 3.295c2.983 0 5.846-1.186 7.955-3.295s3.295-4.972 3.295-7.955c0-2.983-1.186-5.846-3.295-7.955S4190.983.75 4188 .75z" stroke="#5a86d5" stroke-dasharray="63.61680525801614,7.068533917557347" stroke-dashoffset="70.685339"/><path d="M4181.2 11.6l5.27 5.27 9.84-8.76" stroke="#6495ed"/></g><g fill="#ffffff" stroke-miterlimit="10"><path d="M4212 .75c-2.983 0-5.846 1.186-7.955 3.295s-3.295 4.972-3.295 7.955c0 2.983 1.186 5.846 3.295 7.955s4.972 3.295 7.955 3.295c2.983 0 5.846-1.186 7.955-3.295s3.295-4.972 3.295-7.955c0-2.983-1.186-5.846-3.295-7.955S4214.983.75 4212 .75z" stroke="#5c89d9" stroke-dasharray="64.79489424427568,5.890444931297801" stroke-dashoffset="70.685339"/><path d="M4205.2 11.6l5.27 5.27 9.84-8.76" stroke="#6495ed"/></g><g fill="#ffffff" stroke-miterlimit="10"><path d="M4236 .75c-2.983 0-5.846 1.186-7.955 3.295s-3.295 4.972-3.295 7.955c0 2.983 1.186 5.846 3.295 7.955s4.972 3.295 7.955 3.295c2.983 0 5.846-1.186 7.955-3.295s3.295-4.972 3.295-7.955c0-2.983-1.186-5.846-3.295-7.955S4238.983.75 4236 .75z" stroke="#5d8bdd" stroke-dasharray="65.97298323053523,4.712355945038255" stroke-dashoffset="70.685339"/><path d="M4229.2 11.6l5.27 5.27 9.84-8.76" stroke="#6495ed"/></g><g fill="#ffffff" stroke-miterlimit="10"><path d="M4260 .75c-2.983 0-5.846 1.186-7.955 3.295s-3.295 4.972-3.295 7.955c0 2.983 1.186 5.846 3.295 7.955s4.972 3.295 7.955 3.295c2.983 0 5.846-1.186 7.955-3.295s3.295-4.972 3.295-7.955c0-2.983-1.186-5.846-3.295-7.955S4262.983.75 4260 .75z" stroke="#5f8ee1" stroke-dasharray="67.15107221679482,3.5342669587786775" stroke-dashoffset="70.685339"/><path d="M4253.2 11.6l5.27 5.27 9.84-8.76" stroke="#6495ed"/></g><g fill="#ffffff" stroke-miterlimit="10"><path d="M4284 .75c-2.983 0-5.846 1.186-7.955 3.295s-3.295 4.972-3.295 7.955c0 2.983 1.186 5.846 3.295 7.955s4.972 3.295 7.955 3.295c2.983 0 5.846-1.186 7.955-3.295s3.295-4.972 3.295-7.955c0-2.983-1.186-5.846-3.295-7.955S4286.983.75 4284 .75z" stroke="#6190e5" stroke-dasharray="68.3291612030544,2.356177972519092" stroke-dashoffset="70.685339"/><path d="M4277.2 11.6l5.27 5.27 9.84-8.76" stroke="#6495ed"/></g><g fill="#ffffff" stroke-miterlimit="10"><path d="M4308 .75c-2.983 0-5.846 1.186-7.955 3.295s-3.295 4.972-3.295 7.955c0 2.983 1.186 5.846 3.295 7.955s4.972 3.295 7.955 3.295c2.983 0 5.846-1.186 7.955-3.295s3.295-4.972 3.295-7.955c0-2.983-1.186-5.846-3.295-7.955S4310.983.75 4308 .75z" stroke="#6293e9" stroke-dasharray="69.50725018931394,1.178088986259546" stroke-dashoffset="70.685339"/><path d="M4301.2 11.6l5.27 5.27 9.84-8.76" stroke="#6495ed"/></g><g fill="#ffffff" stroke="#6495ed" stroke-miterlimit="10"><path d="M4332 .75c-2.983 0-5.846 1.186-7.955 3.295s-3.295 4.972-3.295 7.955c0 2.983 1.186 5.846 3.295 7.955s4.972 3.295 7.955 3.295c2.983 0 5.846-1.186 7.955-3.295s3.295-4.972 3.295-7.955c0-2.983-1.186-5.846-3.295-7.955S4334.983.75 4332 .75z"/><path d="M4325.2 11.6l5.27 5.27 9.84-8.76"/></g></svg>