<svg xmlns="http://www.w3.org/2000/svg" viewBox="0 0 2184 24" width="2184" height="24"><g fill="#ffffff" stroke="#000000" stroke-miterlimit="10"><path d="M12.2.9c-2.323 0-4.587.736-6.466 2.101-1.879 1.365-3.278 3.291-3.996 5.5-.717 2.209-.717 4.589 0 6.798.718 2.209 2.117 4.135 3.996 5.5C7.613 22.164 9.877 22.9 12.2 22.9c2.323 0 4.587-.736 6.466-2.101 1.879-1.365 3.278-3.291 3.996-5.5.717-2.209.717-4.589 0-6.798-.718-2.209-2.117-4.135-3.996-5.5C16.787 1.636 14.523.9 12.2.9z" stroke-dasharray="0,69.11513035154678" stroke-dashoffset="69.11513"/><path d="M4.3 12.8l5.6 5.6L20.8 7.5" stroke-dasharray="0,23.334523779156065" stroke-dashoffset="23.334524"/></g><g fill="#ffffff" stroke="#000000" stroke-miterlimit="10"><path d="M36.2.9c-2.323 0-4.587.736-6.466 2.101-1.879 1.365-3.278 3.291-3.996 5.5-.717 2.209-.717 4.589 0 6.798.718 2.209 2.117 4.135 3.996 5.5 1.879 1.365 4.143 2.101 6.466 2.101 2.323 0 4.587-.736 6.466-2.101 1.879-1.365 3.278-3.291 3.996-5.5.717-2.209.717-4.589 0-6.798-.718-2.209-2.117-4.135-3.996-5.5C40.787 1.636 38.523.9 36.2.9z" stroke-dasharray="0,69.11513035154678" stroke-dashoffset="69.11513"/><path d="M28.3 12.8l5.6 5.6L44.8 7.5" stroke-dasharray="0.013956402065083074,23.32056737709098" stroke-dashoffset="23.334524"/></g><g fill="#ffffff" stroke-miterlimit="10"><path d="M60.2.9c-2.323 0-4.587.736-6.466 2.101-1.879 1.365-3.278 3.291-3.996 5.5-.717 2.209-.717 4.589 0 6.798.718 2.209 2.117 4.135 3.996 5.5 1.879 1.365 4.143 2.101 6.466 2.101 2.323 0 4.587-.736 6.466-2.101 1.879-1.365 3.278-3.291 3.996-5.5.717-2.209.717-4.589 0-6.798-.718-2.209-2.117-4.135-3.996-5.5C64.787 1.636 62.523.9 60.2.9z" stroke="#000000" stroke-dasharray="0,69.11513035154678" stroke-dashoffset="69.11513"/><path d="M52.3 12.8l5.6 5.6L68.8 7.5" stroke="#000001" stroke-dasharray="0.05776387564299726,23.276759903513067" stroke-dashoffset="23.334524"/></g><g fill="#ffffff" stroke-miterlimit="10"><path d="M84.2.9c-2.323 0-4.587.736-6.466 2.101-1.879 1.365-3.278 3.291-3.996 5.5-.717 2.209-.717 4.589 0 6.798.718 2.209 2.117 4.135 3.996 5.5 1.879 1.365 4.143 2.101 6.466 2.101 2.323 0 4.587-.736 6.466-2.101 1.879-1.365 3.278-3.291 3.996-5.5.717-2.209.717-4.589 0-6.798-.718-2.209-2.117-4.135-3.996-5.5C88.787 1.636 86.523.9 84.2.9z" stroke="#000000" stroke-dasharray="0,69.11513035154678" stroke-dashoffset="69.11513"/><path d="M76.3 12.8l5.6 5.6L92.8 7.5" stroke="#010101" stroke-dasharray="0.1346451546112963,23.19987862454477" stroke-dashoffset="23.334524"/></g><g fill="#ffffff" stroke-miterlimit="10"><path d="M108.2.9c-2.323 0-4.587.736-6.466 2.101-1.879 1.365-3.278 3.291-3.996 5.5-.717 2.209-.717 4.589 0 6.798.718 2.209 2.117 4.135 3.996 5.5 1.879 1.365 4.143 2.101 6.466 2.101 2.323 0 4.587-.736 6.466-2.101 1.879-1.365 3.278-3.291 3.996-5.5.717-2.209.717-4.589 0-6.798-.718-2.209-2.117-4.135-3.996-5.5C112.787 1.636 110.523.9 108.2.9z" stroke="#000000" stroke-dasharray="0,69.11513035154678" stroke-dashoffset="69.11513"/><path d="M100.3 12.8l5.6 5.6 10.9-10.9" stroke="#010203" stroke-dasharray="0.24829694724113147,23.08622683191493" stroke-dashoffset="23.334524"/></g><g fill="#ffffff" stroke-miterlimit="10"><path d="M132.2.9c-2.323 0-4.587.736-6.466 2.101-1.879 1.365-3.278 3.291-3.996 5.5-.717 2.209-.717 4.589 0 6.798.718 2.209 2.117 4.135 3.996 5.5 1.879 1.365 4.143 2.101 6.466 2.101 2.323 0 4.587-.736 6.466-2.101 1.879-1.365 3.278-3.291 3.996-5.5.717-2.209.717-4.589 0-6.798-.718-2.209-2.117-4.135-3.996-5.5C136.787 1.636 134.523.9 132.2.9z" stroke="#000000" stroke-dasharray="0,69.11513035154678" stroke-dashoffset="69.11513"/><path d="M124.3 12.8l5.6 5.6 10.9-10.9" stroke="#020304" stroke-dasharray="0.4029617147170007,22.931562064439063" stroke-dashoffset="23.334524"/></g><g fill="#ffffff" stroke-miterlimit="10"><path d="M156.2.9c-2.323 0-4.587.736-6.466 2.101-1.879 1.365-3.278 3.291-3.996 5.5-.717 2.209-.717 4.589 0 6.798.718 2.209 2.117 4.135 3.996 5.5 1.879 1.365 4.143 2.101 6.466 2.101 2.323 0 4.587-.736 6.466-2.101 1.879-1.365 3.278-3.291 3.996-5.5.717-2.209.717-4.589 0-6.798-.718-2.209-2.117-4.135-3.996-5.5C160.787 1.636 158.523.9 156.2.9z" stroke="#000000" stroke-dasharray="0,69.11513035154678" stroke-dashoffset="69.11513"/><path d="M148.3 12.8l5.6 5.6 10.9-10.9" stroke="#030406" stroke-dasharray="0.6035011359843439,22.731022643171723" stroke-dashoffset="23.334524"/></g><g fill="#ffffff" stroke-miterlimit="10"><path d="M180.2.9c-2.323 0-4.587.736-6.466 2.101-1.879 1.365-3.278 3.291-3.996 5.5-.717 2.209-.717 4.589 0 6.798.718 2.209 2.117 4.135 3.996 5.5 1.879 1.365 4.143 2.101 6.466 2.101 2.323 0 4.587-.736 6.466-2.101 1.879-1.365 3.278-3.291 3.996-5.5.717-2.209.717-4.589 0-6.798-.718-2.209-2.117-4.135-3.996-5.5C184.787 1.636 182.523.9 180.2.9z" stroke="#000000" stroke-dasharray="0,69.11513035154678" stroke-dashoffset="69.11513"/><path d="M172.3 12.8l5.6 5.6 10.9-10.9" stroke="#040509" stroke-dasharray="0.8554614824016203,22.479062296754442" stroke-dashoffset="23.334524"/></g><g fill="#ffffff" stroke-miterlimit="10"><path d="M204.2.9c-2.323 0-4.587.736-6.466 2.101-1.879 1.365-3.278 3.291-3.996 5.5-.717 2.209-.717 4.589 0 6.798.718 2.209 2.117 4.135 3.996 5.5 1.879 1.365 4.143 2.101 6.466 2.101 2.323 0 4.587-.736 6.466-2.101 1.879-1.365 3.278-3.291 3.996-5.5.717-2.209.717-4.589 0-6.798-.718-2.209-2.117-4.135-3.996-5.5C208.787 1.636 206.523.9 204.2.9z" stroke="#000000" stroke-dasharray="0,69.11513035154678" stroke-dashoffset="69.11513"/><path d="M196.3 12.8l5.6 5.6 10.9-10.9" stroke="#05070c" stroke-dasharray="1.1651116022584762,22.169412176897588" stroke-dashoffset="23.334524"/></g><g fill="#ffffff" stroke-miterlimit="10"><path d="M228.2.9c-2.323 0-4.587.736-6.466 2.101-1.879 1.365-3.278 3.291-3.996 5.5-.717 2.209-.717 4.589 0 6.798.718 2.209 2.117 4.135 3.996 5.5 1.879 1.365 4.143 2.101 6.466 2.101 2.323 0 4.587-.736 6.466-2.101 1.879-1.365 3.278-3.291 3.996-5.5.717-2.209.717-4.589 0-6.798-.718-2.209-2.117-4.135-3.996-5.5C232.787 1.636 230.523.9 228.2.9z" stroke="#000000" stroke-dasharray="0,69.11513035154678" stroke-dashoffset="69.11513"/><path d="M220.3 12.8l5.6 5.6 10.9-10.9" stroke="#070a10" stroke-dasharray="1.539418017343139,21.795105761812927" stroke-dashoffset="23.334524"/></g><g fill="#ffffff" stroke-miterlimit="10"><path d="M252.2.9c-2.323 0-4.587.736-6.466 2.101-1.879 1.365-3.278 3.291-3.996 5.5-.717 2.209-.717 4.589 0 6.798.718 2.209 2.117 4.135 3.996 5.5 1.879 1.365 4.143 2.101 6.466 2.101 2.323 0 4.587-.736 6.466-2.101 1.879-1.365 3.278-3.291 3.996-5.5.717-2.209.717-4.589 0-6.798-.718-2.209-2.117-4.135-3.996-5.5C256.787 1.636 254.523.9 252.2.9z" stroke="#000000" stroke-dasharray="0,69.11513035154678" stroke-dashoffset="69.11513"/><path d="M244.3 12.8l5.6 5.6 10.9-10.9" stroke="#090d14" stroke-dasharray="1.9858958842612708,21.348627894894793" stroke-dashoffset="23.334524"/></g><g fill="#ffffff" stroke-miterlimit="10"><path d="M276.2.9c-2.323 0-4.587.736-6.466 2.101-1.879 1.365-3.278 3.291-3.996 5.5-.717 2.209-.717 4.589 0 6.798.718 2.209 2.117 4.135 3.996 5.5 1.879 1.365 4.143 2.101 6.466 2.101 2.323 0 4.587-.736 6.466-2.101 1.879-1.365 3.278-3.291 3.996-5.5.717-2.209.717-4.589 0-6.798-.718-2.209-2.117-4.135-3.996-5.5C280.787 1.636 278.523.9 276.2.9z" stroke="#000000" stroke-dasharray="0,69.11513035154678" stroke-dashoffset="69.11513"/><path d="M268.3 12.8l5.6 5.6 10.9-10.9" stroke="#0b101a" stroke-dasharray="2.512238080534537,20.822285698621528" stroke-dashoffset="23.334524"/></g><g fill="#ffffff" stroke-miterlimit="10"><path d="M300.2.9c-2.323 0-4.587.736-6.466 2.101-1.879 1.365-3.278 3.291-3.996 5.5-.717 2.209-.717 4.589 0 6.798.718 2.209 2.117 4.135 3.996 5.5 1.879 1.365 4.143 2.101 6.466 2.101 2.323 0 4.587-.736 6.466-2.101 1.879-1.365 3.278-3.291 3.996-5.5.717-2.209.717-4.589 0-6.798-.718-2.209-2.117-4.135-3.996-5.5C304.787 1.636 302.523.9 300.2.9z" stroke="#000000" stroke-dasharray="0,69.11513035154678" stroke-dashoffset="69.11513"/><path d="M292.3 12.8l5.6 5.6 10.9-10.9" stroke="#0d1420" stroke-dasharray="3.125584208154753,20.20893957100131" stroke-dashoffset="23.334524"/></g><g fill="#ffffff" stroke-miterlimit="10"><path d="M324.2.9c-2.323 0-4.587.736-6.466 2.101-1.879 1.365-3.278 3.291-3.996 5.5-.717 2.209-.717 4.589 0 6.798.718 2.209 2.117 4.135 3.996 5.5 1.879 1.365 4.143 2.101 6.466 2.101 2.323 0 4.587-.736 6.466-2.101 1.879-1.365 3.278-3.291 3.996-5.5.717-2.209.717-4.589 0-6.798-.718-2.209-2.117-4.135-3.996-5.5C328.787 1.636 326.523.9 324.2.9z" stroke="#000000" stroke-dasharray="0,69.11513035154678" stroke-dashoffset="69.11513"/><path d="M316.3 12.8l5.6 5.6 10.9-10.9" stroke="#101827" stroke-dasharray="3.831275330819306,19.50324844833676" stroke-dashoffset="23.334524"/></g><g fill="#ffffff" stroke-miterlimit="10"><path d="M348.2.9c-2.323 0-4.587.736-6.466 2.101-1.879 1.365-3.278 3.291-3.996 5.5-.717 2.209-.717 4.589 0 6.798.718 2.209 2.117 4.135 3.996 5.5 1.879 1.365 4.143 2.101 6.466 2.101 2.323 0 4.587-.736 6.466-2.101 1.879-1.365 3.278-3.291 3.996-5.5.717-2.209.717-4.589 0-6.798-.718-2.209-2.117-4.135-3.996-5.5C352.787 1.636 350.523.9 348.2.9z" stroke="#000000" stroke-dasharray="0,69.11513035154678" stroke-dashoffset="69.11513"/><path d="M340.3 12.8l5.6 5.6 10.9-10.9" stroke="#141e2f" stroke-dasharray="4.63101764639602,18.703506132760044" stroke-dashoffset="23.334524"/></g><g fill="#ffffff" stroke-miterlimit="10"><path d="M372.2.9c-2.323 0-4.587.736-6.466 2.101-1.879 1.365-3.278 3.291-3.996 5.5-.717 2.209-.717 4.589 0 6.798.718 2.209 2.117 4.135 3.996 5.5 1.879 1.365 4.143 2.101 6.466 2.101 2.323 0 4.587-.736 6.466-2.101 1.879-1.365 3.278-3.291 3.996-5.5.717-2.209.717-4.589 0-6.798-.718-2.209-2.117-4.135-3.996-5.5C376.787 1.636 374.523.9 372.2.9z" stroke="#000000" stroke-dasharray="0,69.11513035154678" stroke-dashoffset="69.11513"/><path d="M364.3 12.8l5.6 5.6 10.9-10.9" stroke="#182338" stroke-dasharray="5.520653388683213,17.813870390472854" stroke-dashoffset="23.334524"/></g><g fill="#ffffff" stroke-miterlimit="10"><path d="M396.2.9c-2.323 0-4.587.736-6.466 2.101-1.879 1.365-3.278 3.291-3.996 5.5-.717 2.209-.717 4.589 0 6.798.718 2.209 2.117 4.135 3.996 5.5 1.879 1.365 4.143 2.101 6.466 2.101 2.323 0 4.587-.736 6.466-2.101 1.879-1.365 3.278-3.291 3.996-5.5.717-2.209.717-4.589 0-6.798-.718-2.209-2.117-4.135-3.996-5.5C400.787 1.636 398.523.9 396.2.9z" stroke="#000000" stroke-dasharray="0,69.11513035154678" stroke-dashoffset="69.11513"/><path d="M388.3 12.8l5.6 5.6 10.9-10.9" stroke="#1c2942" stroke-dasharray="6.488246876810022,16.846276902346045" stroke-dashoffset="23.334524"/></g><g fill="#ffffff" stroke-miterlimit="10"><path d="M420.2.9c-2.323 0-4.587.736-6.466 2.101-1.879 1.365-3.278 3.291-3.996 5.5-.717 2.209-.717 4.589 0 6.798.718 2.209 2.117 4.135 3.996 5.5 1.879 1.365 4.143 2.101 6.466 2.101 2.323 0 4.587-.736 6.466-2.101 1.879-1.365 3.278-3.291 3.996-5.5.717-2.209.717-4.589 0-6.798-.718-2.209-2.117-4.135-3.996-5.5C424.787 1.636 422.523.9 420.2.9z" stroke="#000000" stroke-dasharray="0,69.11513035154678" stroke-dashoffset="69.11513"/><path d="M412.3 12.8l5.6 5.6 10.9-10.9" stroke="#20304c" stroke-dasharray="7.513670537657628,15.820853241498437" stroke-dashoffset="23.334524"/></g><g fill="#ffffff" stroke-miterlimit="10"><path d="M444.2.9c-2.323 0-4.587.736-6.466 2.101-1.879 1.365-3.278 3.291-3.996 5.5-.717 2.209-.717 4.589 0 6.798.718 2.209 2.117 4.135 3.996 5.5 1.879 1.365 4.143 2.101 6.466 2.101 2.323 0 4.587-.736 6.466-2.101 1.879-1.365 3.278-3.291 3.996-5.5.717-2.209.717-4.589 0-6.798-.718-2.209-2.117-4.135-3.996-5.5C448.787 1.636 446.523.9 444.2.9z" stroke="#000000" stroke-dasharray="0,69.11513035154678" stroke-dashoffset="69.11513"/><path d="M436.3 12.8l5.6 5.6 10.9-10.9" stroke="#253757" stroke-dasharray="8.570670438981427,14.763853340174638" stroke-dashoffset="23.334524"/></g><g fill="#ffffff" stroke-miterlimit="10"><path d="M468.2.9c-2.323 0-4.587.736-6.466 2.101-1.879 1.365-3.278 3.291-3.996 5.5-.717 2.209-.717 4.589 0 6.798.718 2.209 2.117 4.135 3.996 5.5 1.879 1.365 4.143 2.101 6.466 2.101 2.323 0 4.587-.736 6.466-2.101 1.879-1.365 3.278-3.291 3.996-5.5.717-2.209.717-4.589 0-6.798-.718-2.209-2.117-4.135-3.996-5.5C472.787 1.636 470.523.9 468.2.9z" stroke="#000000" stroke-dasharray="0,69.11513035154678" stroke-dashoffset="69.11513"/><path d="M460.3 12.8l5.6 5.6 10.9-10.9" stroke="#293d62" stroke-dasharray="9.63112667179814,13.703397107357924" stroke-dashoffset="23.334524"/></g><g fill="#ffffff" stroke-miterlimit="10"><path d="M492.2.9c-2.323 0-4.587.736-6.466 2.101-1.879 1.365-3.278 3.291-3.996 5.5-.717 2.209-.717 4.589 0 6.798.718 2.209 2.117 4.135 3.996 5.5 1.879 1.365 4.143 2.101 6.466 2.101 2.323 0 4.587-.736 6.466-2.101 1.879-1.365 3.278-3.291 3.996-5.5.717-2.209.717-4.589 0-6.798-.718-2.209-2.117-4.135-3.996-5.5C496.787 1.636 494.523.9 492.2.9z" stroke="#000000" stroke-dasharray="0,69.11513035154678" stroke-dashoffset="69.11513"/><path d="M484.3 12.8l5.6 5.6 10.9-10.9" stroke="#2e446c" stroke-dasharray="10.66975159581727,12.664772183338794" stroke-dashoffset="23.334524"/></g><g fill="#ffffff" stroke-miterlimit="10"><path d="M516.2.9c-2.323 0-4.587.736-6.466 2.101-1.879 1.365-3.278 3.291-3.996 5.5-.717 2.209-.717 4.589 0 6.798.718 2.209 2.117 4.135 3.996 5.5 1.879 1.365 4.143 2.101 6.466 2.101 2.323 0 4.587-.736 6.466-2.101 1.879-1.365 3.278-3.291 3.996-5.5.717-2.209.717-4.589 0-6.798-.718-2.209-2.117-4.135-3.996-5.5C520.787 1.636 518.523.9 516.2.9z" stroke="#000000" stroke-dasharray="0,69.11513035154678" stroke-dashoffset="69.11513"/><path d="M508.3 12.8l5.6 5.6 10.9-10.9" stroke="#324a76" stroke-dasharray="11.66726188957803,11.667261889578034" stroke-dashoffset="23.334524"/></g><g fill="#ffffff" stroke-miterlimit="10"><path d="M540.2.9c-2.323 0-4.587.736-6.466 2.101-1.879 1.365-3.278 3.291-3.996 5.5-.717 2.209-.717 4.589 0 6.798.718 2.209 2.117 4.135 3.996 5.5 1.879 1.365 4.143 2.101 6.466 2.101 2.323 0 4.587-.736 6.466-2.101 1.879-1.365 3.278-3.291 3.996-5.5.717-2.209.717-4.589 0-6.798-.718-2.209-2.117-4.135-3.996-5.5C544.787 1.636 542.523.9 540.2.9z" stroke="#000000" stroke-dasharray="0,69.11513035154678" stroke-dashoffset="69.11513"/><path d="M532.3 12.8l5.6 5.6 10.9-10.9" stroke="#365180" stroke-dasharray="12.611269339531889,10.723254439624176" stroke-dashoffset="23.334524"/></g><g fill="#ffffff" stroke-miterlimit="10"><path d="M564.2.9c-2.323 0-4.587.736-6.466 2.101-1.879 1.365-3.278 3.291-3.996 5.5-.717 2.209-.717 4.589 0 6.798.718 2.209 2.117 4.135 3.996 5.5 1.879 1.365 4.143 2.101 6.466 2.101 2.323 0 4.587-.736 6.466-2.101 1.879-1.365 3.278-3.291 3.996-5.5.717-2.209.717-4.589 0-6.798-.718-2.209-2.117-4.135-3.996-5.5C568.787 1.636 566.523.9 564.2.9z" stroke="#000000" stroke-dasharray="0,69.11513035154678" stroke-dashoffset="69.11513"/><path d="M556.3 12.8l5.6 5.6 10.9-10.9" stroke="#3a5689" stroke-dasharray="13.495443310355329,9.839080468800736" stroke-dashoffset="23.334524"/></g><g fill="#ffffff" stroke-miterlimit="10"><path d="M588.2.9c-2.323 0-4.587.736-6.466 2.101-1.879 1.365-3.278 3.291-3.996 5.5-.717 2.209-.717 4.589 0 6.798.718 2.209 2.117 4.135 3.996 5.5 1.879 1.365 4.143 2.101 6.466 2.101 2.323 0 4.587-.736 6.466-2.101 1.879-1.365 3.278-3.291 3.996-5.5.717-2.209.717-4.589 0-6.798-.718-2.209-2.117-4.135-3.996-5.5C592.787 1.636 590.523.9 588.2.9z" stroke="#000000" stroke-dasharray="0,69.11513035154678" stroke-dashoffset="69.11513"/><path d="M580.3 12.8l5.6 5.6 10.9-10.9" stroke="#3d5b91" stroke-dasharray="14.317941203186038,9.016582575970027" stroke-dashoffset="23.334524"/></g><g fill="#ffffff" stroke-miterlimit="10"><path d="M612.2.9c-2.323 0-4.587.736-6.466 2.101-1.879 1.365-3.278 3.291-3.996 5.5-.717 2.209-.717 4.589 0 6.798.718 2.209 2.117 4.135 3.996 5.5 1.879 1.365 4.143 2.101 6.466 2.101 2.323 0 4.587-.736 6.466-2.101 1.879-1.365 3.278-3.291 3.996-5.5.717-2.209.717-4.589 0-6.798-.718-2.209-2.117-4.135-3.996-5.5C616.787 1.636 614.523.9 612.2.9z" stroke="#000000" stroke-dasharray="0,69.11513035154678" stroke-dashoffset="69.11513"/><path d="M604.3 12.8l5.6 5.6 10.9-10.9" stroke="#416099" stroke-dasharray="15.079845428050376,8.254678351105689" stroke-dashoffset="23.334524"/></g><g fill="#ffffff" stroke-miterlimit="10"><path d="M636.2.9c-2.323 0-4.587.736-6.466 2.101-1.879 1.365-3.278 3.291-3.996 5.5-.717 2.209-.717 4.589 0 6.798.718 2.209 2.117 4.135 3.996 5.5 1.879 1.365 4.143 2.101 6.466 2.101 2.323 0 4.587-.736 6.466-2.101 1.879-1.365 3.278-3.291 3.996-5.5.717-2.209.717-4.589 0-6.798-.718-2.209-2.117-4.135-3.996-5.5C640.787 1.636 638.523.9 636.2.9z" stroke="#000000" stroke-dasharray="0,69.11513035154678" stroke-dashoffset="69.11513"/><path d="M628.3 12.8l5.6 5.6 10.9-10.9" stroke="#4465a0" stroke-dasharray="15.783932382739726,7.55059139641634" stroke-dashoffset="23.334524"/></g><g fill="#ffffff" stroke-miterlimit="10"><path d="M660.2.9c-2.323 0-4.587.736-6.466 2.101-1.879 1.365-3.278 3.291-3.996 5.5-.717 2.209-.717 4.589 0 6.798.718 2.209 2.117 4.135 3.996 5.5 1.879 1.365 4.143 2.101 6.466 2.101 2.323 0 4.587-.736 6.466-2.101 1.879-1.365 3.278-3.291 3.996-5.5.717-2.209.717-4.589 0-6.798-.718-2.209-2.117-4.135-3.996-5.5C664.787 1.636 662.523.9 660.2.9z" stroke="#000000" stroke-dasharray="0,69.11513035154678" stroke-dashoffset="69.11513"/><path d="M652.3 12.8l5.6 5.6 10.9-10.9" stroke="#4669a7" stroke-dasharray="16.433822245079085,6.90070153407698" stroke-dashoffset="23.334524"/></g><g fill="#ffffff" stroke-miterlimit="10"><path d="M684.2.9c-2.323 0-4.587.736-6.466 2.101-1.879 1.365-3.278 3.291-3.996 5.5-.717 2.209-.717 4.589 0 6.798.718 2.209 2.117 4.135 3.996 5.5 1.879 1.365 4.143 2.101 6.466 2.101 2.323 0 4.587-.736 6.466-2.101 1.879-1.365 3.278-3.291 3.996-5.5.717-2.209.717-4.589 0-6.798-.718-2.209-2.117-4.135-3.996-5.5C688.787 1.636 686.523.9 684.2.9z" stroke="#000000" stroke-dasharray="0,69.11513035154678" stroke-dashoffset="69.11513"/><path d="M676.3 12.8l5.6 5.6 10.9-10.9" stroke="#496dad" stroke-dasharray="17.03344148827403,6.301082290882037" stroke-dashoffset="23.334524"/></g><g fill="#ffffff" stroke-miterlimit="10"><path d="M708.2.9c-2.323 0-4.587.736-6.466 2.101-1.879 1.365-3.278 3.291-3.996 5.5-.717 2.209-.717 4.589 0 6.798.718 2.209 2.117 4.135 3.996 5.5 1.879 1.365 4.143 2.101 6.466 2.101 2.323 0 4.587-.736 6.466-2.101 1.879-1.365 3.278-3.291 3.996-5.5.717-2.209.717-4.589 0-6.798-.718-2.209-2.117-4.135-3.996-5.5C712.787 1.636 710.523.9 708.2.9z" stroke="#000000" stroke-dasharray="0,69.11513035154678" stroke-dashoffset="69.11513"/><path d="M700.3 12.8l5.6 5.6 10.9-10.9" stroke="#4b70b3" stroke-dasharray="17.586706900054946,5.74781687910112" stroke-dashoffset="23.334524"/></g><g fill="#ffffff" stroke-miterlimit="10"><path d="M732.2.9c-2.323 0-4.587.736-6.466 2.101-1.879 1.365-3.278 3.291-3.996 5.5-.717 2.209-.717 4.589 0 6.798.718 2.209 2.117 4.135 3.996 5.5 1.879 1.365 4.143 2.101 6.466 2.101 2.323 0 4.587-.736 6.466-2.101 1.879-1.365 3.278-3.291 3.996-5.5.717-2.209.717-4.589 0-6.798-.718-2.209-2.117-4.135-3.996-5.5C736.787 1.636 734.523.9 732.2.9z" stroke="#000000" stroke-dasharray="0,69.11513035154678" stroke-dashoffset="69.11513"/><path d="M724.3 12.8l5.6 5.6 10.9-10.9" stroke="#4e74b8" stroke-dasharray="18.09735385643437,5.2371699227216935" stroke-dashoffset="23.334524"/></g><g fill="#ffffff" stroke-miterlimit="10"><path d="M756.2.9c-2.323 0-4.587.736-6.466 2.101-1.879 1.365-3.278 3.291-3.996 5.5-.717 2.209-.717 4.589 0 6.798.718 2.209 2.117 4.135 3.996 5.5 1.879 1.365 4.143 2.101 6.466 2.101 2.323 0 4.587-.736 6.466-2.101 1.879-1.365 3.278-3.291 3.996-5.5.717-2.209.717-4.589 0-6.798-.718-2.209-2.117-4.135-3.996-5.5C760.787 1.636 758.523.9 756.2.9z" stroke="#000000" stroke-dasharray="0,69.11513035154678" stroke-dashoffset="69.11513"/><path d="M748.3 12.8l5.6 5.6 10.9-10.9" stroke="#5077bd" stroke-dasharray="18.568853436061758,4.765670343094309" stroke-dashoffset="23.334524"/></g><g fill="#ffffff" stroke-miterlimit="10"><path d="M780.2.9c-2.323 0-4.587.736-6.466 2.101-1.879 1.365-3.278 3.291-3.996 5.5-.717 2.209-.717 4.589 0 6.798.718 2.209 2.117 4.135 3.996 5.5 1.879 1.365 4.143 2.101 6.466 2.101 2.323 0 4.587-.736 6.466-2.101 1.879-1.365 3.278-3.291 3.996-5.5.717-2.209.717-4.589 0-6.798-.718-2.209-2.117-4.135-3.996-5.5C784.787 1.636 782.523.9 780.2.9z" stroke="#000000" stroke-dasharray="0,69.11513035154678" stroke-dashoffset="69.11513"/><path d="M772.3 12.8l5.6 5.6 10.9-10.9" stroke="#5179c1" stroke-dasharray="19.00438184407091,4.330141935085156" stroke-dashoffset="23.334524"/></g><g fill="#ffffff" stroke-miterlimit="10"><path d="M804.2.9c-2.323 0-4.587.736-6.466 2.101-1.879 1.365-3.278 3.291-3.996 5.5-.717 2.209-.717 4.589 0 6.798.718 2.209 2.117 4.135 3.996 5.5 1.879 1.365 4.143 2.101 6.466 2.101 2.323 0 4.587-.736 6.466-2.101 1.879-1.365 3.278-3.291 3.996-5.5.717-2.209.717-4.589 0-6.798-.718-2.209-2.117-4.135-3.996-5.5C808.787 1.636 806.523.9 804.2.9z" stroke="#000000" stroke-dasharray="0,69.11513035154678" stroke-dashoffset="69.11513"/><path d="M796.3 12.8l5.6 5.6 10.9-10.9" stroke="#537cc5" stroke-dasharray="19.406819237908785,3.9277045412472784" stroke-dashoffset="23.334524"/></g><g fill="#ffffff" stroke-miterlimit="10"><path d="M828.2.9c-2.323 0-4.587.736-6.466 2.101-1.879 1.365-3.278 3.291-3.996 5.5-.717 2.209-.717 4.589 0 6.798.718 2.209 2.117 4.135 3.996 5.5 1.879 1.365 4.143 2.101 6.466 2.101 2.323 0 4.587-.736 6.466-2.101 1.879-1.365 3.278-3.291 3.996-5.5.717-2.209.717-4.589 0-6.798-.718-2.209-2.117-4.135-3.996-5.5C832.787 1.636 830.523.9 828.2.9z" stroke="#000000" stroke-dasharray="0,69.11513035154678" stroke-dashoffset="69.11513"/><path d="M820.3 12.8l5.6 5.6 10.9-10.9" stroke="#557ec9" stroke-dasharray="19.778764069986686,3.555759709169378" stroke-dashoffset="23.334524"/></g><g fill="#ffffff" stroke-miterlimit="10"><path d="M852.2.9c-2.323 0-4.587.736-6.466 2.101-1.879 1.365-3.278 3.291-3.996 5.5-.717 2.209-.717 4.589 0 6.798.718 2.209 2.117 4.135 3.996 5.5 1.879 1.365 4.143 2.101 6.466 2.101 2.323 0 4.587-.736 6.466-2.101 1.879-1.365 3.278-3.291 3.996-5.5.717-2.209.717-4.589 0-6.798-.718-2.209-2.117-4.135-3.996-5.5C856.787 1.636 854.523.9 852.2.9z" stroke="#000000" stroke-dasharray="0,69.11513035154678" stroke-dashoffset="69.11513"/><path d="M844.3 12.8l5.6 5.6 10.9-10.9" stroke="#5680cc" stroke-dasharray="20.1225547608203,3.211969018335766" stroke-dashoffset="23.334524"/></g><g fill="#ffffff" stroke-miterlimit="10"><path d="M876.2.9c-2.323 0-4.587.736-6.466 2.101-1.879 1.365-3.278 3.291-3.996 5.5-.717 2.209-.717 4.589 0 6.798.718 2.209 2.117 4.135 3.996 5.5 1.879 1.365 4.143 2.101 6.466 2.101 2.323 0 4.587-.736 6.466-2.101 1.879-1.365 3.278-3.291 3.996-5.5.717-2.209.717-4.589 0-6.798-.718-2.209-2.117-4.135-3.996-5.5C880.787 1.636 878.523.9 876.2.9z" stroke="#000000" stroke-dasharray="0,69.11513035154678" stroke-dashoffset="69.11513"/><path d="M868.3 12.8l5.6 5.6 10.9-10.9" stroke="#5883d0" stroke-dasharray="20.44029401290423,2.894229766251838" stroke-dashoffset="23.334524"/></g><g fill="#ffffff" stroke-miterlimit="10"><path d="M900.2.9c-2.323 0-4.587.736-6.466 2.101-1.879 1.365-3.278 3.291-3.996 5.5-.717 2.209-.717 4.589 0 6.798.718 2.209 2.117 4.135 3.996 5.5 1.879 1.365 4.143 2.101 6.466 2.101 2.323 0 4.587-.736 6.466-2.101 1.879-1.365 3.278-3.291 3.996-5.5.717-2.209.717-4.589 0-6.798-.718-2.209-2.117-4.135-3.996-5.5C904.787 1.636 902.523.9 900.2.9z" stroke="#000000" stroke-dasharray="0,69.11513035154678" stroke-dashoffset="69.11513"/><path d="M892.3 12.8l5.6 5.6 10.9-10.9" stroke="#5984d3" stroke-dasharray="20.733873178083847,2.600650601072217" stroke-dashoffset="23.334524"/></g><g fill="#ffffff" stroke-miterlimit="10"><path d="M924.2.9c-2.323 0-4.587.736-6.466 2.101-1.879 1.365-3.278 3.291-3.996 5.5-.717 2.209-.717 4.589 0 6.798.718 2.209 2.117 4.135 3.996 5.5 1.879 1.365 4.143 2.101 6.466 2.101 2.323 0 4.587-.736 6.466-2.101 1.879-1.365 3.278-3.291 3.996-5.5.717-2.209.717-4.589 0-6.798-.718-2.209-2.117-4.135-3.996-5.5C928.787 1.636 926.523.9 924.2.9z" stroke="#000000" stroke-dasharray="0,69.11513035154678" stroke-dashoffset="69.11513"/><path d="M916.3 12.8l5.6 5.6 10.9-10.9" stroke="#5a86d5" stroke-dasharray="21.004995334185686,2.329528444970378" stroke-dashoffset="23.334524"/></g><g fill="#ffffff" stroke-miterlimit="10"><path d="M948.2.9c-2.323 0-4.587.736-6.466 2.101-1.879 1.365-3.278 3.291-3.996 5.5-.717 2.209-.717 4.589 0 6.798.718 2.209 2.117 4.135 3.996 5.5 1.879 1.365 4.143 2.101 6.466 2.101 2.323 0 4.587-.736 6.466-2.101 1.879-1.365 3.278-3.291 3.996-5.5.717-2.209.717-4.589 0-6.798-.718-2.209-2.117-4.135-3.996-5.5C952.787 1.636 950.523.9 948.2.9z" stroke="#000000" stroke-dasharray="0,69.11513035154678" stroke-dashoffset="69.11513"/><path d="M940.3 12.8l5.6 5.6 10.9-10.9" stroke="#5b88d8" stroke-dasharray="21.255196448355203,2.07932733080086" stroke-dashoffset="23.334524"/></g><g fill="#ffffff" stroke-miterlimit="10"><path d="M972.2.9c-2.323 0-4.587.736-6.466 2.101-1.879 1.365-3.278 3.291-3.996 5.5-.717 2.209-.717 4.589 0 6.798.718 2.209 2.117 4.135 3.996 5.5 1.879 1.365 4.143 2.101 6.466 2.101 2.323 0 4.587-.736 6.466-2.101 1.879-1.365 3.278-3.291 3.996-5.5.717-2.209.717-4.589 0-6.798-.718-2.209-2.117-4.135-3.996-5.5C976.787 1.636 974.523.9 972.2.9z" stroke="#000000" stroke-dasharray="0,69.11513035154678" stroke-dashoffset="69.11513"/><path d="M964.3 12.8l5.6 5.6 10.9-10.9" stroke="#5c89da" stroke-dasharray="21.485864413703258,1.8486593654528072" stroke-dashoffset="23.334524"/></g><g fill="#ffffff" stroke-miterlimit="10"><path d="M996.2.9c-2.323 0-4.587.736-6.466 2.101-1.879 1.365-3.278 3.291-3.996 5.5-.717 2.209-.717 4.589 0 6.798.718 2.209 2.117 4.135 3.996 5.5 1.879 1.365 4.143 2.101 6.466 2.101 2.323 0 4.587-.736 6.466-2.101 1.879-1.365 3.278-3.291 3.996-5.5.717-2.209.717-4.589 0-6.798-.718-2.209-2.117-4.135-3.996-5.5C1000.787 1.636 998.523.9 996.2.9z" stroke="#000000" stroke-dasharray="0,69.11513035154678" stroke-dashoffset="69.11513"/><path d="M988.3 12.8l5.6 5.6 10.9-10.9" stroke="#5d8bdc" stroke-dasharray="21.698255969533967,1.6362678096220984" stroke-dashoffset="23.334524"/></g><g fill="#ffffff" stroke-miterlimit="10"><path d="M1020.2.9c-2.323 0-4.587.736-6.466 2.101-1.879 1.365-3.278 3.291-3.996 5.5-.717 2.209-.717 4.589 0 6.798.718 2.209 2.117 4.135 3.996 5.5 1.879 1.365 4.143 2.101 6.466 2.101 2.323 0 4.587-.736 6.466-2.101 1.879-1.365 3.278-3.291 3.996-5.5.717-2.209.717-4.589 0-6.798-.718-2.209-2.117-4.135-3.996-5.5C1024.787 1.636 1022.523.9 1020.2.9z" stroke="#000000" stroke-dasharray="0,69.11513035154678" stroke-dashoffset="69.11513"/><path d="M1012.3 12.8l5.6 5.6 10.9-10.9" stroke="#5e8cde" stroke-dasharray="21.89351163026121,1.4410121488948553" stroke-dashoffset="23.334524"/></g><g fill="#ffffff" stroke-miterlimit="10"><path d="M1044.2.9c-2.323 0-4.587.736-6.466 2.101-1.879 1.365-3.278 3.291-3.996 5.5-.717 2.209-.717 4.589 0 6.798.718 2.209 2.117 4.135 3.996 5.5 1.879 1.365 4.143 2.101 6.466 2.101 2.323 0 4.587-.736 6.466-2.101 1.879-1.365 3.278-3.291 3.996-5.5.717-2.209.717-4.589 0-6.798-.718-2.209-2.117-4.135-3.996-5.5C1048.787 1.636 1046.523.9 1044.2.9z" stroke="#000000" stroke-dasharray="0,69.11513035154678" stroke-dashoffset="69.11513"/><path d="M1036.3 12.8l5.6 5.6 10.9-10.9" stroke="#5f8de0" stroke-dasharray="22.072668800068843,1.2618549790872222" stroke-dashoffset="23.334524"/></g><g fill="#ffffff" stroke-miterlimit="10"><path d="M1068.2.9c-2.323 0-4.587.736-6.466 2.101-1.879 1.365-3.278 3.291-3.996 5.5-.717 2.209-.717 4.589 0 6.798.718 2.209 2.117 4.135 3.996 5.5 1.879 1.365 4.143 2.101 6.466 2.101 2.323 0 4.587-.736 6.466-2.101 1.879-1.365 3.278-3.291 3.996-5.5.717-2.209.717-4.589 0-6.798-.718-2.209-2.117-4.135-3.996-5.5C1072.787 1.636 1070.523.9 1068.2.9z" stroke="#000000" stroke-dasharray="0,69.11513035154678" stroke-dashoffset="69.11513"/><path d="M1060.3 12.8l5.6 5.6 10.9-10.9" stroke="#5f8ee2" stroke-dasharray="22.236673266820922,1.0978505123351443" stroke-dashoffset="23.334524"/></g><g fill="#ffffff" stroke-miterlimit="10"><path d="M1092.2.9c-2.323 0-4.587.736-6.466 2.101-1.879 1.365-3.278 3.291-3.996 5.5-.717 2.209-.717 4.589 0 6.798.718 2.209 2.117 4.135 3.996 5.5 1.879 1.365 4.143 2.101 6.466 2.101 2.323 0 4.587-.736 6.466-2.101 1.879-1.365 3.278-3.291 3.996-5.5.717-2.209.717-4.589 0-6.798-.718-2.209-2.117-4.135-3.996-5.5C1096.787 1.636 1094.523.9 1092.2.9z" stroke="#000000" stroke-dasharray="0,69.11513035154678" stroke-dashoffset="69.11513"/><path d="M1084.3 12.8l5.6 5.6 10.9-10.9" stroke="#608fe3" stroke-dasharray="22.386389265900107,0.9481345132559593" stroke-dashoffset="23.334524"/></g><g fill="#ffffff" stroke-miterlimit="10"><path d="M1116.2.9c-2.323 0-4.587.736-6.466 2.101-1.879 1.365-3.278 3.291-3.996 5.5-.717 2.209-.717 4.589 0 6.798.718 2.209 2.117 4.135 3.996 5.5 1.879 1.365 4.143 2.101 6.466 2.101 2.323 0 4.587-.736 6.466-2.101 1.879-1.365 3.278-3.291 3.996-5.5.717-2.209.717-4.589 0-6.798-.718-2.209-2.117-4.135-3.996-5.5C1120.787 1.636 1118.523.9 1116.2.9z" stroke="#000000" stroke-dasharray="0,69.11513035154678" stroke-dashoffset="69.11513"/><path d="M1108.3 12.8l5.6 5.6 10.9-10.9" stroke="#6190e5" stroke-dasharray="22.522608292047412,0.8119154871086519" stroke-dashoffset="23.334524"/></g><g fill="#ffffff" stroke-miterlimit="10"><path d="M1140.2.9c-2.323 0-4.587.736-6.466 2.101-1.879 1.365-3.278 3.291-3.996 5.5-.717 2.209-.717 4.589 0 6.798.718 2.209 2.117 4.135 3.996 5.5 1.879 1.365 4.143 2.101 6.466 2.101 2.323 0 4.587-.736 6.466-2.101 1.879-1.365 3.278-3.291 3.996-5.5.717-2.209.717-4.589 0-6.798-.718-2.209-2.117-4.135-3.996-5.5C1144.787 1.636 1142.523.9 1140.2.9z" stroke="#000000" stroke-dasharray="0,69.11513035154678" stroke-dashoffset="69.11513"/><path d="M1132.3 12.8l5.6 5.6 10.9-10.9" stroke="#6191e6" stroke-dasharray="22.646056820381684,0.68846695877438" stroke-dashoffset="23.334524"/></g><g fill="#ffffff" stroke-miterlimit="10"><path d="M1164.2.9c-2.323 0-4.587.736-6.466 2.101-1.879 1.365-3.278 3.291-3.996 5.5-.717 2.209-.717 4.589 0 6.798.718 2.209 2.117 4.135 3.996 5.5 1.879 1.365 4.143 2.101 6.466 2.101 2.323 0 4.587-.736 6.466-2.101 1.879-1.365 3.278-3.291 3.996-5.5.717-2.209.717-4.589 0-6.798-.718-2.209-2.117-4.135-3.996-5.5C1168.787 1.636 1166.523.9 1164.2.9z" stroke="#000000" stroke-dasharray="0,69.11513035154678" stroke-dashoffset="69.11513"/><path d="M1156.3 12.8l5.6 5.6 10.9-10.9" stroke="#6291e7" stroke-dasharray="22.757403079677875,0.57712069947819" stroke-dashoffset="23.334524"/></g><g fill="#ffffff" stroke-miterlimit="10"><path d="M1188.2.9c-2.323 0-4.587.736-6.466 2.101-1.879 1.365-3.278 3.291-3.996 5.5-.717 2.209-.717 4.589 0 6.798.718 2.209 2.117 4.135 3.996 5.5 1.879 1.365 4.143 2.101 6.466 2.101 2.323 0 4.587-.736 6.466-2.101 1.879-1.365 3.278-3.291 3.996-5.5.717-2.209.717-4.589 0-6.798-.718-2.209-2.117-4.135-3.996-5.5C1192.787 1.636 1190.523.9 1188.2.9z" stroke="#000000" stroke-dasharray="0,69.11513035154678" stroke-dashoffset="69.11513"/><path d="M1180.3 12.8l5.6 5.6 10.9-10.9" stroke="#6292e8" stroke-dasharray="22.85726300334736,0.4772607758087062" stroke-dashoffset="23.334524"/></g><g fill="#ffffff" stroke-miterlimit="10"><path d="M1212.2.9c-2.323 0-4.587.736-6.466 2.101-1.879 1.365-3.278 3.291-3.996 5.5-.717 2.209-.717 4.589 0 6.798.718 2.209 2.117 4.135 3.996 5.5 1.879 1.365 4.143 2.101 6.466 2.101 2.323 0 4.587-.736 6.466-2.101 1.879-1.365 3.278-3.291 3.996-5.5.717-2.209.717-4.589 0-6.798-.718-2.209-2.117-4.135-3.996-5.5C1216.787 1.636 1214.523.9 1212.2.9z" stroke="#000000" stroke-dasharray="0,69.11513035154678" stroke-dashoffset="69.11513"/><path d="M1204.3 12.8l5.6 5.6 10.9-10.9" stroke="#6293e9" stroke-dasharray="22.946205467221574,0.38831831193448935" stroke-dashoffset="23.334524"/></g><g fill="#ffffff" stroke-miterlimit="10"><path d="M1236.2.9c-2.323 0-4.587.736-6.466 2.101-1.879 1.365-3.278 3.291-3.996 5.5-.717 2.209-.717 4.589 0 6.798.718 2.209 2.117 4.135 3.996 5.5 1.879 1.365 4.143 2.101 6.466 2.101 2.323 0 4.587-.736 6.466-2.101 1.879-1.365 3.278-3.291 3.996-5.5.717-2.209.717-4.589 0-6.798-.718-2.209-2.117-4.135-3.996-5.5C1240.787 1.636 1238.523.9 1236.2.9z" stroke="#000000" stroke-dasharray="0,69.11513035154678" stroke-dashoffset="69.11513"/><path d="M1228.3 12.8l5.6 5.6 10.9-10.9" stroke="#6393ea" stroke-dasharray="23.024756908544465,0.309766870611601" stroke-dashoffset="23.334524"/></g><g fill="#ffffff" stroke-miterlimit="10"><path d="M1260.2.9c-2.323 0-4.587.736-6.466 2.101-1.879 1.365-3.278 3.291-3.996 5.5-.717 2.209-.717 4.589 0 6.798.718 2.209 2.117 4.135 3.996 5.5 1.879 1.365 4.143 2.101 6.466 2.101 2.323 0 4.587-.736 6.466-2.101 1.879-1.365 3.278-3.291 3.996-5.5.717-2.209.717-4.589 0-6.798-.718-2.209-2.117-4.135-3.996-5.5C1264.787 1.636 1262.523.9 1260.2.9z" stroke="#000000" stroke-dasharray="0,69.11513035154678" stroke-dashoffset="69.11513"/><path d="M1252.3 12.8l5.6 5.6 10.9-10.9" stroke="#6393eb" stroke-dasharray="23.093405407610067,0.24111837154599605" stroke-dashoffset="23.334524"/></g><g fill="#ffffff" stroke-miterlimit="10"><path d="M1284.2.9c-2.323 0-4.587.736-6.466 2.101-1.879 1.365-3.278 3.291-3.996 5.5-.717 2.209-.717 4.589 0 6.798.718 2.209 2.117 4.135 3.996 5.5 1.879 1.365 4.143 2.101 6.466 2.101 2.323 0 4.587-.736 6.466-2.101 1.879-1.365 3.278-3.291 3.996-5.5.717-2.209.717-4.589 0-6.798-.718-2.209-2.117-4.135-3.996-5.5C1288.787 1.636 1286.523.9 1284.2.9z" stroke="#000000" stroke-dasharray="0,69.11513035154678" stroke-dashoffset="69.11513"/><path d="M1276.3 12.8l5.6 5.6 10.9-10.9" stroke="#6394eb" stroke-dasharray="23.152604302176115,0.18191947697995015" stroke-dashoffset="23.334524"/></g><g fill="#ffffff" stroke-miterlimit="10"><path d="M1308.2.9c-2.323 0-4.587.736-6.466 2.101-1.879 1.365-3.278 3.291-3.996 5.5-.717 2.209-.717 4.589 0 6.798.718 2.209 2.117 4.135 3.996 5.5 1.879 1.365 4.143 2.101 6.466 2.101 2.323 0 4.587-.736 6.466-2.101 1.879-1.365 3.278-3.291 3.996-5.5.717-2.209.717-4.589 0-6.798-.718-2.209-2.117-4.135-3.996-5.5C1312.787 1.636 1310.523.9 1308.2.9z" stroke="#000000" stroke-dasharray="0,69.11513035154678" stroke-dashoffset="69.11513"/><path d="M1300.3 12.8l5.6 5.6 10.9-10.9" stroke="#6394ec" stroke-dasharray="23.202775395007894,0.13174838414817144" stroke-dashoffset="23.334524"/></g><g fill="#ffffff" stroke-miterlimit="10"><path d="M1332.2.9c-2.323 0-4.587.736-6.466 2.101-1.879 1.365-3.278 3.291-3.996 5.5-.717 2.209-.717 4.589 0 6.798.718 2.209 2.117 4.135 3.996 5.5 1.879 1.365 4.143 2.101 6.466 2.101 2.323 0 4.587-.736 6.466-2.101 1.879-1.365 3.278-3.291 3.996-5.5.717-2.209.717-4.589 0-6.798-.718-2.209-2.117-4.135-3.996-5.5C1336.787 1.636 1334.523.9 1332.2.9z" stroke="#000000" stroke-dasharray="0,69.11513035154678" stroke-dashoffset="69.11513"/><path d="M1324.3 12.8l5.6 5.6 10.9-10.9" stroke="#6494ec" stroke-dasharray="23.24431180649715,0.0902119726589129" stroke-dashoffset="23.334524"/></g><g fill="#ffffff" stroke-miterlimit="10"><path d="M1356.2.9c-2.323 0-4.587.736-6.466 2.101-1.879 1.365-3.278 3.291-3.996 5.5-.717 2.209-.717 4.589 0 6.798.718 2.209 2.117 4.135 3.996 5.5 1.879 1.365 4.143 2.101 6.466 2.101 2.323 0 4.587-.736 6.466-2.101 1.879-1.365 3.278-3.291 3.996-5.5.717-2.209.717-4.589 0-6.798-.718-2.209-2.117-4.135-3.996-5.5C1360.787 1.636 1358.523.9 1356.2.9z" stroke="#000000" stroke-dasharray="0,69.11513035154678" stroke-dashoffset="69.11513"/><path d="M1348.3 12.8l5.6 5.6 10.9-10.9" stroke="#6495ec" stroke-dasharray="23.277580517090303,0.056943262065762563" stroke-dashoffset="23.334524"/></g><g fill="#ffffff" stroke-miterlimit="10"><path d="M1380.2.9c-2.323 0-4.587.736-6.466 2.101-1.879 1.365-3.278 3.291-3.996 5.5-.717 2.209-.717 4.589 0 6.798.718 2.209 2.117 4.135 3.996 5.5 1.879 1.365 4.143 2.101 6.466 2.101 2.323 0 4.587-.736 6.466-2.101 1.879-1.365 3.278-3.291 3.996-5.5.717-2.209.717-4.589 0-6.798-.718-2.209-2.117-4.135-3.996-5.5C1384.787 1.636 1382.523.9 1380.2.9z" stroke="#000000" stroke-dasharray="0,69.11513035154678" stroke-dashoffset="69.11513"/><path d="M1372.3 12.8l5.6 5.6 10.9-10.9" stroke="#6495ed" stroke-dasharray="23.302924638090097,0.03159914106596599" stroke-dashoffset="23.334524"/></g><g fill="#ffffff" stroke-miterlimit="10"><path d="M1404.2.9c-2.323 0-4.587.736-6.466 2.101-1.879 1.365-3.278 3.291-3.996 5.5-.717 2.209-.717 4.589 0 6.798.718 2.209 2.117 4.135 3.996 5.5 1.879 1.365 4.143 2.101 6.466 2.101 2.323 0 4.587-.736 6.466-2.101 1.879-1.365 3.278-3.291 3.996-5.5.717-2.209.717-4.589 0-6.798-.718-2.209-2.117-4.135-3.996-5.5C1408.787 1.636 1406.523.9 1404.2.9z" stroke="#000000" stroke-dasharray="0,69.11513035154678" stroke-dashoffset="69.11513"/><path d="M1396.3 12.8l5.6 5.6 10.9-10.9" stroke="#6495ed" stroke-dasharray="23.320665444119545,0.013858335036521926" stroke-dashoffset="23.334524"/></g><g fill="#ffffff" stroke-miterlimit="10"><path d="M1428.2.9c-2.323 0-4.587.736-6.466 2.101-1.879 1.365-3.278 3.291-3.996 5.5-.717 2.209-.717 4.589 0 6.798.718 2.209 2.117 4.135 3.996 5.5 1.879 1.365 4.143 2.101 6.466 2.101 2.323 0 4.587-.736 6.466-2.101 1.879-1.365 3.278-3.291 3.996-5.5.717-2.209.717-4.589 0-6.798-.718-2.209-2.117-4.135-3.996-5.5C1432.787 1.636 1430.523.9 1428.2.9z" stroke="#000000" stroke-dasharray="0,69.11513035154678" stroke-dashoffset="69.11513"/><path d="M1420.3 12.8l5.6 5.6 10.9-10.9" stroke="#6495ed" stroke-dasharray="23.331104196027102,0.0034195831289615536" stroke-dashoffset="23.334524"/></g><g fill="#ffffff" stroke-miterlimit="10"><path d="M1452.2.9c-2.323 0-4.587.736-6.466 2.101-1.879 1.365-3.278 3.291-3.996 5.5-.717 2.209-.717 4.589 0 6.798.718 2.209 2.117 4.135 3.996 5.5 1.879 1.365 4.143 2.101 6.466 2.101 2.323 0 4.587-.736 6.466-2.101 1.879-1.365 3.278-3.291 3.996-5.5.717-2.209.717-4.589 0-6.798-.718-2.209-2.117-4.135-3.996-5.5C1456.787 1.636 1454.523.9 1452.2.9z" stroke="#000000" stroke-dasharray="0,69.11513035154678" stroke-dashoffset="69.11513"/><path d="M1444.3 12.8l5.6 5.6 10.9-10.9" stroke="#6495ed"/></g><g fill="#ffffff" stroke-miterlimit="10"><path d="M1476.2.9c-2.323 0-4.587.736-6.466 2.101-1.879 1.365-3.278 3.291-3.996 5.5-.717 2.209-.717 4.589 0 6.798.718 2.209 2.117 4.135 3.996 5.5 1.879 1.365 4.143 2.101 6.466 2.101 2.323 0 4.587-.736 6.466-2.101 1.879-1.365 3.278-3.291 3.996-5.5.717-2.209.717-4.589 0-6.798-.718-2.209-2.117-4.135-3.996-5.5C1480.787 1.636 1478.523.9 1476.2.9z" stroke="#000001" stroke-dasharray="0.171092319365976,68.94403803218081" stroke-dashoffset="69.11513"/><path d="M1468.3 12.8l5.6 5.6 10.9-10.9" stroke="#6495ed"/></g><g fill="#ffffff" stroke-miterlimit="10"><path d="M1500.2.9c-2.323 0-4.587.736-6.466 2.101-1.879 1.365-3.278 3.291-3.996 5.5-.717 2.209-.717 4.589 0 6.798.718 2.209 2.117 4.135 3.996 5.5 1.879 1.365 4.143 2.101 6.466 2.101 2.323 0 4.587-.736 6.466-2.101 1.879-1.365 3.278-3.291 3.996-5.5.717-2.209.717-4.589 0-6.798-.718-2.209-2.117-4.135-3.996-5.5C1504.787 1.636 1502.523.9 1500.2.9z" stroke="#010203" stroke-dasharray="0.7354371589872024,68.37969319255959" stroke-dashoffset="69.11513"/><path d="M1492.3 12.8l5.6 5.6 10.9-10.9" stroke="#6495ed"/></g><g fill="#ffffff" stroke-miterlimit="10"><path d="M1524.2.9c-2.323 0-4.587.736-6.466 2.101-1.879 1.365-3.278 3.291-3.996 5.5-.717 2.209-.717 4.589 0 6.798.718 2.209 2.117 4.135 3.996 5.5 1.879 1.365 4.143 2.101 6.466 2.101 2.323 0 4.587-.736 6.466-2.101 1.879-1.365 3.278-3.291 3.996-5.5.717-2.209.717-4.589 0-6.798-.718-2.209-2.117-4.135-3.996-5.5C1528.787 1.636 1526.523.9 1524.2.9z" stroke="#030406" stroke-dasharray="1.7875256455040045,67.32760470604278" stroke-dashoffset="69.11513"/><path d="M1516.3 12.8l5.6 5.6 10.9-10.9" stroke="#6495ed"/></g><g fill="#ffffff" stroke-miterlimit="10"><path d="M1548.2.9c-2.323 0-4.587.736-6.466 2.101-1.879 1.365-3.278 3.291-3.996 5.5-.717 2.209-.717 4.589 0 6.798.718 2.209 2.117 4.135 3.996 5.5 1.879 1.365 4.143 2.101 6.466 2.101 2.323 0 4.587-.736 6.466-2.101 1.879-1.365 3.278-3.291 3.996-5.5.717-2.209.717-4.589 0-6.798-.718-2.209-2.117-4.135-3.996-5.5C1552.787 1.636 1550.523.9 1548.2.9z" stroke="#05070c" stroke-dasharray="3.4509742314144076,65.66415612013238" stroke-dashoffset="69.11513"/><path d="M1540.3 12.8l5.6 5.6 10.9-10.9" stroke="#6495ed"/></g><g fill="#ffffff" stroke-miterlimit="10"><path d="M1572.2.9c-2.323 0-4.587.736-6.466 2.101-1.879 1.365-3.278 3.291-3.996 5.5-.717 2.209-.717 4.589 0 6.798.718 2.209 2.117 4.135 3.996 5.5 1.879 1.365 4.143 2.101 6.466 2.101 2.323 0 4.587-.736 6.466-2.101 1.879-1.365 3.278-3.291 3.996-5.5.717-2.209.717-4.589 0-6.798-.718-2.209-2.117-4.135-3.996-5.5C1576.787 1.636 1574.523.9 1572.2.9z" stroke="#090d14" stroke-dasharray="5.882076454798847,63.23305389674793" stroke-dashoffset="69.11513"/><path d="M1564.3 12.8l5.6 5.6 10.9-10.9" stroke="#6495ed"/></g><g fill="#ffffff" stroke-miterlimit="10"><path d="M1596.2.9c-2.323 0-4.587.736-6.466 2.101-1.879 1.365-3.278 3.291-3.996 5.5-.717 2.209-.717 4.589 0 6.798.718 2.209 2.117 4.135 3.996 5.5 1.879 1.365 4.143 2.101 6.466 2.101 2.323 0 4.587-.736 6.466-2.101 1.879-1.365 3.278-3.291 3.996-5.5.717-2.209.717-4.589 0-6.798-.718-2.209-2.117-4.135-3.996-5.5C1600.787 1.636 1598.523.9 1596.2.9z" stroke="#0d1420" stroke-dasharray="9.257748819554646,59.85738153199213" stroke-dashoffset="69.11513"/><path d="M1588.3 12.8l5.6 5.6 10.9-10.9" stroke="#6495ed"/></g><g fill="#ffffff" stroke-miterlimit="10"><path d="M1620.2.9c-2.323 0-4.587.736-6.466 2.101-1.879 1.365-3.278 3.291-3.996 5.5-.717 2.209-.717 4.589 0 6.798.718 2.209 2.117 4.135 3.996 5.5 1.879 1.365 4.143 2.101 6.466 2.101 2.323 0 4.587-.736 6.466-2.101 1.879-1.365 3.278-3.291 3.996-5.5.717-2.209.717-4.589 0-6.798-.718-2.209-2.117-4.135-3.996-5.5C1624.787 1.636 1622.523.9 1620.2.9z" stroke="#141e2f" stroke-dasharray="13.716731111388073,55.39839924015871" stroke-dashoffset="69.11513"/><path d="M1612.3 12.8l5.6 5.6 10.9-10.9" stroke="#6495ed"/></g><g fill="#ffffff" stroke-miterlimit="10"><path d="M1644.2.9c-2.323 0-4.587.736-6.466 2.101-1.879 1.365-3.278 3.291-3.996 5.5-.717 2.209-.717 4.589 0 6.798.718 2.209 2.117 4.135 3.996 5.5 1.879 1.365 4.143 2.101 6.466 2.101 2.323 0 4.587-.736 6.466-2.101 1.879-1.365 3.278-3.291 3.996-5.5.717-2.209.717-4.589 0-6.798-.718-2.209-2.117-4.135-3.996-5.5C1648.787 1.636 1646.523.9 1644.2.9z" stroke="#1c2942" stroke-dasharray="19.217706471657788,49.89742387988899" stroke-dashoffset="69.11513"/><path d="M1636.3 12.8l5.6 5.6 10.9-10.9" stroke="#6495ed"/></g><g fill="#ffffff" stroke-miterlimit="10"><path d="M1668.2.9c-2.323 0-4.587.736-6.466 2.101-1.879 1.365-3.278 3.291-3.996 5.5-.717 2.209-.717 4.589 0 6.798.718 2.209 2.117 4.135 3.996 5.5 1.879 1.365 4.143 2.101 6.466 2.101 2.323 0 4.587-.736 6.466-2.101 1.879-1.365 3.278-3.291 3.996-5.5.717-2.209.717-4.589 0-6.798-.718-2.209-2.117-4.135-3.996-5.5C1672.787 1.636 1670.523.9 1668.2.9z" stroke="#253757" stroke-dasharray="25.38569075574997,43.72943959579681" stroke-dashoffset="69.11513"/><path d="M1660.3 12.8l5.6 5.6 10.9-10.9" stroke="#6495ed"/></g><g fill="#ffffff" stroke-miterlimit="10"><path d="M1692.2.9c-2.323 0-4.587.736-6.466 2.101-1.879 1.365-3.278 3.291-3.996 5.5-.717 2.209-.717 4.589 0 6.798.718 2.209 2.117 4.135 3.996 5.5 1.879 1.365 4.143 2.101 6.466 2.101 2.323 0 4.587-.736 6.466-2.101 1.879-1.365 3.278-3.291 3.996-5.5.717-2.209.717-4.589 0-6.798-.718-2.209-2.117-4.135-3.996-5.5C1696.787 1.636 1694.523.9 1692.2.9z" stroke="#2e446c" stroke-dasharray="31.603013600914643,37.51211675063214" stroke-dashoffset="69.11513"/><path d="M1684.3 12.8l5.6 5.6 10.9-10.9" stroke="#6495ed"/></g><g fill="#ffffff" stroke-miterlimit="10"><path d="M1716.2.9c-2.323 0-4.587.736-6.466 2.101-1.879 1.365-3.278 3.291-3.996 5.5-.717 2.209-.717 4.589 0 6.798.718 2.209 2.117 4.135 3.996 5.5 1.879 1.365 4.143 2.101 6.466 2.101 2.323 0 4.587-.736 6.466-2.101 1.879-1.365 3.278-3.291 3.996-5.5.717-2.209.717-4.589 0-6.798-.718-2.209-2.117-4.135-3.996-5.5C1720.787 1.636 1718.523.9 1716.2.9z" stroke="#365180" stroke-dasharray="37.353645291823284,31.761485059723498" stroke-dashoffset="69.11513"/><path d="M1708.3 12.8l5.6 5.6 10.9-10.9" stroke="#6495ed"/></g><g fill="#ffffff" stroke-miterlimit="10"><path d="M1740.2.9c-2.323 0-4.587.736-6.466 2.101-1.879 1.365-3.278 3.291-3.996 5.5-.717 2.209-.717 4.589 0 6.798.718 2.209 2.117 4.135 3.996 5.5 1.879 1.365 4.143 2.101 6.466 2.101 2.323 0 4.587-.736 6.466-2.101 1.879-1.365 3.278-3.291 3.996-5.5.717-2.209.717-4.589 0-6.798-.718-2.209-2.117-4.135-3.996-5.5C1744.787 1.636 1742.523.9 1740.2.9z" stroke="#3d5b91" stroke-dasharray="42.40868088801321,26.706449463533573" stroke-dashoffset="69.11513"/><path d="M1732.3 12.8l5.6 5.6 10.9-10.9" stroke="#6495ed"/></g><g fill="#ffffff" stroke-miterlimit="10"><path d="M1764.2.9c-2.323 0-4.587.736-6.466 2.101-1.879 1.365-3.278 3.291-3.996 5.5-.717 2.209-.717 4.589 0 6.798.718 2.209 2.117 4.135 3.996 5.5 1.879 1.365 4.143 2.101 6.466 2.101 2.323 0 4.587-.736 6.466-2.101 1.879-1.365 3.278-3.291 3.996-5.5.717-2.209.717-4.589 0-6.798-.718-2.209-2.117-4.135-3.996-5.5C1768.787 1.636 1766.523.9 1764.2.9z" stroke="#4465a0" stroke-dasharray="46.75083813227543,22.36429221927135" stroke-dashoffset="69.11513"/><path d="M1756.3 12.8l5.6 5.6 10.9-10.9" stroke="#6495ed"/></g><g fill="#ffffff" stroke-miterlimit="10"><path d="M1788.2.9c-2.323 0-4.587.736-6.466 2.101-1.879 1.365-3.278 3.291-3.996 5.5-.717 2.209-.717 4.589 0 6.798.718 2.209 2.117 4.135 3.996 5.5 1.879 1.365 4.143 2.101 6.466 2.101 2.323 0 4.587-.736 6.466-2.101 1.879-1.365 3.278-3.291 3.996-5.5.717-2.209.717-4.589 0-6.798-.718-2.209-2.117-4.135-3.996-5.5C1792.787 1.636 1790.523.9 1788.2.9z" stroke="#496dad" stroke-dasharray="50.451791514559126,18.663338836987656" stroke-dashoffset="69.11513"/><path d="M1780.3 12.8l5.6 5.6 10.9-10.9" stroke="#6495ed"/></g><g fill="#ffffff" stroke-miterlimit="10"><path d="M1812.2.9c-2.323 0-4.587.736-6.466 2.101-1.879 1.365-3.278 3.291-3.996 5.5-.717 2.209-.717 4.589 0 6.798.718 2.209 2.117 4.135 3.996 5.5 1.879 1.365 4.143 2.101 6.466 2.101 2.323 0 4.587-.736 6.466-2.101 1.879-1.365 3.278-3.291 3.996-5.5.717-2.209.717-4.589 0-6.798-.718-2.209-2.117-4.135-3.996-5.5C1816.787 1.636 1814.523.9 1812.2.9z" stroke="#4e74b8" stroke-dasharray="53.60302111341254,15.512109238134245" stroke-dashoffset="69.11513"/><path d="M1804.3 12.8l5.6 5.6 10.9-10.9" stroke="#6495ed"/></g><g fill="#ffffff" stroke-miterlimit="10"><path d="M1836.2.9c-2.323 0-4.587.736-6.466 2.101-1.879 1.365-3.278 3.291-3.996 5.5-.717 2.209-.717 4.589 0 6.798.718 2.209 2.117 4.135 3.996 5.5 1.879 1.365 4.143 2.101 6.466 2.101 2.323 0 4.587-.736 6.466-2.101 1.879-1.365 3.278-3.291 3.996-5.5.717-2.209.717-4.589 0-6.798-.718-2.209-2.117-4.135-3.996-5.5C1840.787 1.636 1838.523.9 1836.2.9z" stroke="#5179c1" stroke-dasharray="56.28957080224736,12.825559549299417" stroke-dashoffset="69.11513"/><path d="M1828.3 12.8l5.6 5.6 10.9-10.9" stroke="#6495ed"/></g><g fill="#ffffff" stroke-miterlimit="10"><path d="M1860.2.9c-2.323 0-4.587.736-6.466 2.101-1.879 1.365-3.278 3.291-3.996 5.5-.717 2.209-.717 4.589 0 6.798.718 2.209 2.117 4.135 3.996 5.5 1.879 1.365 4.143 2.101 6.466 2.101 2.323 0 4.587-.736 6.466-2.101 1.879-1.365 3.278-3.291 3.996-5.5.717-2.209.717-4.589 0-6.798-.718-2.209-2.117-4.135-3.996-5.5C1864.787 1.636 1862.523.9 1860.2.9z" stroke="#557ec9" stroke-dasharray="58.58323357388269,10.531896777664096" stroke-dashoffset="69.11513"/><path d="M1852.3 12.8l5.6 5.6 10.9-10.9" stroke="#6495ed"/></g><g fill="#ffffff" stroke-miterlimit="10"><path d="M1884.2.9c-2.323 0-4.587.736-6.466 2.101-1.879 1.365-3.278 3.291-3.996 5.5-.717 2.209-.717 4.589 0 6.798.718 2.209 2.117 4.135 3.996 5.5 1.879 1.365 4.143 2.101 6.466 2.101 2.323 0 4.587-.736 6.466-2.101 1.879-1.365 3.278-3.291 3.996-5.5.717-2.209.717-4.589 0-6.798-.718-2.209-2.117-4.135-3.996-5.5C1888.787 1.636 1886.523.9 1884.2.9z" stroke="#5883d0" stroke-dasharray="60.54263624560291,8.572494105943875" stroke-dashoffset="69.11513"/><path d="M1876.3 12.8l5.6 5.6 10.9-10.9" stroke="#6495ed"/></g><g fill="#ffffff" stroke-miterlimit="10"><path d="M1908.2.9c-2.323 0-4.587.736-6.466 2.101-1.879 1.365-3.278 3.291-3.996 5.5-.717 2.209-.717 4.589 0 6.798.718 2.209 2.117 4.135 3.996 5.5 1.879 1.365 4.143 2.101 6.466 2.101 2.323 0 4.587-.736 6.466-2.101 1.879-1.365 3.278-3.291 3.996-5.5.717-2.209.717-4.589 0-6.798-.718-2.209-2.117-4.135-3.996-5.5C1912.787 1.636 1910.523.9 1908.2.9z" stroke="#5a86d5" stroke-dasharray="62.215239715013446,6.899890636533336" stroke-dashoffset="69.11513"/><path d="M1900.3 12.8l5.6 5.6 10.9-10.9" stroke="#6495ed"/></g><g fill="#ffffff" stroke-miterlimit="10"><path d="M1932.2.9c-2.323 0-4.587.736-6.466 2.101-1.879 1.365-3.278 3.291-3.996 5.5-.717 2.209-.717 4.589 0 6.798.718 2.209 2.117 4.135 3.996 5.5 1.879 1.365 4.143 2.101 6.466 2.101 2.323 0 4.587-.736 6.466-2.101 1.879-1.365 3.278-3.291 3.996-5.5.717-2.209.717-4.589 0-6.798-.718-2.209-2.117-4.135-3.996-5.5C1936.787 1.636 1934.523.9 1932.2.9z" stroke="#5c89da" stroke-dasharray="63.63953829626724,5.4755920552795425" stroke-dashoffset="69.11513"/><path d="M1924.3 12.8l5.6 5.6 10.9-10.9" stroke="#6495ed"/></g><g fill="#ffffff" stroke-miterlimit="10"><path d="M1956.2.9c-2.323 0-4.587.736-6.466 2.101-1.879 1.365-3.278 3.291-3.996 5.5-.717 2.209-.717 4.589 0 6.798.718 2.209 2.117 4.135 3.996 5.5 1.879 1.365 4.143 2.101 6.466 2.101 2.323 0 4.587-.736 6.466-2.101 1.879-1.365 3.278-3.291 3.996-5.5.717-2.209.717-4.589 0-6.798-.718-2.209-2.117-4.135-3.996-5.5C1960.787 1.636 1958.523.9 1956.2.9z" stroke="#5e8cde" stroke-dasharray="64.84695914515619,4.2681712063905906" stroke-dashoffset="69.11513"/><path d="M1948.3 12.8l5.6 5.6 10.9-10.9" stroke="#6495ed"/></g><g fill="#ffffff" stroke-miterlimit="10"><path d="M1980.2.9c-2.323 0-4.587.736-6.466 2.101-1.879 1.365-3.278 3.291-3.996 5.5-.717 2.209-.717 4.589 0 6.798.718 2.209 2.117 4.135 3.996 5.5 1.879 1.365 4.143 2.101 6.466 2.101 2.323 0 4.587-.736 6.466-2.101 1.879-1.365 3.278-3.291 3.996-5.5.717-2.209.717-4.589 0-6.798-.718-2.209-2.117-4.135-3.996-5.5C1984.787 1.636 1982.523.9 1980.2.9z" stroke="#5f8ee2" stroke-dasharray="65.86337848445555,3.251751867091235" stroke-dashoffset="69.11513"/><path d="M1972.3 12.8l5.6 5.6 10.9-10.9" stroke="#6495ed"/></g><g fill="#ffffff" stroke-miterlimit="10"><path d="M2004.2.9c-2.323 0-4.587.736-6.466 2.101-1.879 1.365-3.278 3.291-3.996 5.5-.717 2.209-.717 4.589 0 6.798.718 2.209 2.117 4.135 3.996 5.5 1.879 1.365 4.143 2.101 6.466 2.101 2.323 0 4.587-.736 6.466-2.101 1.879-1.365 3.278-3.291 3.996-5.5.717-2.209.717-4.589 0-6.798-.718-2.209-2.117-4.135-3.996-5.5C2008.787 1.636 2006.523.9 2004.2.9z" stroke="#6190e5" stroke-dasharray="66.71029684146332,2.40483351008347" stroke-dashoffset="69.11513"/><path d="M1996.3 12.8l5.6 5.6 10.9-10.9" stroke="#6495ed"/></g><g fill="#ffffff" stroke-miterlimit="10"><path d="M2028.2.9c-2.323 0-4.587.736-6.466 2.101-1.879 1.365-3.278 3.291-3.996 5.5-.717 2.209-.717 4.589 0 6.798.718 2.209 2.117 4.135 3.996 5.5 1.879 1.365 4.143 2.101 6.466 2.101 2.323 0 4.587-.736 6.466-2.101 1.879-1.365 3.278-3.291 3.996-5.5.717-2.209.717-4.589 0-6.798-.718-2.209-2.117-4.135-3.996-5.5C2032.787 1.636 2030.523.9 2028.2.9z" stroke="#6291e7" stroke-dasharray="67.40574160419033,1.709388747356453" stroke-dashoffset="69.11513"/><path d="M2020.3 12.8l5.6 5.6 10.9-10.9" stroke="#6495ed"/></g><g fill="#ffffff" stroke-miterlimit="10"><path d="M2052.2.9c-2.323 0-4.587.736-6.466 2.101-1.879 1.365-3.278 3.291-3.996 5.5-.717 2.209-.717 4.589 0 6.798.718 2.209 2.117 4.135 3.996 5.5 1.879 1.365 4.143 2.101 6.466 2.101 2.323 0 4.587-.736 6.466-2.101 1.879-1.365 3.278-3.291 3.996-5.5.717-2.209.717-4.589 0-6.798-.718-2.209-2.117-4.135-3.996-5.5C2056.787 1.636 2054.523.9 2052.2.9z" stroke="#6293e9" stroke-dasharray="67.96496028588558,1.1501700656611955" stroke-dashoffset="69.11513"/><path d="M2044.3 12.8l5.6 5.6 10.9-10.9" stroke="#6495ed"/></g><g fill="#ffffff" stroke-miterlimit="10"><path d="M2076.2.9c-2.323 0-4.587.736-6.466 2.101-1.879 1.365-3.278 3.291-3.996 5.5-.717 2.209-.717 4.589 0 6.798.718 2.209 2.117 4.135 3.996 5.5 1.879 1.365 4.143 2.101 6.466 2.101 2.323 0 4.587-.736 6.466-2.101 1.879-1.365 3.278-3.291 3.996-5.5.717-2.209.717-4.589 0-6.798-.718-2.209-2.117-4.135-3.996-5.5C2080.787 1.636 2078.523.9 2076.2.9z" stroke="#6393eb" stroke-dasharray="68.40095560183792,0.7141747497088669" stroke-dashoffset="69.11513"/><path d="M2068.3 12.8l5.6 5.6 10.9-10.9" stroke="#6495ed"/></g><g fill="#ffffff" stroke-miterlimit="10"><path d="M2100.2.9c-2.323 0-4.587.736-6.466 2.101-1.879 1.365-3.278 3.291-3.996 5.5-.717 2.209-.717 4.589 0 6.798.718 2.209 2.117 4.135 3.996 5.5 1.879 1.365 4.143 2.101 6.466 2.101 2.323 0 4.587-.736 6.466-2.101 1.879-1.365 3.278-3.291 3.996-5.5.717-2.209.717-4.589 0-6.798-.718-2.209-2.117-4.135-3.996-5.5C2104.787 1.636 2102.523.9 2100.2.9z" stroke="#6394ec" stroke-dasharray="68.72490140022185,0.39022895132492214" stroke-dashoffset="69.11513"/><path d="M2092.3 12.8l5.6 5.6 10.9-10.9" stroke="#6495ed"/></g><g fill="#ffffff" stroke-miterlimit="10"><path d="M2124.2.9c-2.323 0-4.587.736-6.466 2.101-1.879 1.365-3.278 3.291-3.996 5.5-.717 2.209-.717 4.589 0 6.798.718 2.209 2.117 4.135 3.996 5.5 1.879 1.365 4.143 2.101 6.466 2.101 2.323 0 4.587-.736 6.466-2.101 1.879-1.365 3.278-3.291 3.996-5.5.717-2.209.717-4.589 0-6.798-.718-2.209-2.117-4.135-3.996-5.5C2128.787 1.636 2126.523.9 2124.2.9z" stroke="#6495ec" stroke-dasharray="68.9464686287893,0.16866172275747157" stroke-dashoffset="69.11513"/><path d="M2116.3 12.8l5.6 5.6 10.9-10.9" stroke="#6495ed"/></g><g fill="#ffffff" stroke="#6495ed" stroke-miterlimit="10"><path d="M2148.2.9c-2.323 0-4.587.736-6.466 2.101-1.879 1.365-3.278 3.291-3.996 5.5-.717 2.209-.717 4.589 0 6.798.718 2.209 2.117 4.135 3.996 5.5 1.879 1.365 4.143 2.101 6.466 2.101 2.323 0 4.587-.736 6.466-2.101 1.879-1.365 3.278-3.291 3.996-5.5.717-2.209.717-4.589 0-6.798-.718-2.209-2.117-4.135-3.996-5.5C2152.787 1.636 2150.523.9 2148.2.9z" stroke-dasharray="69.07408299006772,0.04104736147906255" stroke-dashoffset="69.11513"/><path d="M2140.3 12.8l5.6 5.6 10.9-10.9"/></g><g fill="#ffffff" stroke="#6495ed" stroke-miterlimit="10"><path d="M2172.2.9c-2.323 0-4.587.736-6.466 2.101-1.879 1.365-3.278 3.291-3.996 5.5-.717 2.209-.717 4.589 0 6.798.718 2.209 2.117 4.135 3.996 5.5 1.879 1.365 4.143 2.101 6.466 2.101 2.323 0 4.587-.736 6.466-2.101 1.879-1.365 3.278-3.291 3.996-5.5.717-2.209.717-4.589 0-6.798-.718-2.209-2.117-4.135-3.996-5.5C2176.787 1.636 2174.523.9 2172.2.9z"/><path d="M2164.3 12.8l5.6 5.6 10.9-10.9"/></g></svg>